%TF.GenerationSoftware,KiCad,Pcbnew,8.0.5*%
%TF.CreationDate,2024-11-11T00:13:19-08:00*%
%TF.ProjectId,Switch Lock,53776974-6368-4204-9c6f-636b2e6b6963,rev?*%
%TF.SameCoordinates,Original*%
%TF.FileFunction,Legend,Top*%
%TF.FilePolarity,Positive*%
%FSLAX46Y46*%
G04 Gerber Fmt 4.6, Leading zero omitted, Abs format (unit mm)*
G04 Created by KiCad (PCBNEW 8.0.5) date 2024-11-11 00:13:19*
%MOMM*%
%LPD*%
G01*
G04 APERTURE LIST*
%ADD10C,0.150000*%
%ADD11C,0.120000*%
%ADD12C,0.127000*%
G04 APERTURE END LIST*
D10*
X126336666Y-58014819D02*
X126003333Y-57538628D01*
X125765238Y-58014819D02*
X125765238Y-57014819D01*
X125765238Y-57014819D02*
X126146190Y-57014819D01*
X126146190Y-57014819D02*
X126241428Y-57062438D01*
X126241428Y-57062438D02*
X126289047Y-57110057D01*
X126289047Y-57110057D02*
X126336666Y-57205295D01*
X126336666Y-57205295D02*
X126336666Y-57348152D01*
X126336666Y-57348152D02*
X126289047Y-57443390D01*
X126289047Y-57443390D02*
X126241428Y-57491009D01*
X126241428Y-57491009D02*
X126146190Y-57538628D01*
X126146190Y-57538628D02*
X125765238Y-57538628D01*
X126765238Y-57491009D02*
X127098571Y-57491009D01*
X127241428Y-58014819D02*
X126765238Y-58014819D01*
X126765238Y-58014819D02*
X126765238Y-57014819D01*
X126765238Y-57014819D02*
X127241428Y-57014819D01*
X128003333Y-57491009D02*
X127670000Y-57491009D01*
X127670000Y-58014819D02*
X127670000Y-57014819D01*
X127670000Y-57014819D02*
X128146190Y-57014819D01*
X128670000Y-57014819D02*
X128670000Y-57252914D01*
X128431905Y-57157676D02*
X128670000Y-57252914D01*
X128670000Y-57252914D02*
X128908095Y-57157676D01*
X128527143Y-57443390D02*
X128670000Y-57252914D01*
X128670000Y-57252914D02*
X128812857Y-57443390D01*
X129431905Y-57014819D02*
X129431905Y-57252914D01*
X129193810Y-57157676D02*
X129431905Y-57252914D01*
X129431905Y-57252914D02*
X129670000Y-57157676D01*
X129289048Y-57443390D02*
X129431905Y-57252914D01*
X129431905Y-57252914D02*
X129574762Y-57443390D01*
X98043333Y-67494819D02*
X97710000Y-67018628D01*
X97471905Y-67494819D02*
X97471905Y-66494819D01*
X97471905Y-66494819D02*
X97852857Y-66494819D01*
X97852857Y-66494819D02*
X97948095Y-66542438D01*
X97948095Y-66542438D02*
X97995714Y-66590057D01*
X97995714Y-66590057D02*
X98043333Y-66685295D01*
X98043333Y-66685295D02*
X98043333Y-66828152D01*
X98043333Y-66828152D02*
X97995714Y-66923390D01*
X97995714Y-66923390D02*
X97948095Y-66971009D01*
X97948095Y-66971009D02*
X97852857Y-67018628D01*
X97852857Y-67018628D02*
X97471905Y-67018628D01*
X98995714Y-67494819D02*
X98424286Y-67494819D01*
X98710000Y-67494819D02*
X98710000Y-66494819D01*
X98710000Y-66494819D02*
X98614762Y-66637676D01*
X98614762Y-66637676D02*
X98519524Y-66732914D01*
X98519524Y-66732914D02*
X98424286Y-66780533D01*
X120544203Y-58514379D02*
X120687165Y-58562032D01*
X120687165Y-58562032D02*
X120925434Y-58562032D01*
X120925434Y-58562032D02*
X121020742Y-58514379D01*
X121020742Y-58514379D02*
X121068396Y-58466725D01*
X121068396Y-58466725D02*
X121116050Y-58371417D01*
X121116050Y-58371417D02*
X121116050Y-58276109D01*
X121116050Y-58276109D02*
X121068396Y-58180801D01*
X121068396Y-58180801D02*
X121020742Y-58133147D01*
X121020742Y-58133147D02*
X120925434Y-58085493D01*
X120925434Y-58085493D02*
X120734819Y-58037839D01*
X120734819Y-58037839D02*
X120639511Y-57990186D01*
X120639511Y-57990186D02*
X120591857Y-57942532D01*
X120591857Y-57942532D02*
X120544203Y-57847224D01*
X120544203Y-57847224D02*
X120544203Y-57751916D01*
X120544203Y-57751916D02*
X120591857Y-57656608D01*
X120591857Y-57656608D02*
X120639511Y-57608954D01*
X120639511Y-57608954D02*
X120734819Y-57561300D01*
X120734819Y-57561300D02*
X120973088Y-57561300D01*
X120973088Y-57561300D02*
X121116050Y-57608954D01*
X121401973Y-57894878D02*
X121783205Y-57894878D01*
X121544935Y-57561300D02*
X121544935Y-58419071D01*
X121544935Y-58419071D02*
X121592589Y-58514379D01*
X121592589Y-58514379D02*
X121687897Y-58562032D01*
X121687897Y-58562032D02*
X121783205Y-58562032D01*
X122545667Y-58562032D02*
X122545667Y-58037839D01*
X122545667Y-58037839D02*
X122498013Y-57942532D01*
X122498013Y-57942532D02*
X122402705Y-57894878D01*
X122402705Y-57894878D02*
X122212090Y-57894878D01*
X122212090Y-57894878D02*
X122116782Y-57942532D01*
X122545667Y-58514379D02*
X122450359Y-58562032D01*
X122450359Y-58562032D02*
X122212090Y-58562032D01*
X122212090Y-58562032D02*
X122116782Y-58514379D01*
X122116782Y-58514379D02*
X122069128Y-58419071D01*
X122069128Y-58419071D02*
X122069128Y-58323763D01*
X122069128Y-58323763D02*
X122116782Y-58228455D01*
X122116782Y-58228455D02*
X122212090Y-58180801D01*
X122212090Y-58180801D02*
X122450359Y-58180801D01*
X122450359Y-58180801D02*
X122545667Y-58133147D01*
X122879244Y-57894878D02*
X123260476Y-57894878D01*
X123022206Y-57561300D02*
X123022206Y-58419071D01*
X123022206Y-58419071D02*
X123069860Y-58514379D01*
X123069860Y-58514379D02*
X123165168Y-58562032D01*
X123165168Y-58562032D02*
X123260476Y-58562032D01*
X124022938Y-57894878D02*
X124022938Y-58562032D01*
X123594053Y-57894878D02*
X123594053Y-58419071D01*
X123594053Y-58419071D02*
X123641707Y-58514379D01*
X123641707Y-58514379D02*
X123737015Y-58562032D01*
X123737015Y-58562032D02*
X123879976Y-58562032D01*
X123879976Y-58562032D02*
X123975284Y-58514379D01*
X123975284Y-58514379D02*
X124022938Y-58466725D01*
X124451823Y-58514379D02*
X124547131Y-58562032D01*
X124547131Y-58562032D02*
X124737747Y-58562032D01*
X124737747Y-58562032D02*
X124833054Y-58514379D01*
X124833054Y-58514379D02*
X124880708Y-58419071D01*
X124880708Y-58419071D02*
X124880708Y-58371417D01*
X124880708Y-58371417D02*
X124833054Y-58276109D01*
X124833054Y-58276109D02*
X124737747Y-58228455D01*
X124737747Y-58228455D02*
X124594785Y-58228455D01*
X124594785Y-58228455D02*
X124499477Y-58180801D01*
X124499477Y-58180801D02*
X124451823Y-58085493D01*
X124451823Y-58085493D02*
X124451823Y-58037839D01*
X124451823Y-58037839D02*
X124499477Y-57942532D01*
X124499477Y-57942532D02*
X124594785Y-57894878D01*
X124594785Y-57894878D02*
X124737747Y-57894878D01*
X124737747Y-57894878D02*
X124833054Y-57942532D01*
X125833786Y-58562032D02*
X125261939Y-58562032D01*
X125547863Y-58562032D02*
X125547863Y-57561300D01*
X125547863Y-57561300D02*
X125452555Y-57704262D01*
X125452555Y-57704262D02*
X125357247Y-57799570D01*
X125357247Y-57799570D02*
X125261939Y-57847224D01*
X100868542Y-79922379D02*
X101011504Y-79970032D01*
X101011504Y-79970032D02*
X101249773Y-79970032D01*
X101249773Y-79970032D02*
X101345081Y-79922379D01*
X101345081Y-79922379D02*
X101392735Y-79874725D01*
X101392735Y-79874725D02*
X101440389Y-79779417D01*
X101440389Y-79779417D02*
X101440389Y-79684109D01*
X101440389Y-79684109D02*
X101392735Y-79588801D01*
X101392735Y-79588801D02*
X101345081Y-79541147D01*
X101345081Y-79541147D02*
X101249773Y-79493493D01*
X101249773Y-79493493D02*
X101059158Y-79445839D01*
X101059158Y-79445839D02*
X100963850Y-79398186D01*
X100963850Y-79398186D02*
X100916196Y-79350532D01*
X100916196Y-79350532D02*
X100868542Y-79255224D01*
X100868542Y-79255224D02*
X100868542Y-79159916D01*
X100868542Y-79159916D02*
X100916196Y-79064608D01*
X100916196Y-79064608D02*
X100963850Y-79016954D01*
X100963850Y-79016954D02*
X101059158Y-78969300D01*
X101059158Y-78969300D02*
X101297427Y-78969300D01*
X101297427Y-78969300D02*
X101440389Y-79016954D01*
X101821620Y-79064608D02*
X101869274Y-79016954D01*
X101869274Y-79016954D02*
X101964582Y-78969300D01*
X101964582Y-78969300D02*
X102202851Y-78969300D01*
X102202851Y-78969300D02*
X102298159Y-79016954D01*
X102298159Y-79016954D02*
X102345813Y-79064608D01*
X102345813Y-79064608D02*
X102393467Y-79159916D01*
X102393467Y-79159916D02*
X102393467Y-79255224D01*
X102393467Y-79255224D02*
X102345813Y-79398186D01*
X102345813Y-79398186D02*
X101773966Y-79970032D01*
X101773966Y-79970032D02*
X102393467Y-79970032D01*
X90688542Y-79960629D02*
X90831504Y-80008282D01*
X90831504Y-80008282D02*
X91069773Y-80008282D01*
X91069773Y-80008282D02*
X91165081Y-79960629D01*
X91165081Y-79960629D02*
X91212735Y-79912975D01*
X91212735Y-79912975D02*
X91260389Y-79817667D01*
X91260389Y-79817667D02*
X91260389Y-79722359D01*
X91260389Y-79722359D02*
X91212735Y-79627051D01*
X91212735Y-79627051D02*
X91165081Y-79579397D01*
X91165081Y-79579397D02*
X91069773Y-79531743D01*
X91069773Y-79531743D02*
X90879158Y-79484089D01*
X90879158Y-79484089D02*
X90783850Y-79436436D01*
X90783850Y-79436436D02*
X90736196Y-79388782D01*
X90736196Y-79388782D02*
X90688542Y-79293474D01*
X90688542Y-79293474D02*
X90688542Y-79198166D01*
X90688542Y-79198166D02*
X90736196Y-79102858D01*
X90736196Y-79102858D02*
X90783850Y-79055204D01*
X90783850Y-79055204D02*
X90879158Y-79007550D01*
X90879158Y-79007550D02*
X91117427Y-79007550D01*
X91117427Y-79007550D02*
X91260389Y-79055204D01*
X92213467Y-80008282D02*
X91641620Y-80008282D01*
X91927544Y-80008282D02*
X91927544Y-79007550D01*
X91927544Y-79007550D02*
X91832236Y-79150512D01*
X91832236Y-79150512D02*
X91736928Y-79245820D01*
X91736928Y-79245820D02*
X91641620Y-79293474D01*
X120998542Y-79870629D02*
X121141504Y-79918282D01*
X121141504Y-79918282D02*
X121379773Y-79918282D01*
X121379773Y-79918282D02*
X121475081Y-79870629D01*
X121475081Y-79870629D02*
X121522735Y-79822975D01*
X121522735Y-79822975D02*
X121570389Y-79727667D01*
X121570389Y-79727667D02*
X121570389Y-79632359D01*
X121570389Y-79632359D02*
X121522735Y-79537051D01*
X121522735Y-79537051D02*
X121475081Y-79489397D01*
X121475081Y-79489397D02*
X121379773Y-79441743D01*
X121379773Y-79441743D02*
X121189158Y-79394089D01*
X121189158Y-79394089D02*
X121093850Y-79346436D01*
X121093850Y-79346436D02*
X121046196Y-79298782D01*
X121046196Y-79298782D02*
X120998542Y-79203474D01*
X120998542Y-79203474D02*
X120998542Y-79108166D01*
X120998542Y-79108166D02*
X121046196Y-79012858D01*
X121046196Y-79012858D02*
X121093850Y-78965204D01*
X121093850Y-78965204D02*
X121189158Y-78917550D01*
X121189158Y-78917550D02*
X121427427Y-78917550D01*
X121427427Y-78917550D02*
X121570389Y-78965204D01*
X122428159Y-79251128D02*
X122428159Y-79918282D01*
X122189890Y-78869897D02*
X121951620Y-79584705D01*
X121951620Y-79584705D02*
X122571121Y-79584705D01*
X104614819Y-69053333D02*
X105329104Y-69053333D01*
X105329104Y-69053333D02*
X105471961Y-69100952D01*
X105471961Y-69100952D02*
X105567200Y-69196190D01*
X105567200Y-69196190D02*
X105614819Y-69339047D01*
X105614819Y-69339047D02*
X105614819Y-69434285D01*
X104710057Y-68624761D02*
X104662438Y-68577142D01*
X104662438Y-68577142D02*
X104614819Y-68481904D01*
X104614819Y-68481904D02*
X104614819Y-68243809D01*
X104614819Y-68243809D02*
X104662438Y-68148571D01*
X104662438Y-68148571D02*
X104710057Y-68100952D01*
X104710057Y-68100952D02*
X104805295Y-68053333D01*
X104805295Y-68053333D02*
X104900533Y-68053333D01*
X104900533Y-68053333D02*
X105043390Y-68100952D01*
X105043390Y-68100952D02*
X105614819Y-68672380D01*
X105614819Y-68672380D02*
X105614819Y-68053333D01*
X110948542Y-79852379D02*
X111091504Y-79900032D01*
X111091504Y-79900032D02*
X111329773Y-79900032D01*
X111329773Y-79900032D02*
X111425081Y-79852379D01*
X111425081Y-79852379D02*
X111472735Y-79804725D01*
X111472735Y-79804725D02*
X111520389Y-79709417D01*
X111520389Y-79709417D02*
X111520389Y-79614109D01*
X111520389Y-79614109D02*
X111472735Y-79518801D01*
X111472735Y-79518801D02*
X111425081Y-79471147D01*
X111425081Y-79471147D02*
X111329773Y-79423493D01*
X111329773Y-79423493D02*
X111139158Y-79375839D01*
X111139158Y-79375839D02*
X111043850Y-79328186D01*
X111043850Y-79328186D02*
X110996196Y-79280532D01*
X110996196Y-79280532D02*
X110948542Y-79185224D01*
X110948542Y-79185224D02*
X110948542Y-79089916D01*
X110948542Y-79089916D02*
X110996196Y-78994608D01*
X110996196Y-78994608D02*
X111043850Y-78946954D01*
X111043850Y-78946954D02*
X111139158Y-78899300D01*
X111139158Y-78899300D02*
X111377427Y-78899300D01*
X111377427Y-78899300D02*
X111520389Y-78946954D01*
X111853966Y-78899300D02*
X112473467Y-78899300D01*
X112473467Y-78899300D02*
X112139890Y-79280532D01*
X112139890Y-79280532D02*
X112282851Y-79280532D01*
X112282851Y-79280532D02*
X112378159Y-79328186D01*
X112378159Y-79328186D02*
X112425813Y-79375839D01*
X112425813Y-79375839D02*
X112473467Y-79471147D01*
X112473467Y-79471147D02*
X112473467Y-79709417D01*
X112473467Y-79709417D02*
X112425813Y-79804725D01*
X112425813Y-79804725D02*
X112378159Y-79852379D01*
X112378159Y-79852379D02*
X112282851Y-79900032D01*
X112282851Y-79900032D02*
X111996928Y-79900032D01*
X111996928Y-79900032D02*
X111901620Y-79852379D01*
X111901620Y-79852379D02*
X111853966Y-79804725D01*
X95156666Y-57474819D02*
X94823333Y-56998628D01*
X94585238Y-57474819D02*
X94585238Y-56474819D01*
X94585238Y-56474819D02*
X94966190Y-56474819D01*
X94966190Y-56474819D02*
X95061428Y-56522438D01*
X95061428Y-56522438D02*
X95109047Y-56570057D01*
X95109047Y-56570057D02*
X95156666Y-56665295D01*
X95156666Y-56665295D02*
X95156666Y-56808152D01*
X95156666Y-56808152D02*
X95109047Y-56903390D01*
X95109047Y-56903390D02*
X95061428Y-56951009D01*
X95061428Y-56951009D02*
X94966190Y-56998628D01*
X94966190Y-56998628D02*
X94585238Y-56998628D01*
X95585238Y-56951009D02*
X95918571Y-56951009D01*
X96061428Y-57474819D02*
X95585238Y-57474819D01*
X95585238Y-57474819D02*
X95585238Y-56474819D01*
X95585238Y-56474819D02*
X96061428Y-56474819D01*
X96823333Y-56951009D02*
X96490000Y-56951009D01*
X96490000Y-57474819D02*
X96490000Y-56474819D01*
X96490000Y-56474819D02*
X96966190Y-56474819D01*
X97490000Y-56474819D02*
X97490000Y-56712914D01*
X97251905Y-56617676D02*
X97490000Y-56712914D01*
X97490000Y-56712914D02*
X97728095Y-56617676D01*
X97347143Y-56903390D02*
X97490000Y-56712914D01*
X97490000Y-56712914D02*
X97632857Y-56903390D01*
X98251905Y-56474819D02*
X98251905Y-56712914D01*
X98013810Y-56617676D02*
X98251905Y-56712914D01*
X98251905Y-56712914D02*
X98490000Y-56617676D01*
X98109048Y-56903390D02*
X98251905Y-56712914D01*
X98251905Y-56712914D02*
X98394762Y-56903390D01*
D11*
%TO.C,R1*%
X97982936Y-67955000D02*
X98437064Y-67955000D01*
X97982936Y-69425000D02*
X98437064Y-69425000D01*
D12*
%TO.C,Status1*%
X113250000Y-59731750D02*
X113250000Y-56131750D01*
X122250000Y-56131750D02*
X113250000Y-56131750D01*
X122250000Y-59731750D02*
X122250000Y-56131750D01*
%TO.C,S2*%
X102570000Y-77890000D02*
X102570000Y-81490000D01*
X102570000Y-81490000D02*
X111570000Y-81490000D01*
X111570000Y-77890000D02*
X111570000Y-81490000D01*
%TO.C,S1*%
X92390000Y-77928250D02*
X92390000Y-81528250D01*
X92390000Y-81528250D02*
X101390000Y-81528250D01*
X101390000Y-77928250D02*
X101390000Y-81528250D01*
%TO.C,S4*%
X122700000Y-77838250D02*
X122700000Y-81438250D01*
X122700000Y-81438250D02*
X131700000Y-81438250D01*
X131700000Y-77838250D02*
X131700000Y-81438250D01*
D11*
%TO.C,J2*%
X106160000Y-70050000D02*
X106160000Y-68720000D01*
X107490000Y-70050000D02*
X106160000Y-70050000D01*
X108760000Y-67390000D02*
X124060000Y-67390000D01*
X108760000Y-70050000D02*
X108760000Y-67390000D01*
X108760000Y-70050000D02*
X124060000Y-70050000D01*
X124060000Y-70050000D02*
X124060000Y-67390000D01*
D12*
%TO.C,S3*%
X112650000Y-77820000D02*
X112650000Y-81420000D01*
X112650000Y-81420000D02*
X121650000Y-81420000D01*
X121650000Y-77820000D02*
X121650000Y-81420000D01*
%TD*%
M02*
