%TF.GenerationSoftware,KiCad,Pcbnew,8.0.5*%
%TF.CreationDate,2024-11-11T16:35:56-08:00*%
%TF.ProjectId,Switch Lock,53776974-6368-4204-9c6f-636b2e6b6963,rev?*%
%TF.SameCoordinates,Original*%
%TF.FileFunction,Copper,L2,Bot*%
%TF.FilePolarity,Positive*%
%FSLAX46Y46*%
G04 Gerber Fmt 4.6, Leading zero omitted, Abs format (unit mm)*
G04 Created by KiCad (PCBNEW 8.0.5) date 2024-11-11 16:35:56*
%MOMM*%
%LPD*%
G01*
G04 APERTURE LIST*
%TA.AperFunction,ComponentPad*%
%ADD10R,1.700000X1.700000*%
%TD*%
%TA.AperFunction,ComponentPad*%
%ADD11O,1.700000X1.700000*%
%TD*%
%TA.AperFunction,ViaPad*%
%ADD12C,1.000000*%
%TD*%
G04 APERTURE END LIST*
D10*
%TO.P,J2,1,Pin_1*%
%TO.N,Net-(J2-Pin_1)*%
X107490000Y-68720000D03*
D11*
%TO.P,J2,2,Pin_2*%
%TO.N,Net-(J2-Pin_2)*%
X110030000Y-68720000D03*
%TO.P,J2,3,Pin_3*%
%TO.N,Net-(J2-Pin_3)*%
X112570000Y-68720000D03*
%TO.P,J2,4,Pin_4*%
%TO.N,Net-(J2-Pin_4)*%
X115110000Y-68720000D03*
%TO.P,J2,5,Pin_5*%
%TO.N,Net-(J2-Pin_5)*%
X117650000Y-68720000D03*
%TO.P,J2,6,Pin_6*%
%TO.N,Net-(J2-Pin_6)*%
X120190000Y-68720000D03*
%TO.P,J2,7,Pin_7*%
%TO.N,GND*%
X122730000Y-68720000D03*
%TD*%
D12*
%TO.N,GND*%
X128090000Y-69527500D03*
X119650000Y-76870000D03*
X115250000Y-60681750D03*
X109570000Y-76940000D03*
X99390000Y-76978250D03*
X129700000Y-76888250D03*
%TD*%
%TA.AperFunction,Conductor*%
%TO.N,GND*%
G36*
X132252539Y-55750185D02*
G01*
X132298294Y-55802989D01*
X132309500Y-55854500D01*
X132309500Y-81815500D01*
X132289815Y-81882539D01*
X132237011Y-81928294D01*
X132185500Y-81939500D01*
X92234500Y-81939500D01*
X92167461Y-81919815D01*
X92121706Y-81867011D01*
X92110500Y-81815500D01*
X92110500Y-79802170D01*
X92739499Y-79802170D01*
X92768340Y-79947157D01*
X92768343Y-79947167D01*
X92824912Y-80083738D01*
X92824919Y-80083751D01*
X92907048Y-80206665D01*
X92907051Y-80206669D01*
X93011580Y-80311198D01*
X93011584Y-80311201D01*
X93134498Y-80393330D01*
X93134511Y-80393337D01*
X93248374Y-80440500D01*
X93271087Y-80449908D01*
X93271091Y-80449908D01*
X93271092Y-80449909D01*
X93416079Y-80478750D01*
X93416082Y-80478750D01*
X93563920Y-80478750D01*
X93661462Y-80459346D01*
X93708913Y-80449908D01*
X93845495Y-80393334D01*
X93968416Y-80311201D01*
X94072951Y-80206666D01*
X94155084Y-80083745D01*
X94211658Y-79947163D01*
X94240500Y-79802170D01*
X99539499Y-79802170D01*
X99568340Y-79947157D01*
X99568343Y-79947167D01*
X99624912Y-80083738D01*
X99624919Y-80083751D01*
X99707048Y-80206665D01*
X99707051Y-80206669D01*
X99811580Y-80311198D01*
X99811584Y-80311201D01*
X99934498Y-80393330D01*
X99934511Y-80393337D01*
X100048374Y-80440500D01*
X100071087Y-80449908D01*
X100071091Y-80449908D01*
X100071092Y-80449909D01*
X100216079Y-80478750D01*
X100216082Y-80478750D01*
X100363920Y-80478750D01*
X100461462Y-80459346D01*
X100508913Y-80449908D01*
X100645495Y-80393334D01*
X100768416Y-80311201D01*
X100872951Y-80206666D01*
X100955084Y-80083745D01*
X101011658Y-79947163D01*
X101040500Y-79802168D01*
X101040500Y-79763920D01*
X102919499Y-79763920D01*
X102948340Y-79908907D01*
X102948343Y-79908917D01*
X103004912Y-80045488D01*
X103004919Y-80045501D01*
X103087048Y-80168415D01*
X103087051Y-80168419D01*
X103191580Y-80272948D01*
X103191584Y-80272951D01*
X103314498Y-80355080D01*
X103314511Y-80355087D01*
X103406856Y-80393337D01*
X103451087Y-80411658D01*
X103451091Y-80411658D01*
X103451092Y-80411659D01*
X103596079Y-80440500D01*
X103596082Y-80440500D01*
X103743920Y-80440500D01*
X103841462Y-80421096D01*
X103888913Y-80411658D01*
X103994547Y-80367902D01*
X104025488Y-80355087D01*
X104025488Y-80355086D01*
X104025495Y-80355084D01*
X104148416Y-80272951D01*
X104252951Y-80168416D01*
X104335084Y-80045495D01*
X104391658Y-79908913D01*
X104401953Y-79857157D01*
X104420500Y-79763920D01*
X109719499Y-79763920D01*
X109748340Y-79908907D01*
X109748343Y-79908917D01*
X109804912Y-80045488D01*
X109804919Y-80045501D01*
X109887048Y-80168415D01*
X109887051Y-80168419D01*
X109991580Y-80272948D01*
X109991584Y-80272951D01*
X110114498Y-80355080D01*
X110114511Y-80355087D01*
X110206856Y-80393337D01*
X110251087Y-80411658D01*
X110251091Y-80411658D01*
X110251092Y-80411659D01*
X110396079Y-80440500D01*
X110396082Y-80440500D01*
X110543920Y-80440500D01*
X110641462Y-80421096D01*
X110688913Y-80411658D01*
X110794547Y-80367902D01*
X110825488Y-80355087D01*
X110825488Y-80355086D01*
X110825495Y-80355084D01*
X110948416Y-80272951D01*
X111052951Y-80168416D01*
X111135084Y-80045495D01*
X111191658Y-79908913D01*
X111201953Y-79857157D01*
X111220500Y-79763920D01*
X111220500Y-79693920D01*
X112999499Y-79693920D01*
X113028340Y-79838907D01*
X113028343Y-79838917D01*
X113084912Y-79975488D01*
X113084919Y-79975501D01*
X113167048Y-80098415D01*
X113167051Y-80098419D01*
X113271580Y-80202948D01*
X113271584Y-80202951D01*
X113394498Y-80285080D01*
X113394511Y-80285087D01*
X113531082Y-80341656D01*
X113531087Y-80341658D01*
X113531091Y-80341658D01*
X113531092Y-80341659D01*
X113676079Y-80370500D01*
X113676082Y-80370500D01*
X113823920Y-80370500D01*
X113921462Y-80351096D01*
X113968913Y-80341658D01*
X114105495Y-80285084D01*
X114228416Y-80202951D01*
X114332951Y-80098416D01*
X114415084Y-79975495D01*
X114471658Y-79838913D01*
X114481096Y-79791462D01*
X114500500Y-79693920D01*
X119799499Y-79693920D01*
X119828340Y-79838907D01*
X119828343Y-79838917D01*
X119884912Y-79975488D01*
X119884919Y-79975501D01*
X119967048Y-80098415D01*
X119967051Y-80098419D01*
X120071580Y-80202948D01*
X120071584Y-80202951D01*
X120194498Y-80285080D01*
X120194511Y-80285087D01*
X120331082Y-80341656D01*
X120331087Y-80341658D01*
X120331091Y-80341658D01*
X120331092Y-80341659D01*
X120476079Y-80370500D01*
X120476082Y-80370500D01*
X120623920Y-80370500D01*
X120721462Y-80351096D01*
X120768913Y-80341658D01*
X120905495Y-80285084D01*
X121028416Y-80202951D01*
X121132951Y-80098416D01*
X121215084Y-79975495D01*
X121271658Y-79838913D01*
X121281096Y-79791462D01*
X121296870Y-79712170D01*
X123049499Y-79712170D01*
X123078340Y-79857157D01*
X123078343Y-79857167D01*
X123134912Y-79993738D01*
X123134919Y-79993751D01*
X123217048Y-80116665D01*
X123217051Y-80116669D01*
X123321580Y-80221198D01*
X123321584Y-80221201D01*
X123444498Y-80303330D01*
X123444511Y-80303337D01*
X123569431Y-80355080D01*
X123581087Y-80359908D01*
X123581091Y-80359908D01*
X123581092Y-80359909D01*
X123726079Y-80388750D01*
X123726082Y-80388750D01*
X123873920Y-80388750D01*
X123971462Y-80369346D01*
X124018913Y-80359908D01*
X124155495Y-80303334D01*
X124278416Y-80221201D01*
X124382951Y-80116666D01*
X124465084Y-79993745D01*
X124521658Y-79857163D01*
X124550500Y-79712170D01*
X129849499Y-79712170D01*
X129878340Y-79857157D01*
X129878343Y-79857167D01*
X129934912Y-79993738D01*
X129934919Y-79993751D01*
X130017048Y-80116665D01*
X130017051Y-80116669D01*
X130121580Y-80221198D01*
X130121584Y-80221201D01*
X130244498Y-80303330D01*
X130244511Y-80303337D01*
X130369431Y-80355080D01*
X130381087Y-80359908D01*
X130381091Y-80359908D01*
X130381092Y-80359909D01*
X130526079Y-80388750D01*
X130526082Y-80388750D01*
X130673920Y-80388750D01*
X130771462Y-80369346D01*
X130818913Y-80359908D01*
X130955495Y-80303334D01*
X131078416Y-80221201D01*
X131182951Y-80116666D01*
X131265084Y-79993745D01*
X131321658Y-79857163D01*
X131350500Y-79712168D01*
X131350500Y-79564332D01*
X131350500Y-79564329D01*
X131321659Y-79419342D01*
X131321658Y-79419341D01*
X131321658Y-79419337D01*
X131286517Y-79334498D01*
X131265087Y-79282761D01*
X131265080Y-79282748D01*
X131182951Y-79159834D01*
X131182948Y-79159830D01*
X131078419Y-79055301D01*
X131078415Y-79055298D01*
X130955501Y-78973169D01*
X130955488Y-78973162D01*
X130818917Y-78916593D01*
X130818907Y-78916590D01*
X130673920Y-78887750D01*
X130673918Y-78887750D01*
X130526082Y-78887750D01*
X130526080Y-78887750D01*
X130381092Y-78916590D01*
X130381082Y-78916593D01*
X130244511Y-78973162D01*
X130244498Y-78973169D01*
X130121584Y-79055298D01*
X130121580Y-79055301D01*
X130017051Y-79159830D01*
X130017048Y-79159834D01*
X129934919Y-79282748D01*
X129934912Y-79282761D01*
X129878343Y-79419332D01*
X129878340Y-79419342D01*
X129849500Y-79564329D01*
X129849500Y-79564332D01*
X129849500Y-79712168D01*
X129849500Y-79712170D01*
X129849499Y-79712170D01*
X124550500Y-79712170D01*
X124550500Y-79712168D01*
X124550500Y-79564332D01*
X124550500Y-79564329D01*
X124521659Y-79419342D01*
X124521658Y-79419341D01*
X124521658Y-79419337D01*
X124486517Y-79334498D01*
X124465087Y-79282761D01*
X124465080Y-79282748D01*
X124382951Y-79159834D01*
X124382948Y-79159830D01*
X124278419Y-79055301D01*
X124278415Y-79055298D01*
X124155501Y-78973169D01*
X124155488Y-78973162D01*
X124018917Y-78916593D01*
X124018907Y-78916590D01*
X123873920Y-78887750D01*
X123873918Y-78887750D01*
X123726082Y-78887750D01*
X123726080Y-78887750D01*
X123581092Y-78916590D01*
X123581082Y-78916593D01*
X123444511Y-78973162D01*
X123444498Y-78973169D01*
X123321584Y-79055298D01*
X123321580Y-79055301D01*
X123217051Y-79159830D01*
X123217048Y-79159834D01*
X123134919Y-79282748D01*
X123134912Y-79282761D01*
X123078343Y-79419332D01*
X123078340Y-79419342D01*
X123049500Y-79564329D01*
X123049500Y-79564332D01*
X123049500Y-79712168D01*
X123049500Y-79712170D01*
X123049499Y-79712170D01*
X121296870Y-79712170D01*
X121300500Y-79693920D01*
X121300500Y-79546079D01*
X121271659Y-79401092D01*
X121271658Y-79401091D01*
X121271658Y-79401087D01*
X121259920Y-79372748D01*
X121215087Y-79264511D01*
X121215080Y-79264498D01*
X121132951Y-79141584D01*
X121132948Y-79141580D01*
X121028419Y-79037051D01*
X121028415Y-79037048D01*
X120905501Y-78954919D01*
X120905488Y-78954912D01*
X120768917Y-78898343D01*
X120768907Y-78898340D01*
X120623920Y-78869500D01*
X120623918Y-78869500D01*
X120476082Y-78869500D01*
X120476080Y-78869500D01*
X120331092Y-78898340D01*
X120331082Y-78898343D01*
X120194511Y-78954912D01*
X120194498Y-78954919D01*
X120071584Y-79037048D01*
X120071580Y-79037051D01*
X119967051Y-79141580D01*
X119967048Y-79141584D01*
X119884919Y-79264498D01*
X119884912Y-79264511D01*
X119828343Y-79401082D01*
X119828340Y-79401092D01*
X119799500Y-79546079D01*
X119799500Y-79546082D01*
X119799500Y-79693918D01*
X119799500Y-79693920D01*
X119799499Y-79693920D01*
X114500500Y-79693920D01*
X114500500Y-79546079D01*
X114471659Y-79401092D01*
X114471658Y-79401091D01*
X114471658Y-79401087D01*
X114459920Y-79372748D01*
X114415087Y-79264511D01*
X114415080Y-79264498D01*
X114332951Y-79141584D01*
X114332948Y-79141580D01*
X114228419Y-79037051D01*
X114228415Y-79037048D01*
X114105501Y-78954919D01*
X114105488Y-78954912D01*
X113968917Y-78898343D01*
X113968907Y-78898340D01*
X113823920Y-78869500D01*
X113823918Y-78869500D01*
X113676082Y-78869500D01*
X113676080Y-78869500D01*
X113531092Y-78898340D01*
X113531082Y-78898343D01*
X113394511Y-78954912D01*
X113394498Y-78954919D01*
X113271584Y-79037048D01*
X113271580Y-79037051D01*
X113167051Y-79141580D01*
X113167048Y-79141584D01*
X113084919Y-79264498D01*
X113084912Y-79264511D01*
X113028343Y-79401082D01*
X113028340Y-79401092D01*
X112999500Y-79546079D01*
X112999500Y-79546082D01*
X112999500Y-79693918D01*
X112999500Y-79693920D01*
X112999499Y-79693920D01*
X111220500Y-79693920D01*
X111220500Y-79616079D01*
X111191659Y-79471092D01*
X111191658Y-79471091D01*
X111191658Y-79471087D01*
X111170225Y-79419342D01*
X111135087Y-79334511D01*
X111135080Y-79334498D01*
X111052951Y-79211584D01*
X111052948Y-79211580D01*
X110948419Y-79107051D01*
X110948415Y-79107048D01*
X110825501Y-79024919D01*
X110825488Y-79024912D01*
X110688917Y-78968343D01*
X110688907Y-78968340D01*
X110543920Y-78939500D01*
X110543918Y-78939500D01*
X110396082Y-78939500D01*
X110396080Y-78939500D01*
X110251092Y-78968340D01*
X110251082Y-78968343D01*
X110114511Y-79024912D01*
X110114498Y-79024919D01*
X109991584Y-79107048D01*
X109991580Y-79107051D01*
X109887051Y-79211580D01*
X109887048Y-79211584D01*
X109804919Y-79334498D01*
X109804912Y-79334511D01*
X109748343Y-79471082D01*
X109748340Y-79471092D01*
X109719500Y-79616079D01*
X109719500Y-79616082D01*
X109719500Y-79763918D01*
X109719500Y-79763920D01*
X109719499Y-79763920D01*
X104420500Y-79763920D01*
X104420500Y-79616079D01*
X104391659Y-79471092D01*
X104391658Y-79471091D01*
X104391658Y-79471087D01*
X104370225Y-79419342D01*
X104335087Y-79334511D01*
X104335080Y-79334498D01*
X104252951Y-79211584D01*
X104252948Y-79211580D01*
X104148419Y-79107051D01*
X104148415Y-79107048D01*
X104025501Y-79024919D01*
X104025488Y-79024912D01*
X103888917Y-78968343D01*
X103888907Y-78968340D01*
X103743920Y-78939500D01*
X103743918Y-78939500D01*
X103596082Y-78939500D01*
X103596080Y-78939500D01*
X103451092Y-78968340D01*
X103451082Y-78968343D01*
X103314511Y-79024912D01*
X103314498Y-79024919D01*
X103191584Y-79107048D01*
X103191580Y-79107051D01*
X103087051Y-79211580D01*
X103087048Y-79211584D01*
X103004919Y-79334498D01*
X103004912Y-79334511D01*
X102948343Y-79471082D01*
X102948340Y-79471092D01*
X102919500Y-79616079D01*
X102919500Y-79616082D01*
X102919500Y-79763918D01*
X102919500Y-79763920D01*
X102919499Y-79763920D01*
X101040500Y-79763920D01*
X101040500Y-79654332D01*
X101040500Y-79654329D01*
X101011659Y-79509342D01*
X101011658Y-79509341D01*
X101011658Y-79509337D01*
X101011656Y-79509332D01*
X100955087Y-79372761D01*
X100955080Y-79372748D01*
X100872951Y-79249834D01*
X100872948Y-79249830D01*
X100768419Y-79145301D01*
X100768415Y-79145298D01*
X100645501Y-79063169D01*
X100645488Y-79063162D01*
X100508917Y-79006593D01*
X100508907Y-79006590D01*
X100363920Y-78977750D01*
X100363918Y-78977750D01*
X100216082Y-78977750D01*
X100216080Y-78977750D01*
X100071092Y-79006590D01*
X100071082Y-79006593D01*
X99934511Y-79063162D01*
X99934498Y-79063169D01*
X99811584Y-79145298D01*
X99811580Y-79145301D01*
X99707051Y-79249830D01*
X99707048Y-79249834D01*
X99624919Y-79372748D01*
X99624912Y-79372761D01*
X99568343Y-79509332D01*
X99568340Y-79509342D01*
X99539500Y-79654329D01*
X99539500Y-79654332D01*
X99539500Y-79802168D01*
X99539500Y-79802170D01*
X99539499Y-79802170D01*
X94240500Y-79802170D01*
X94240500Y-79802168D01*
X94240500Y-79654332D01*
X94240500Y-79654329D01*
X94211659Y-79509342D01*
X94211658Y-79509341D01*
X94211658Y-79509337D01*
X94211656Y-79509332D01*
X94155087Y-79372761D01*
X94155080Y-79372748D01*
X94072951Y-79249834D01*
X94072948Y-79249830D01*
X93968419Y-79145301D01*
X93968415Y-79145298D01*
X93845501Y-79063169D01*
X93845488Y-79063162D01*
X93708917Y-79006593D01*
X93708907Y-79006590D01*
X93563920Y-78977750D01*
X93563918Y-78977750D01*
X93416082Y-78977750D01*
X93416080Y-78977750D01*
X93271092Y-79006590D01*
X93271082Y-79006593D01*
X93134511Y-79063162D01*
X93134498Y-79063169D01*
X93011584Y-79145298D01*
X93011580Y-79145301D01*
X92907051Y-79249830D01*
X92907048Y-79249834D01*
X92824919Y-79372748D01*
X92824912Y-79372761D01*
X92768343Y-79509332D01*
X92768340Y-79509342D01*
X92739500Y-79654329D01*
X92739500Y-79654332D01*
X92739500Y-79802168D01*
X92739500Y-79802170D01*
X92739499Y-79802170D01*
X92110500Y-79802170D01*
X92110500Y-67822135D01*
X106139500Y-67822135D01*
X106139500Y-69617870D01*
X106139501Y-69617876D01*
X106145908Y-69677483D01*
X106196202Y-69812328D01*
X106196206Y-69812335D01*
X106282452Y-69927544D01*
X106282455Y-69927547D01*
X106397664Y-70013793D01*
X106397671Y-70013797D01*
X106532517Y-70064091D01*
X106532516Y-70064091D01*
X106539444Y-70064835D01*
X106592127Y-70070500D01*
X108387872Y-70070499D01*
X108447483Y-70064091D01*
X108582331Y-70013796D01*
X108697546Y-69927546D01*
X108783796Y-69812331D01*
X108832810Y-69680916D01*
X108874681Y-69624984D01*
X108940145Y-69600566D01*
X109008418Y-69615417D01*
X109036673Y-69636569D01*
X109158599Y-69758495D01*
X109255384Y-69826265D01*
X109352165Y-69894032D01*
X109352167Y-69894033D01*
X109352170Y-69894035D01*
X109566337Y-69993903D01*
X109794592Y-70055063D01*
X109971034Y-70070500D01*
X110029999Y-70075659D01*
X110030000Y-70075659D01*
X110030001Y-70075659D01*
X110088966Y-70070500D01*
X110265408Y-70055063D01*
X110493663Y-69993903D01*
X110707830Y-69894035D01*
X110901401Y-69758495D01*
X111068495Y-69591401D01*
X111198425Y-69405842D01*
X111253002Y-69362217D01*
X111322500Y-69355023D01*
X111384855Y-69386546D01*
X111401575Y-69405842D01*
X111531500Y-69591395D01*
X111531505Y-69591401D01*
X111698599Y-69758495D01*
X111795384Y-69826265D01*
X111892165Y-69894032D01*
X111892167Y-69894033D01*
X111892170Y-69894035D01*
X112106337Y-69993903D01*
X112334592Y-70055063D01*
X112511034Y-70070500D01*
X112569999Y-70075659D01*
X112570000Y-70075659D01*
X112570001Y-70075659D01*
X112628966Y-70070500D01*
X112805408Y-70055063D01*
X113033663Y-69993903D01*
X113247830Y-69894035D01*
X113441401Y-69758495D01*
X113608495Y-69591401D01*
X113738425Y-69405842D01*
X113793002Y-69362217D01*
X113862500Y-69355023D01*
X113924855Y-69386546D01*
X113941575Y-69405842D01*
X114071500Y-69591395D01*
X114071505Y-69591401D01*
X114238599Y-69758495D01*
X114335384Y-69826265D01*
X114432165Y-69894032D01*
X114432167Y-69894033D01*
X114432170Y-69894035D01*
X114646337Y-69993903D01*
X114874592Y-70055063D01*
X115051034Y-70070500D01*
X115109999Y-70075659D01*
X115110000Y-70075659D01*
X115110001Y-70075659D01*
X115168966Y-70070500D01*
X115345408Y-70055063D01*
X115573663Y-69993903D01*
X115787830Y-69894035D01*
X115981401Y-69758495D01*
X116148495Y-69591401D01*
X116278425Y-69405842D01*
X116333002Y-69362217D01*
X116402500Y-69355023D01*
X116464855Y-69386546D01*
X116481575Y-69405842D01*
X116611500Y-69591395D01*
X116611505Y-69591401D01*
X116778599Y-69758495D01*
X116875384Y-69826265D01*
X116972165Y-69894032D01*
X116972167Y-69894033D01*
X116972170Y-69894035D01*
X117186337Y-69993903D01*
X117414592Y-70055063D01*
X117591034Y-70070500D01*
X117649999Y-70075659D01*
X117650000Y-70075659D01*
X117650001Y-70075659D01*
X117708966Y-70070500D01*
X117885408Y-70055063D01*
X118113663Y-69993903D01*
X118327830Y-69894035D01*
X118521401Y-69758495D01*
X118688495Y-69591401D01*
X118818425Y-69405842D01*
X118873002Y-69362217D01*
X118942500Y-69355023D01*
X119004855Y-69386546D01*
X119021575Y-69405842D01*
X119151500Y-69591395D01*
X119151505Y-69591401D01*
X119318599Y-69758495D01*
X119415384Y-69826265D01*
X119512165Y-69894032D01*
X119512167Y-69894033D01*
X119512170Y-69894035D01*
X119726337Y-69993903D01*
X119954592Y-70055063D01*
X120131034Y-70070500D01*
X120189999Y-70075659D01*
X120190000Y-70075659D01*
X120190001Y-70075659D01*
X120248966Y-70070500D01*
X120425408Y-70055063D01*
X120653663Y-69993903D01*
X120867830Y-69894035D01*
X121061401Y-69758495D01*
X121228495Y-69591401D01*
X121364035Y-69397830D01*
X121463903Y-69183663D01*
X121525063Y-68955408D01*
X121545659Y-68720000D01*
X121525063Y-68484592D01*
X121463903Y-68256337D01*
X121364035Y-68042171D01*
X121358425Y-68034158D01*
X121228494Y-67848597D01*
X121061402Y-67681506D01*
X121061395Y-67681501D01*
X120867834Y-67545967D01*
X120867830Y-67545965D01*
X120867828Y-67545964D01*
X120653663Y-67446097D01*
X120653659Y-67446096D01*
X120653655Y-67446094D01*
X120425413Y-67384938D01*
X120425403Y-67384936D01*
X120190001Y-67364341D01*
X120189999Y-67364341D01*
X119954596Y-67384936D01*
X119954586Y-67384938D01*
X119726344Y-67446094D01*
X119726335Y-67446098D01*
X119512171Y-67545964D01*
X119512169Y-67545965D01*
X119318597Y-67681505D01*
X119151505Y-67848597D01*
X119021575Y-68034158D01*
X118966998Y-68077783D01*
X118897500Y-68084977D01*
X118835145Y-68053454D01*
X118818425Y-68034158D01*
X118688494Y-67848597D01*
X118521402Y-67681506D01*
X118521395Y-67681501D01*
X118327834Y-67545967D01*
X118327830Y-67545965D01*
X118327828Y-67545964D01*
X118113663Y-67446097D01*
X118113659Y-67446096D01*
X118113655Y-67446094D01*
X117885413Y-67384938D01*
X117885403Y-67384936D01*
X117650001Y-67364341D01*
X117649999Y-67364341D01*
X117414596Y-67384936D01*
X117414586Y-67384938D01*
X117186344Y-67446094D01*
X117186335Y-67446098D01*
X116972171Y-67545964D01*
X116972169Y-67545965D01*
X116778597Y-67681505D01*
X116611505Y-67848597D01*
X116481575Y-68034158D01*
X116426998Y-68077783D01*
X116357500Y-68084977D01*
X116295145Y-68053454D01*
X116278425Y-68034158D01*
X116148494Y-67848597D01*
X115981402Y-67681506D01*
X115981395Y-67681501D01*
X115787834Y-67545967D01*
X115787830Y-67545965D01*
X115787828Y-67545964D01*
X115573663Y-67446097D01*
X115573659Y-67446096D01*
X115573655Y-67446094D01*
X115345413Y-67384938D01*
X115345403Y-67384936D01*
X115110001Y-67364341D01*
X115109999Y-67364341D01*
X114874596Y-67384936D01*
X114874586Y-67384938D01*
X114646344Y-67446094D01*
X114646335Y-67446098D01*
X114432171Y-67545964D01*
X114432169Y-67545965D01*
X114238597Y-67681505D01*
X114071505Y-67848597D01*
X113941575Y-68034158D01*
X113886998Y-68077783D01*
X113817500Y-68084977D01*
X113755145Y-68053454D01*
X113738425Y-68034158D01*
X113608494Y-67848597D01*
X113441402Y-67681506D01*
X113441395Y-67681501D01*
X113247834Y-67545967D01*
X113247830Y-67545965D01*
X113247828Y-67545964D01*
X113033663Y-67446097D01*
X113033659Y-67446096D01*
X113033655Y-67446094D01*
X112805413Y-67384938D01*
X112805403Y-67384936D01*
X112570001Y-67364341D01*
X112569999Y-67364341D01*
X112334596Y-67384936D01*
X112334586Y-67384938D01*
X112106344Y-67446094D01*
X112106335Y-67446098D01*
X111892171Y-67545964D01*
X111892169Y-67545965D01*
X111698597Y-67681505D01*
X111531505Y-67848597D01*
X111401575Y-68034158D01*
X111346998Y-68077783D01*
X111277500Y-68084977D01*
X111215145Y-68053454D01*
X111198425Y-68034158D01*
X111068494Y-67848597D01*
X110901402Y-67681506D01*
X110901395Y-67681501D01*
X110707834Y-67545967D01*
X110707830Y-67545965D01*
X110707828Y-67545964D01*
X110493663Y-67446097D01*
X110493659Y-67446096D01*
X110493655Y-67446094D01*
X110265413Y-67384938D01*
X110265403Y-67384936D01*
X110030001Y-67364341D01*
X110029999Y-67364341D01*
X109794596Y-67384936D01*
X109794586Y-67384938D01*
X109566344Y-67446094D01*
X109566335Y-67446098D01*
X109352171Y-67545964D01*
X109352169Y-67545965D01*
X109158600Y-67681503D01*
X109036673Y-67803430D01*
X108975350Y-67836914D01*
X108905658Y-67831930D01*
X108849725Y-67790058D01*
X108832810Y-67759081D01*
X108783797Y-67627671D01*
X108783793Y-67627664D01*
X108697547Y-67512455D01*
X108697544Y-67512452D01*
X108582335Y-67426206D01*
X108582328Y-67426202D01*
X108447482Y-67375908D01*
X108447483Y-67375908D01*
X108387883Y-67369501D01*
X108387881Y-67369500D01*
X108387873Y-67369500D01*
X108387864Y-67369500D01*
X106592129Y-67369500D01*
X106592123Y-67369501D01*
X106532516Y-67375908D01*
X106397671Y-67426202D01*
X106397664Y-67426206D01*
X106282455Y-67512452D01*
X106282452Y-67512455D01*
X106196206Y-67627664D01*
X106196202Y-67627671D01*
X106145908Y-67762517D01*
X106139501Y-67822116D01*
X106139500Y-67822135D01*
X92110500Y-67822135D01*
X92110500Y-60113713D01*
X95139500Y-60113713D01*
X95139500Y-60326286D01*
X95158105Y-60443757D01*
X95172754Y-60536243D01*
X95210922Y-60653713D01*
X95238444Y-60738414D01*
X95334951Y-60927820D01*
X95459890Y-61099786D01*
X95610213Y-61250109D01*
X95782179Y-61375048D01*
X95782181Y-61375049D01*
X95782184Y-61375051D01*
X95971588Y-61471557D01*
X96173757Y-61537246D01*
X96383713Y-61570500D01*
X96383714Y-61570500D01*
X96596286Y-61570500D01*
X96596287Y-61570500D01*
X96806243Y-61537246D01*
X97008412Y-61471557D01*
X97197816Y-61375051D01*
X97219789Y-61359086D01*
X97369786Y-61250109D01*
X97369788Y-61250106D01*
X97369792Y-61250104D01*
X97520104Y-61099792D01*
X97520106Y-61099788D01*
X97520109Y-61099786D01*
X97645048Y-60927820D01*
X97645047Y-60927820D01*
X97645051Y-60927816D01*
X97741557Y-60738412D01*
X97769078Y-60653713D01*
X126319500Y-60653713D01*
X126319500Y-60866286D01*
X126352753Y-61076239D01*
X126418444Y-61278414D01*
X126514951Y-61467820D01*
X126639890Y-61639786D01*
X126790213Y-61790109D01*
X126962179Y-61915048D01*
X126962181Y-61915049D01*
X126962184Y-61915051D01*
X127151588Y-62011557D01*
X127353757Y-62077246D01*
X127563713Y-62110500D01*
X127563714Y-62110500D01*
X127776286Y-62110500D01*
X127776287Y-62110500D01*
X127986243Y-62077246D01*
X128188412Y-62011557D01*
X128377816Y-61915051D01*
X128399789Y-61899086D01*
X128549786Y-61790109D01*
X128549788Y-61790106D01*
X128549792Y-61790104D01*
X128700104Y-61639792D01*
X128700106Y-61639788D01*
X128700109Y-61639786D01*
X128825048Y-61467820D01*
X128825047Y-61467820D01*
X128825051Y-61467816D01*
X128921557Y-61278412D01*
X128987246Y-61076243D01*
X129020500Y-60866287D01*
X129020500Y-60653713D01*
X128987246Y-60443757D01*
X128921557Y-60241588D01*
X128825051Y-60052184D01*
X128825049Y-60052181D01*
X128825048Y-60052179D01*
X128700109Y-59880213D01*
X128549786Y-59729890D01*
X128377820Y-59604951D01*
X128188414Y-59508444D01*
X128188413Y-59508443D01*
X128188412Y-59508443D01*
X127986243Y-59442754D01*
X127986241Y-59442753D01*
X127986240Y-59442753D01*
X127824957Y-59417208D01*
X127776287Y-59409500D01*
X127563713Y-59409500D01*
X127515042Y-59417208D01*
X127353760Y-59442753D01*
X127151585Y-59508444D01*
X126962179Y-59604951D01*
X126790213Y-59729890D01*
X126639890Y-59880213D01*
X126514951Y-60052179D01*
X126418444Y-60241585D01*
X126418443Y-60241587D01*
X126418443Y-60241588D01*
X126385598Y-60342672D01*
X126352753Y-60443760D01*
X126319500Y-60653713D01*
X97769078Y-60653713D01*
X97807246Y-60536243D01*
X97840500Y-60326287D01*
X97840500Y-60113713D01*
X97807246Y-59903757D01*
X97741557Y-59701588D01*
X97645051Y-59512184D01*
X97645049Y-59512181D01*
X97645048Y-59512179D01*
X97520109Y-59340213D01*
X97369786Y-59189890D01*
X97197820Y-59064951D01*
X97008414Y-58968444D01*
X97008413Y-58968443D01*
X97008412Y-58968443D01*
X96806243Y-58902754D01*
X96806241Y-58902753D01*
X96806240Y-58902753D01*
X96644957Y-58877208D01*
X96596287Y-58869500D01*
X96383713Y-58869500D01*
X96335042Y-58877208D01*
X96173760Y-58902753D01*
X95971585Y-58968444D01*
X95782179Y-59064951D01*
X95610213Y-59189890D01*
X95459890Y-59340213D01*
X95334951Y-59512179D01*
X95238444Y-59701585D01*
X95172753Y-59903760D01*
X95139500Y-60113713D01*
X92110500Y-60113713D01*
X92110500Y-58005670D01*
X113599499Y-58005670D01*
X113628340Y-58150657D01*
X113628343Y-58150667D01*
X113684912Y-58287238D01*
X113684919Y-58287251D01*
X113767048Y-58410165D01*
X113767051Y-58410169D01*
X113871580Y-58514698D01*
X113871584Y-58514701D01*
X113994498Y-58596830D01*
X113994511Y-58596837D01*
X114131082Y-58653406D01*
X114131087Y-58653408D01*
X114131091Y-58653408D01*
X114131092Y-58653409D01*
X114276079Y-58682250D01*
X114276082Y-58682250D01*
X114423920Y-58682250D01*
X114521462Y-58662846D01*
X114568913Y-58653408D01*
X114705495Y-58596834D01*
X114828416Y-58514701D01*
X114932951Y-58410166D01*
X115015084Y-58287245D01*
X115071658Y-58150663D01*
X115100500Y-58005670D01*
X120399499Y-58005670D01*
X120428340Y-58150657D01*
X120428343Y-58150667D01*
X120484912Y-58287238D01*
X120484919Y-58287251D01*
X120567048Y-58410165D01*
X120567051Y-58410169D01*
X120671580Y-58514698D01*
X120671584Y-58514701D01*
X120794498Y-58596830D01*
X120794511Y-58596837D01*
X120931082Y-58653406D01*
X120931087Y-58653408D01*
X120931091Y-58653408D01*
X120931092Y-58653409D01*
X121076079Y-58682250D01*
X121076082Y-58682250D01*
X121223920Y-58682250D01*
X121321462Y-58662846D01*
X121368913Y-58653408D01*
X121505495Y-58596834D01*
X121628416Y-58514701D01*
X121732951Y-58410166D01*
X121815084Y-58287245D01*
X121871658Y-58150663D01*
X121900500Y-58005668D01*
X121900500Y-57857832D01*
X121900500Y-57857829D01*
X121871659Y-57712842D01*
X121871658Y-57712841D01*
X121871658Y-57712837D01*
X121871656Y-57712832D01*
X121815087Y-57576261D01*
X121815080Y-57576248D01*
X121732951Y-57453334D01*
X121732948Y-57453330D01*
X121628419Y-57348801D01*
X121628415Y-57348798D01*
X121505501Y-57266669D01*
X121505488Y-57266662D01*
X121368917Y-57210093D01*
X121368907Y-57210090D01*
X121223920Y-57181250D01*
X121223918Y-57181250D01*
X121076082Y-57181250D01*
X121076080Y-57181250D01*
X120931092Y-57210090D01*
X120931082Y-57210093D01*
X120794511Y-57266662D01*
X120794498Y-57266669D01*
X120671584Y-57348798D01*
X120671580Y-57348801D01*
X120567051Y-57453330D01*
X120567048Y-57453334D01*
X120484919Y-57576248D01*
X120484912Y-57576261D01*
X120428343Y-57712832D01*
X120428340Y-57712842D01*
X120399500Y-57857829D01*
X120399500Y-57857832D01*
X120399500Y-58005668D01*
X120399500Y-58005670D01*
X120399499Y-58005670D01*
X115100500Y-58005670D01*
X115100500Y-58005668D01*
X115100500Y-57857832D01*
X115100500Y-57857829D01*
X115071659Y-57712842D01*
X115071658Y-57712841D01*
X115071658Y-57712837D01*
X115071656Y-57712832D01*
X115015087Y-57576261D01*
X115015080Y-57576248D01*
X114932951Y-57453334D01*
X114932948Y-57453330D01*
X114828419Y-57348801D01*
X114828415Y-57348798D01*
X114705501Y-57266669D01*
X114705488Y-57266662D01*
X114568917Y-57210093D01*
X114568907Y-57210090D01*
X114423920Y-57181250D01*
X114423918Y-57181250D01*
X114276082Y-57181250D01*
X114276080Y-57181250D01*
X114131092Y-57210090D01*
X114131082Y-57210093D01*
X113994511Y-57266662D01*
X113994498Y-57266669D01*
X113871584Y-57348798D01*
X113871580Y-57348801D01*
X113767051Y-57453330D01*
X113767048Y-57453334D01*
X113684919Y-57576248D01*
X113684912Y-57576261D01*
X113628343Y-57712832D01*
X113628340Y-57712842D01*
X113599500Y-57857829D01*
X113599500Y-57857832D01*
X113599500Y-58005668D01*
X113599500Y-58005670D01*
X113599499Y-58005670D01*
X92110500Y-58005670D01*
X92110500Y-55854500D01*
X92130185Y-55787461D01*
X92182989Y-55741706D01*
X92234500Y-55730500D01*
X132185500Y-55730500D01*
X132252539Y-55750185D01*
G37*
%TD.AperFunction*%
%TD*%
M02*
