%TF.GenerationSoftware,KiCad,Pcbnew,8.0.5*%
%TF.CreationDate,2024-11-11T16:35:56-08:00*%
%TF.ProjectId,Switch Lock,53776974-6368-4204-9c6f-636b2e6b6963,rev?*%
%TF.SameCoordinates,Original*%
%TF.FileFunction,Legend,Top*%
%TF.FilePolarity,Positive*%
%FSLAX46Y46*%
G04 Gerber Fmt 4.6, Leading zero omitted, Abs format (unit mm)*
G04 Created by KiCad (PCBNEW 8.0.5) date 2024-11-11 16:35:56*
%MOMM*%
%LPD*%
G01*
G04 APERTURE LIST*
%ADD10C,0.100000*%
%ADD11C,0.150000*%
%ADD12C,0.120000*%
%ADD13C,0.127000*%
G04 APERTURE END LIST*
D10*
X122036265Y-61104800D02*
X122131503Y-61152419D01*
X122131503Y-61152419D02*
X122321979Y-61152419D01*
X122321979Y-61152419D02*
X122417217Y-61104800D01*
X122417217Y-61104800D02*
X122464836Y-61009561D01*
X122464836Y-61009561D02*
X122464836Y-60961942D01*
X122464836Y-60961942D02*
X122417217Y-60866704D01*
X122417217Y-60866704D02*
X122321979Y-60819085D01*
X122321979Y-60819085D02*
X122179122Y-60819085D01*
X122179122Y-60819085D02*
X122083884Y-60771466D01*
X122083884Y-60771466D02*
X122036265Y-60676228D01*
X122036265Y-60676228D02*
X122036265Y-60628609D01*
X122036265Y-60628609D02*
X122083884Y-60533371D01*
X122083884Y-60533371D02*
X122179122Y-60485752D01*
X122179122Y-60485752D02*
X122321979Y-60485752D01*
X122321979Y-60485752D02*
X122417217Y-60533371D01*
X123274360Y-61104800D02*
X123179122Y-61152419D01*
X123179122Y-61152419D02*
X122988646Y-61152419D01*
X122988646Y-61152419D02*
X122893408Y-61104800D01*
X122893408Y-61104800D02*
X122845789Y-61009561D01*
X122845789Y-61009561D02*
X122845789Y-60628609D01*
X122845789Y-60628609D02*
X122893408Y-60533371D01*
X122893408Y-60533371D02*
X122988646Y-60485752D01*
X122988646Y-60485752D02*
X123179122Y-60485752D01*
X123179122Y-60485752D02*
X123274360Y-60533371D01*
X123274360Y-60533371D02*
X123321979Y-60628609D01*
X123321979Y-60628609D02*
X123321979Y-60723847D01*
X123321979Y-60723847D02*
X122845789Y-60819085D01*
X123607694Y-60485752D02*
X123988646Y-60485752D01*
X123750551Y-60152419D02*
X123750551Y-61009561D01*
X123750551Y-61009561D02*
X123798170Y-61104800D01*
X123798170Y-61104800D02*
X123893408Y-61152419D01*
X123893408Y-61152419D02*
X123988646Y-61152419D01*
X97187693Y-75412419D02*
X96616265Y-75412419D01*
X96901979Y-75412419D02*
X96901979Y-74412419D01*
X96901979Y-74412419D02*
X96806741Y-74555276D01*
X96806741Y-74555276D02*
X96711503Y-74650514D01*
X96711503Y-74650514D02*
X96616265Y-74698133D01*
X103397693Y-77762419D02*
X102826265Y-77762419D01*
X103111979Y-77762419D02*
X103111979Y-76762419D01*
X103111979Y-76762419D02*
X103016741Y-76905276D01*
X103016741Y-76905276D02*
X102921503Y-77000514D01*
X102921503Y-77000514D02*
X102826265Y-77048133D01*
X93217693Y-77800669D02*
X92646265Y-77800669D01*
X92931979Y-77800669D02*
X92931979Y-76800669D01*
X92931979Y-76800669D02*
X92836741Y-76943526D01*
X92836741Y-76943526D02*
X92741503Y-77038764D01*
X92741503Y-77038764D02*
X92646265Y-77086383D01*
X106756265Y-74307657D02*
X106803884Y-74260038D01*
X106803884Y-74260038D02*
X106899122Y-74212419D01*
X106899122Y-74212419D02*
X107137217Y-74212419D01*
X107137217Y-74212419D02*
X107232455Y-74260038D01*
X107232455Y-74260038D02*
X107280074Y-74307657D01*
X107280074Y-74307657D02*
X107327693Y-74402895D01*
X107327693Y-74402895D02*
X107327693Y-74498133D01*
X107327693Y-74498133D02*
X107280074Y-74640990D01*
X107280074Y-74640990D02*
X106708646Y-75212419D01*
X106708646Y-75212419D02*
X107327693Y-75212419D01*
X131174360Y-76732419D02*
X131269598Y-76732419D01*
X131269598Y-76732419D02*
X131364836Y-76780038D01*
X131364836Y-76780038D02*
X131412455Y-76827657D01*
X131412455Y-76827657D02*
X131460074Y-76922895D01*
X131460074Y-76922895D02*
X131507693Y-77113371D01*
X131507693Y-77113371D02*
X131507693Y-77351466D01*
X131507693Y-77351466D02*
X131460074Y-77541942D01*
X131460074Y-77541942D02*
X131412455Y-77637180D01*
X131412455Y-77637180D02*
X131364836Y-77684800D01*
X131364836Y-77684800D02*
X131269598Y-77732419D01*
X131269598Y-77732419D02*
X131174360Y-77732419D01*
X131174360Y-77732419D02*
X131079122Y-77684800D01*
X131079122Y-77684800D02*
X131031503Y-77637180D01*
X131031503Y-77637180D02*
X130983884Y-77541942D01*
X130983884Y-77541942D02*
X130936265Y-77351466D01*
X130936265Y-77351466D02*
X130936265Y-77113371D01*
X130936265Y-77113371D02*
X130983884Y-76922895D01*
X130983884Y-76922895D02*
X131031503Y-76827657D01*
X131031503Y-76827657D02*
X131079122Y-76780038D01*
X131079122Y-76780038D02*
X131174360Y-76732419D01*
X110954360Y-76672419D02*
X111049598Y-76672419D01*
X111049598Y-76672419D02*
X111144836Y-76720038D01*
X111144836Y-76720038D02*
X111192455Y-76767657D01*
X111192455Y-76767657D02*
X111240074Y-76862895D01*
X111240074Y-76862895D02*
X111287693Y-77053371D01*
X111287693Y-77053371D02*
X111287693Y-77291466D01*
X111287693Y-77291466D02*
X111240074Y-77481942D01*
X111240074Y-77481942D02*
X111192455Y-77577180D01*
X111192455Y-77577180D02*
X111144836Y-77624800D01*
X111144836Y-77624800D02*
X111049598Y-77672419D01*
X111049598Y-77672419D02*
X110954360Y-77672419D01*
X110954360Y-77672419D02*
X110859122Y-77624800D01*
X110859122Y-77624800D02*
X110811503Y-77577180D01*
X110811503Y-77577180D02*
X110763884Y-77481942D01*
X110763884Y-77481942D02*
X110716265Y-77291466D01*
X110716265Y-77291466D02*
X110716265Y-77053371D01*
X110716265Y-77053371D02*
X110763884Y-76862895D01*
X110763884Y-76862895D02*
X110811503Y-76767657D01*
X110811503Y-76767657D02*
X110859122Y-76720038D01*
X110859122Y-76720038D02*
X110954360Y-76672419D01*
X123527693Y-77710669D02*
X122956265Y-77710669D01*
X123241979Y-77710669D02*
X123241979Y-76710669D01*
X123241979Y-76710669D02*
X123146741Y-76853526D01*
X123146741Y-76853526D02*
X123051503Y-76948764D01*
X123051503Y-76948764D02*
X122956265Y-76996383D01*
X113477693Y-77692419D02*
X112906265Y-77692419D01*
X113191979Y-77692419D02*
X113191979Y-76692419D01*
X113191979Y-76692419D02*
X113096741Y-76835276D01*
X113096741Y-76835276D02*
X113001503Y-76930514D01*
X113001503Y-76930514D02*
X112906265Y-76978133D01*
X106388646Y-64712419D02*
X107007693Y-64712419D01*
X107007693Y-64712419D02*
X106674360Y-65093371D01*
X106674360Y-65093371D02*
X106817217Y-65093371D01*
X106817217Y-65093371D02*
X106912455Y-65140990D01*
X106912455Y-65140990D02*
X106960074Y-65188609D01*
X106960074Y-65188609D02*
X107007693Y-65283847D01*
X107007693Y-65283847D02*
X107007693Y-65521942D01*
X107007693Y-65521942D02*
X106960074Y-65617180D01*
X106960074Y-65617180D02*
X106912455Y-65664800D01*
X106912455Y-65664800D02*
X106817217Y-65712419D01*
X106817217Y-65712419D02*
X106531503Y-65712419D01*
X106531503Y-65712419D02*
X106436265Y-65664800D01*
X106436265Y-65664800D02*
X106388646Y-65617180D01*
X107436265Y-65617180D02*
X107483884Y-65664800D01*
X107483884Y-65664800D02*
X107436265Y-65712419D01*
X107436265Y-65712419D02*
X107388646Y-65664800D01*
X107388646Y-65664800D02*
X107436265Y-65617180D01*
X107436265Y-65617180D02*
X107436265Y-65712419D01*
X107817217Y-64712419D02*
X108436264Y-64712419D01*
X108436264Y-64712419D02*
X108102931Y-65093371D01*
X108102931Y-65093371D02*
X108245788Y-65093371D01*
X108245788Y-65093371D02*
X108341026Y-65140990D01*
X108341026Y-65140990D02*
X108388645Y-65188609D01*
X108388645Y-65188609D02*
X108436264Y-65283847D01*
X108436264Y-65283847D02*
X108436264Y-65521942D01*
X108436264Y-65521942D02*
X108388645Y-65617180D01*
X108388645Y-65617180D02*
X108341026Y-65664800D01*
X108341026Y-65664800D02*
X108245788Y-65712419D01*
X108245788Y-65712419D02*
X107960074Y-65712419D01*
X107960074Y-65712419D02*
X107864836Y-65664800D01*
X107864836Y-65664800D02*
X107817217Y-65617180D01*
X108769598Y-65045752D02*
X109007693Y-65712419D01*
X109007693Y-65712419D02*
X109245788Y-65045752D01*
X116848646Y-73892419D02*
X117467693Y-73892419D01*
X117467693Y-73892419D02*
X117134360Y-74273371D01*
X117134360Y-74273371D02*
X117277217Y-74273371D01*
X117277217Y-74273371D02*
X117372455Y-74320990D01*
X117372455Y-74320990D02*
X117420074Y-74368609D01*
X117420074Y-74368609D02*
X117467693Y-74463847D01*
X117467693Y-74463847D02*
X117467693Y-74701942D01*
X117467693Y-74701942D02*
X117420074Y-74797180D01*
X117420074Y-74797180D02*
X117372455Y-74844800D01*
X117372455Y-74844800D02*
X117277217Y-74892419D01*
X117277217Y-74892419D02*
X116991503Y-74892419D01*
X116991503Y-74892419D02*
X116896265Y-74844800D01*
X116896265Y-74844800D02*
X116848646Y-74797180D01*
X121094360Y-76672419D02*
X121189598Y-76672419D01*
X121189598Y-76672419D02*
X121284836Y-76720038D01*
X121284836Y-76720038D02*
X121332455Y-76767657D01*
X121332455Y-76767657D02*
X121380074Y-76862895D01*
X121380074Y-76862895D02*
X121427693Y-77053371D01*
X121427693Y-77053371D02*
X121427693Y-77291466D01*
X121427693Y-77291466D02*
X121380074Y-77481942D01*
X121380074Y-77481942D02*
X121332455Y-77577180D01*
X121332455Y-77577180D02*
X121284836Y-77624800D01*
X121284836Y-77624800D02*
X121189598Y-77672419D01*
X121189598Y-77672419D02*
X121094360Y-77672419D01*
X121094360Y-77672419D02*
X120999122Y-77624800D01*
X120999122Y-77624800D02*
X120951503Y-77577180D01*
X120951503Y-77577180D02*
X120903884Y-77481942D01*
X120903884Y-77481942D02*
X120856265Y-77291466D01*
X120856265Y-77291466D02*
X120856265Y-77053371D01*
X120856265Y-77053371D02*
X120903884Y-76862895D01*
X120903884Y-76862895D02*
X120951503Y-76767657D01*
X120951503Y-76767657D02*
X120999122Y-76720038D01*
X120999122Y-76720038D02*
X121094360Y-76672419D01*
X100874360Y-76732419D02*
X100969598Y-76732419D01*
X100969598Y-76732419D02*
X101064836Y-76780038D01*
X101064836Y-76780038D02*
X101112455Y-76827657D01*
X101112455Y-76827657D02*
X101160074Y-76922895D01*
X101160074Y-76922895D02*
X101207693Y-77113371D01*
X101207693Y-77113371D02*
X101207693Y-77351466D01*
X101207693Y-77351466D02*
X101160074Y-77541942D01*
X101160074Y-77541942D02*
X101112455Y-77637180D01*
X101112455Y-77637180D02*
X101064836Y-77684800D01*
X101064836Y-77684800D02*
X100969598Y-77732419D01*
X100969598Y-77732419D02*
X100874360Y-77732419D01*
X100874360Y-77732419D02*
X100779122Y-77684800D01*
X100779122Y-77684800D02*
X100731503Y-77637180D01*
X100731503Y-77637180D02*
X100683884Y-77541942D01*
X100683884Y-77541942D02*
X100636265Y-77351466D01*
X100636265Y-77351466D02*
X100636265Y-77113371D01*
X100636265Y-77113371D02*
X100683884Y-76922895D01*
X100683884Y-76922895D02*
X100731503Y-76827657D01*
X100731503Y-76827657D02*
X100779122Y-76780038D01*
X100779122Y-76780038D02*
X100874360Y-76732419D01*
X127322455Y-74355752D02*
X127322455Y-75022419D01*
X127084360Y-73974800D02*
X126846265Y-74689085D01*
X126846265Y-74689085D02*
X127465312Y-74689085D01*
D11*
X126769580Y-68656666D02*
X126817200Y-68704285D01*
X126817200Y-68704285D02*
X126864819Y-68847142D01*
X126864819Y-68847142D02*
X126864819Y-68942380D01*
X126864819Y-68942380D02*
X126817200Y-69085237D01*
X126817200Y-69085237D02*
X126721961Y-69180475D01*
X126721961Y-69180475D02*
X126626723Y-69228094D01*
X126626723Y-69228094D02*
X126436247Y-69275713D01*
X126436247Y-69275713D02*
X126293390Y-69275713D01*
X126293390Y-69275713D02*
X126102914Y-69228094D01*
X126102914Y-69228094D02*
X126007676Y-69180475D01*
X126007676Y-69180475D02*
X125912438Y-69085237D01*
X125912438Y-69085237D02*
X125864819Y-68942380D01*
X125864819Y-68942380D02*
X125864819Y-68847142D01*
X125864819Y-68847142D02*
X125912438Y-68704285D01*
X125912438Y-68704285D02*
X125960057Y-68656666D01*
X126864819Y-67704285D02*
X126864819Y-68275713D01*
X126864819Y-67989999D02*
X125864819Y-67989999D01*
X125864819Y-67989999D02*
X126007676Y-68085237D01*
X126007676Y-68085237D02*
X126102914Y-68180475D01*
X126102914Y-68180475D02*
X126150533Y-68275713D01*
X98043333Y-67494819D02*
X97710000Y-67018628D01*
X97471905Y-67494819D02*
X97471905Y-66494819D01*
X97471905Y-66494819D02*
X97852857Y-66494819D01*
X97852857Y-66494819D02*
X97948095Y-66542438D01*
X97948095Y-66542438D02*
X97995714Y-66590057D01*
X97995714Y-66590057D02*
X98043333Y-66685295D01*
X98043333Y-66685295D02*
X98043333Y-66828152D01*
X98043333Y-66828152D02*
X97995714Y-66923390D01*
X97995714Y-66923390D02*
X97948095Y-66971009D01*
X97948095Y-66971009D02*
X97852857Y-67018628D01*
X97852857Y-67018628D02*
X97471905Y-67018628D01*
X98995714Y-67494819D02*
X98424286Y-67494819D01*
X98710000Y-67494819D02*
X98710000Y-66494819D01*
X98710000Y-66494819D02*
X98614762Y-66637676D01*
X98614762Y-66637676D02*
X98519524Y-66732914D01*
X98519524Y-66732914D02*
X98424286Y-66780533D01*
X104614819Y-69053333D02*
X105329104Y-69053333D01*
X105329104Y-69053333D02*
X105471961Y-69100952D01*
X105471961Y-69100952D02*
X105567200Y-69196190D01*
X105567200Y-69196190D02*
X105614819Y-69339047D01*
X105614819Y-69339047D02*
X105614819Y-69434285D01*
X104710057Y-68624761D02*
X104662438Y-68577142D01*
X104662438Y-68577142D02*
X104614819Y-68481904D01*
X104614819Y-68481904D02*
X104614819Y-68243809D01*
X104614819Y-68243809D02*
X104662438Y-68148571D01*
X104662438Y-68148571D02*
X104710057Y-68100952D01*
X104710057Y-68100952D02*
X104805295Y-68053333D01*
X104805295Y-68053333D02*
X104900533Y-68053333D01*
X104900533Y-68053333D02*
X105043390Y-68100952D01*
X105043390Y-68100952D02*
X105614819Y-68672380D01*
X105614819Y-68672380D02*
X105614819Y-68053333D01*
D12*
%TO.C,C1*%
X127355000Y-68751252D02*
X127355000Y-68228748D01*
X128825000Y-68751252D02*
X128825000Y-68228748D01*
%TO.C,R1*%
X97982936Y-67955000D02*
X98437064Y-67955000D01*
X97982936Y-69425000D02*
X98437064Y-69425000D01*
D13*
%TO.C,Status1*%
X113250000Y-59731750D02*
X113250000Y-56131750D01*
X122250000Y-56131750D02*
X113250000Y-56131750D01*
X122250000Y-59731750D02*
X122250000Y-56131750D01*
%TO.C,S2*%
X102570000Y-77890000D02*
X102570000Y-81490000D01*
X102570000Y-81490000D02*
X111570000Y-81490000D01*
X111570000Y-77890000D02*
X111570000Y-81490000D01*
%TO.C,S1*%
X92390000Y-77928250D02*
X92390000Y-81528250D01*
X92390000Y-81528250D02*
X101390000Y-81528250D01*
X101390000Y-77928250D02*
X101390000Y-81528250D01*
%TO.C,S4*%
X122700000Y-77838250D02*
X122700000Y-81438250D01*
X122700000Y-81438250D02*
X131700000Y-81438250D01*
X131700000Y-77838250D02*
X131700000Y-81438250D01*
D12*
%TO.C,J2*%
X106160000Y-70050000D02*
X106160000Y-68720000D01*
X107490000Y-70050000D02*
X106160000Y-70050000D01*
X108760000Y-67390000D02*
X124060000Y-67390000D01*
X108760000Y-70050000D02*
X108760000Y-67390000D01*
X108760000Y-70050000D02*
X124060000Y-70050000D01*
X124060000Y-70050000D02*
X124060000Y-67390000D01*
D13*
%TO.C,S3*%
X112650000Y-77820000D02*
X112650000Y-81420000D01*
X112650000Y-81420000D02*
X121650000Y-81420000D01*
X121650000Y-77820000D02*
X121650000Y-81420000D01*
%TD*%
M02*
