%TF.GenerationSoftware,KiCad,Pcbnew,8.0.5*%
%TF.CreationDate,2024-11-11T00:13:10-08:00*%
%TF.ProjectId,Switch Lock,53776974-6368-4204-9c6f-636b2e6b6963,rev?*%
%TF.SameCoordinates,Original*%
%TF.FileFunction,Drillmap*%
%TF.FilePolarity,Positive*%
%FSLAX45Y45*%
G04 Gerber Fmt 4.5, Leading zero omitted, Abs format (unit mm)*
G04 Created by KiCad (PCBNEW 8.0.5) date 2024-11-11 00:13:10*
%MOMM*%
%LPD*%
G01*
G04 APERTURE LIST*
%ADD10C,0.050000*%
%ADD11C,0.200000*%
%ADD12C,0.100000*%
G04 APERTURE END LIST*
D10*
X9211000Y-5573000D02*
X13231000Y-5573000D01*
X13231000Y-8194000D01*
X9211000Y-8194000D01*
X9211000Y-5573000D01*
D11*
D12*
X9925000Y-7426000D02*
X9955000Y-7456000D01*
X9955000Y-7426000D02*
X9925000Y-7456000D01*
X10939000Y-7464000D02*
X10969000Y-7494000D01*
X10969000Y-7464000D02*
X10939000Y-7494000D01*
X11509000Y-6403000D02*
X11539000Y-6433000D01*
X11539000Y-6403000D02*
X11509000Y-6433000D01*
X11954000Y-7393000D02*
X11984000Y-7423000D01*
X11984000Y-7393000D02*
X11954000Y-7423000D01*
X12958000Y-7380000D02*
X12988000Y-7410000D01*
X12988000Y-7380000D02*
X12958000Y-7410000D01*
X10799000Y-6872000D02*
G75*
G02*
X10699000Y-6872000I-50000J0D01*
G01*
X10699000Y-6872000D02*
G75*
G02*
X10799000Y-6872000I50000J0D01*
G01*
X11053000Y-6872000D02*
G75*
G02*
X10953000Y-6872000I-50000J0D01*
G01*
X10953000Y-6872000D02*
G75*
G02*
X11053000Y-6872000I50000J0D01*
G01*
X11307000Y-6872000D02*
G75*
G02*
X11207000Y-6872000I-50000J0D01*
G01*
X11207000Y-6872000D02*
G75*
G02*
X11307000Y-6872000I50000J0D01*
G01*
X11561000Y-6872000D02*
G75*
G02*
X11461000Y-6872000I-50000J0D01*
G01*
X11461000Y-6872000D02*
G75*
G02*
X11561000Y-6872000I50000J0D01*
G01*
X11815000Y-6872000D02*
G75*
G02*
X11715000Y-6872000I-50000J0D01*
G01*
X11715000Y-6872000D02*
G75*
G02*
X11815000Y-6872000I50000J0D01*
G01*
X12069000Y-6872000D02*
G75*
G02*
X11969000Y-6872000I-50000J0D01*
G01*
X11969000Y-6872000D02*
G75*
G02*
X12069000Y-6872000I50000J0D01*
G01*
X12323000Y-6872000D02*
G75*
G02*
X12223000Y-6872000I-50000J0D01*
G01*
X12223000Y-6872000D02*
G75*
G02*
X12323000Y-6872000I50000J0D01*
G01*
D11*
X9469277Y-8507984D02*
X9469277Y-8307984D01*
X9469277Y-8307984D02*
X9516896Y-8307984D01*
X9516896Y-8307984D02*
X9545467Y-8317508D01*
X9545467Y-8317508D02*
X9564515Y-8336555D01*
X9564515Y-8336555D02*
X9574039Y-8355603D01*
X9574039Y-8355603D02*
X9583563Y-8393698D01*
X9583563Y-8393698D02*
X9583563Y-8422270D01*
X9583563Y-8422270D02*
X9574039Y-8460365D01*
X9574039Y-8460365D02*
X9564515Y-8479412D01*
X9564515Y-8479412D02*
X9545467Y-8498460D01*
X9545467Y-8498460D02*
X9516896Y-8507984D01*
X9516896Y-8507984D02*
X9469277Y-8507984D01*
X9669277Y-8507984D02*
X9669277Y-8374650D01*
X9669277Y-8412746D02*
X9678801Y-8393698D01*
X9678801Y-8393698D02*
X9688324Y-8384174D01*
X9688324Y-8384174D02*
X9707372Y-8374650D01*
X9707372Y-8374650D02*
X9726420Y-8374650D01*
X9793086Y-8507984D02*
X9793086Y-8374650D01*
X9793086Y-8307984D02*
X9783563Y-8317508D01*
X9783563Y-8317508D02*
X9793086Y-8327031D01*
X9793086Y-8327031D02*
X9802610Y-8317508D01*
X9802610Y-8317508D02*
X9793086Y-8307984D01*
X9793086Y-8307984D02*
X9793086Y-8327031D01*
X9916896Y-8507984D02*
X9897848Y-8498460D01*
X9897848Y-8498460D02*
X9888324Y-8479412D01*
X9888324Y-8479412D02*
X9888324Y-8307984D01*
X10021658Y-8507984D02*
X10002610Y-8498460D01*
X10002610Y-8498460D02*
X9993086Y-8479412D01*
X9993086Y-8479412D02*
X9993086Y-8307984D01*
X10250229Y-8507984D02*
X10250229Y-8307984D01*
X10250229Y-8307984D02*
X10316896Y-8450841D01*
X10316896Y-8450841D02*
X10383563Y-8307984D01*
X10383563Y-8307984D02*
X10383563Y-8507984D01*
X10564515Y-8507984D02*
X10564515Y-8403222D01*
X10564515Y-8403222D02*
X10554991Y-8384174D01*
X10554991Y-8384174D02*
X10535944Y-8374650D01*
X10535944Y-8374650D02*
X10497848Y-8374650D01*
X10497848Y-8374650D02*
X10478801Y-8384174D01*
X10564515Y-8498460D02*
X10545467Y-8507984D01*
X10545467Y-8507984D02*
X10497848Y-8507984D01*
X10497848Y-8507984D02*
X10478801Y-8498460D01*
X10478801Y-8498460D02*
X10469277Y-8479412D01*
X10469277Y-8479412D02*
X10469277Y-8460365D01*
X10469277Y-8460365D02*
X10478801Y-8441317D01*
X10478801Y-8441317D02*
X10497848Y-8431793D01*
X10497848Y-8431793D02*
X10545467Y-8431793D01*
X10545467Y-8431793D02*
X10564515Y-8422270D01*
X10659753Y-8374650D02*
X10659753Y-8574650D01*
X10659753Y-8384174D02*
X10678801Y-8374650D01*
X10678801Y-8374650D02*
X10716896Y-8374650D01*
X10716896Y-8374650D02*
X10735944Y-8384174D01*
X10735944Y-8384174D02*
X10745467Y-8393698D01*
X10745467Y-8393698D02*
X10754991Y-8412746D01*
X10754991Y-8412746D02*
X10754991Y-8469889D01*
X10754991Y-8469889D02*
X10745467Y-8488936D01*
X10745467Y-8488936D02*
X10735944Y-8498460D01*
X10735944Y-8498460D02*
X10716896Y-8507984D01*
X10716896Y-8507984D02*
X10678801Y-8507984D01*
X10678801Y-8507984D02*
X10659753Y-8498460D01*
X10840705Y-8488936D02*
X10850229Y-8498460D01*
X10850229Y-8498460D02*
X10840705Y-8507984D01*
X10840705Y-8507984D02*
X10831182Y-8498460D01*
X10831182Y-8498460D02*
X10840705Y-8488936D01*
X10840705Y-8488936D02*
X10840705Y-8507984D01*
X10840705Y-8384174D02*
X10850229Y-8393698D01*
X10850229Y-8393698D02*
X10840705Y-8403222D01*
X10840705Y-8403222D02*
X10831182Y-8393698D01*
X10831182Y-8393698D02*
X10840705Y-8384174D01*
X10840705Y-8384174D02*
X10840705Y-8403222D01*
D12*
X9178500Y-8821500D02*
X9208500Y-8851500D01*
X9208500Y-8821500D02*
X9178500Y-8851500D01*
D11*
X9507372Y-8727984D02*
X9526420Y-8727984D01*
X9526420Y-8727984D02*
X9545467Y-8737508D01*
X9545467Y-8737508D02*
X9554991Y-8747031D01*
X9554991Y-8747031D02*
X9564515Y-8766079D01*
X9564515Y-8766079D02*
X9574039Y-8804174D01*
X9574039Y-8804174D02*
X9574039Y-8851793D01*
X9574039Y-8851793D02*
X9564515Y-8889889D01*
X9564515Y-8889889D02*
X9554991Y-8908936D01*
X9554991Y-8908936D02*
X9545467Y-8918460D01*
X9545467Y-8918460D02*
X9526420Y-8927984D01*
X9526420Y-8927984D02*
X9507372Y-8927984D01*
X9507372Y-8927984D02*
X9488324Y-8918460D01*
X9488324Y-8918460D02*
X9478801Y-8908936D01*
X9478801Y-8908936D02*
X9469277Y-8889889D01*
X9469277Y-8889889D02*
X9459753Y-8851793D01*
X9459753Y-8851793D02*
X9459753Y-8804174D01*
X9459753Y-8804174D02*
X9469277Y-8766079D01*
X9469277Y-8766079D02*
X9478801Y-8747031D01*
X9478801Y-8747031D02*
X9488324Y-8737508D01*
X9488324Y-8737508D02*
X9507372Y-8727984D01*
X9659753Y-8908936D02*
X9669277Y-8918460D01*
X9669277Y-8918460D02*
X9659753Y-8927984D01*
X9659753Y-8927984D02*
X9650229Y-8918460D01*
X9650229Y-8918460D02*
X9659753Y-8908936D01*
X9659753Y-8908936D02*
X9659753Y-8927984D01*
X9735944Y-8727984D02*
X9859753Y-8727984D01*
X9859753Y-8727984D02*
X9793086Y-8804174D01*
X9793086Y-8804174D02*
X9821658Y-8804174D01*
X9821658Y-8804174D02*
X9840705Y-8813698D01*
X9840705Y-8813698D02*
X9850229Y-8823222D01*
X9850229Y-8823222D02*
X9859753Y-8842270D01*
X9859753Y-8842270D02*
X9859753Y-8889889D01*
X9859753Y-8889889D02*
X9850229Y-8908936D01*
X9850229Y-8908936D02*
X9840705Y-8918460D01*
X9840705Y-8918460D02*
X9821658Y-8927984D01*
X9821658Y-8927984D02*
X9764515Y-8927984D01*
X9764515Y-8927984D02*
X9745467Y-8918460D01*
X9745467Y-8918460D02*
X9735944Y-8908936D01*
X9983563Y-8727984D02*
X10002610Y-8727984D01*
X10002610Y-8727984D02*
X10021658Y-8737508D01*
X10021658Y-8737508D02*
X10031182Y-8747031D01*
X10031182Y-8747031D02*
X10040705Y-8766079D01*
X10040705Y-8766079D02*
X10050229Y-8804174D01*
X10050229Y-8804174D02*
X10050229Y-8851793D01*
X10050229Y-8851793D02*
X10040705Y-8889889D01*
X10040705Y-8889889D02*
X10031182Y-8908936D01*
X10031182Y-8908936D02*
X10021658Y-8918460D01*
X10021658Y-8918460D02*
X10002610Y-8927984D01*
X10002610Y-8927984D02*
X9983563Y-8927984D01*
X9983563Y-8927984D02*
X9964515Y-8918460D01*
X9964515Y-8918460D02*
X9954991Y-8908936D01*
X9954991Y-8908936D02*
X9945467Y-8889889D01*
X9945467Y-8889889D02*
X9935944Y-8851793D01*
X9935944Y-8851793D02*
X9935944Y-8804174D01*
X9935944Y-8804174D02*
X9945467Y-8766079D01*
X9945467Y-8766079D02*
X9954991Y-8747031D01*
X9954991Y-8747031D02*
X9964515Y-8737508D01*
X9964515Y-8737508D02*
X9983563Y-8727984D01*
X10174039Y-8727984D02*
X10193086Y-8727984D01*
X10193086Y-8727984D02*
X10212134Y-8737508D01*
X10212134Y-8737508D02*
X10221658Y-8747031D01*
X10221658Y-8747031D02*
X10231182Y-8766079D01*
X10231182Y-8766079D02*
X10240705Y-8804174D01*
X10240705Y-8804174D02*
X10240705Y-8851793D01*
X10240705Y-8851793D02*
X10231182Y-8889889D01*
X10231182Y-8889889D02*
X10221658Y-8908936D01*
X10221658Y-8908936D02*
X10212134Y-8918460D01*
X10212134Y-8918460D02*
X10193086Y-8927984D01*
X10193086Y-8927984D02*
X10174039Y-8927984D01*
X10174039Y-8927984D02*
X10154991Y-8918460D01*
X10154991Y-8918460D02*
X10145467Y-8908936D01*
X10145467Y-8908936D02*
X10135944Y-8889889D01*
X10135944Y-8889889D02*
X10126420Y-8851793D01*
X10126420Y-8851793D02*
X10126420Y-8804174D01*
X10126420Y-8804174D02*
X10135944Y-8766079D01*
X10135944Y-8766079D02*
X10145467Y-8747031D01*
X10145467Y-8747031D02*
X10154991Y-8737508D01*
X10154991Y-8737508D02*
X10174039Y-8727984D01*
X10326420Y-8927984D02*
X10326420Y-8794650D01*
X10326420Y-8813698D02*
X10335944Y-8804174D01*
X10335944Y-8804174D02*
X10354991Y-8794650D01*
X10354991Y-8794650D02*
X10383563Y-8794650D01*
X10383563Y-8794650D02*
X10402610Y-8804174D01*
X10402610Y-8804174D02*
X10412134Y-8823222D01*
X10412134Y-8823222D02*
X10412134Y-8927984D01*
X10412134Y-8823222D02*
X10421658Y-8804174D01*
X10421658Y-8804174D02*
X10440705Y-8794650D01*
X10440705Y-8794650D02*
X10469277Y-8794650D01*
X10469277Y-8794650D02*
X10488325Y-8804174D01*
X10488325Y-8804174D02*
X10497848Y-8823222D01*
X10497848Y-8823222D02*
X10497848Y-8927984D01*
X10593086Y-8927984D02*
X10593086Y-8794650D01*
X10593086Y-8813698D02*
X10602610Y-8804174D01*
X10602610Y-8804174D02*
X10621658Y-8794650D01*
X10621658Y-8794650D02*
X10650229Y-8794650D01*
X10650229Y-8794650D02*
X10669277Y-8804174D01*
X10669277Y-8804174D02*
X10678801Y-8823222D01*
X10678801Y-8823222D02*
X10678801Y-8927984D01*
X10678801Y-8823222D02*
X10688325Y-8804174D01*
X10688325Y-8804174D02*
X10707372Y-8794650D01*
X10707372Y-8794650D02*
X10735944Y-8794650D01*
X10735944Y-8794650D02*
X10754991Y-8804174D01*
X10754991Y-8804174D02*
X10764515Y-8823222D01*
X10764515Y-8823222D02*
X10764515Y-8927984D01*
X11154991Y-8718460D02*
X10983563Y-8975603D01*
X11412134Y-8727984D02*
X11431182Y-8727984D01*
X11431182Y-8727984D02*
X11450229Y-8737508D01*
X11450229Y-8737508D02*
X11459753Y-8747031D01*
X11459753Y-8747031D02*
X11469277Y-8766079D01*
X11469277Y-8766079D02*
X11478801Y-8804174D01*
X11478801Y-8804174D02*
X11478801Y-8851793D01*
X11478801Y-8851793D02*
X11469277Y-8889889D01*
X11469277Y-8889889D02*
X11459753Y-8908936D01*
X11459753Y-8908936D02*
X11450229Y-8918460D01*
X11450229Y-8918460D02*
X11431182Y-8927984D01*
X11431182Y-8927984D02*
X11412134Y-8927984D01*
X11412134Y-8927984D02*
X11393086Y-8918460D01*
X11393086Y-8918460D02*
X11383563Y-8908936D01*
X11383563Y-8908936D02*
X11374039Y-8889889D01*
X11374039Y-8889889D02*
X11364515Y-8851793D01*
X11364515Y-8851793D02*
X11364515Y-8804174D01*
X11364515Y-8804174D02*
X11374039Y-8766079D01*
X11374039Y-8766079D02*
X11383563Y-8747031D01*
X11383563Y-8747031D02*
X11393086Y-8737508D01*
X11393086Y-8737508D02*
X11412134Y-8727984D01*
X11564515Y-8908936D02*
X11574039Y-8918460D01*
X11574039Y-8918460D02*
X11564515Y-8927984D01*
X11564515Y-8927984D02*
X11554991Y-8918460D01*
X11554991Y-8918460D02*
X11564515Y-8908936D01*
X11564515Y-8908936D02*
X11564515Y-8927984D01*
X11697848Y-8727984D02*
X11716896Y-8727984D01*
X11716896Y-8727984D02*
X11735944Y-8737508D01*
X11735944Y-8737508D02*
X11745467Y-8747031D01*
X11745467Y-8747031D02*
X11754991Y-8766079D01*
X11754991Y-8766079D02*
X11764515Y-8804174D01*
X11764515Y-8804174D02*
X11764515Y-8851793D01*
X11764515Y-8851793D02*
X11754991Y-8889889D01*
X11754991Y-8889889D02*
X11745467Y-8908936D01*
X11745467Y-8908936D02*
X11735944Y-8918460D01*
X11735944Y-8918460D02*
X11716896Y-8927984D01*
X11716896Y-8927984D02*
X11697848Y-8927984D01*
X11697848Y-8927984D02*
X11678801Y-8918460D01*
X11678801Y-8918460D02*
X11669277Y-8908936D01*
X11669277Y-8908936D02*
X11659753Y-8889889D01*
X11659753Y-8889889D02*
X11650229Y-8851793D01*
X11650229Y-8851793D02*
X11650229Y-8804174D01*
X11650229Y-8804174D02*
X11659753Y-8766079D01*
X11659753Y-8766079D02*
X11669277Y-8747031D01*
X11669277Y-8747031D02*
X11678801Y-8737508D01*
X11678801Y-8737508D02*
X11697848Y-8727984D01*
X11954991Y-8927984D02*
X11840706Y-8927984D01*
X11897848Y-8927984D02*
X11897848Y-8727984D01*
X11897848Y-8727984D02*
X11878801Y-8756555D01*
X11878801Y-8756555D02*
X11859753Y-8775603D01*
X11859753Y-8775603D02*
X11840706Y-8785127D01*
X12145467Y-8927984D02*
X12031182Y-8927984D01*
X12088325Y-8927984D02*
X12088325Y-8727984D01*
X12088325Y-8727984D02*
X12069277Y-8756555D01*
X12069277Y-8756555D02*
X12050229Y-8775603D01*
X12050229Y-8775603D02*
X12031182Y-8785127D01*
X12259753Y-8813698D02*
X12240706Y-8804174D01*
X12240706Y-8804174D02*
X12231182Y-8794650D01*
X12231182Y-8794650D02*
X12221658Y-8775603D01*
X12221658Y-8775603D02*
X12221658Y-8766079D01*
X12221658Y-8766079D02*
X12231182Y-8747031D01*
X12231182Y-8747031D02*
X12240706Y-8737508D01*
X12240706Y-8737508D02*
X12259753Y-8727984D01*
X12259753Y-8727984D02*
X12297848Y-8727984D01*
X12297848Y-8727984D02*
X12316896Y-8737508D01*
X12316896Y-8737508D02*
X12326420Y-8747031D01*
X12326420Y-8747031D02*
X12335944Y-8766079D01*
X12335944Y-8766079D02*
X12335944Y-8775603D01*
X12335944Y-8775603D02*
X12326420Y-8794650D01*
X12326420Y-8794650D02*
X12316896Y-8804174D01*
X12316896Y-8804174D02*
X12297848Y-8813698D01*
X12297848Y-8813698D02*
X12259753Y-8813698D01*
X12259753Y-8813698D02*
X12240706Y-8823222D01*
X12240706Y-8823222D02*
X12231182Y-8832746D01*
X12231182Y-8832746D02*
X12221658Y-8851793D01*
X12221658Y-8851793D02*
X12221658Y-8889889D01*
X12221658Y-8889889D02*
X12231182Y-8908936D01*
X12231182Y-8908936D02*
X12240706Y-8918460D01*
X12240706Y-8918460D02*
X12259753Y-8927984D01*
X12259753Y-8927984D02*
X12297848Y-8927984D01*
X12297848Y-8927984D02*
X12316896Y-8918460D01*
X12316896Y-8918460D02*
X12326420Y-8908936D01*
X12326420Y-8908936D02*
X12335944Y-8889889D01*
X12335944Y-8889889D02*
X12335944Y-8851793D01*
X12335944Y-8851793D02*
X12326420Y-8832746D01*
X12326420Y-8832746D02*
X12316896Y-8823222D01*
X12316896Y-8823222D02*
X12297848Y-8813698D01*
X12412134Y-8727984D02*
X12412134Y-8766079D01*
X12488325Y-8727984D02*
X12488325Y-8766079D01*
X12783563Y-9004174D02*
X12774039Y-8994650D01*
X12774039Y-8994650D02*
X12754991Y-8966079D01*
X12754991Y-8966079D02*
X12745468Y-8947031D01*
X12745468Y-8947031D02*
X12735944Y-8918460D01*
X12735944Y-8918460D02*
X12726420Y-8870841D01*
X12726420Y-8870841D02*
X12726420Y-8832746D01*
X12726420Y-8832746D02*
X12735944Y-8785127D01*
X12735944Y-8785127D02*
X12745468Y-8756555D01*
X12745468Y-8756555D02*
X12754991Y-8737508D01*
X12754991Y-8737508D02*
X12774039Y-8708936D01*
X12774039Y-8708936D02*
X12783563Y-8699412D01*
X12954991Y-8727984D02*
X12859753Y-8727984D01*
X12859753Y-8727984D02*
X12850229Y-8823222D01*
X12850229Y-8823222D02*
X12859753Y-8813698D01*
X12859753Y-8813698D02*
X12878801Y-8804174D01*
X12878801Y-8804174D02*
X12926420Y-8804174D01*
X12926420Y-8804174D02*
X12945468Y-8813698D01*
X12945468Y-8813698D02*
X12954991Y-8823222D01*
X12954991Y-8823222D02*
X12964515Y-8842270D01*
X12964515Y-8842270D02*
X12964515Y-8889889D01*
X12964515Y-8889889D02*
X12954991Y-8908936D01*
X12954991Y-8908936D02*
X12945468Y-8918460D01*
X12945468Y-8918460D02*
X12926420Y-8927984D01*
X12926420Y-8927984D02*
X12878801Y-8927984D01*
X12878801Y-8927984D02*
X12859753Y-8918460D01*
X12859753Y-8918460D02*
X12850229Y-8908936D01*
X13202610Y-8927984D02*
X13202610Y-8727984D01*
X13288325Y-8927984D02*
X13288325Y-8823222D01*
X13288325Y-8823222D02*
X13278801Y-8804174D01*
X13278801Y-8804174D02*
X13259753Y-8794650D01*
X13259753Y-8794650D02*
X13231182Y-8794650D01*
X13231182Y-8794650D02*
X13212134Y-8804174D01*
X13212134Y-8804174D02*
X13202610Y-8813698D01*
X13412134Y-8927984D02*
X13393087Y-8918460D01*
X13393087Y-8918460D02*
X13383563Y-8908936D01*
X13383563Y-8908936D02*
X13374039Y-8889889D01*
X13374039Y-8889889D02*
X13374039Y-8832746D01*
X13374039Y-8832746D02*
X13383563Y-8813698D01*
X13383563Y-8813698D02*
X13393087Y-8804174D01*
X13393087Y-8804174D02*
X13412134Y-8794650D01*
X13412134Y-8794650D02*
X13440706Y-8794650D01*
X13440706Y-8794650D02*
X13459753Y-8804174D01*
X13459753Y-8804174D02*
X13469277Y-8813698D01*
X13469277Y-8813698D02*
X13478801Y-8832746D01*
X13478801Y-8832746D02*
X13478801Y-8889889D01*
X13478801Y-8889889D02*
X13469277Y-8908936D01*
X13469277Y-8908936D02*
X13459753Y-8918460D01*
X13459753Y-8918460D02*
X13440706Y-8927984D01*
X13440706Y-8927984D02*
X13412134Y-8927984D01*
X13593087Y-8927984D02*
X13574039Y-8918460D01*
X13574039Y-8918460D02*
X13564515Y-8899412D01*
X13564515Y-8899412D02*
X13564515Y-8727984D01*
X13745468Y-8918460D02*
X13726420Y-8927984D01*
X13726420Y-8927984D02*
X13688325Y-8927984D01*
X13688325Y-8927984D02*
X13669277Y-8918460D01*
X13669277Y-8918460D02*
X13659753Y-8899412D01*
X13659753Y-8899412D02*
X13659753Y-8823222D01*
X13659753Y-8823222D02*
X13669277Y-8804174D01*
X13669277Y-8804174D02*
X13688325Y-8794650D01*
X13688325Y-8794650D02*
X13726420Y-8794650D01*
X13726420Y-8794650D02*
X13745468Y-8804174D01*
X13745468Y-8804174D02*
X13754991Y-8823222D01*
X13754991Y-8823222D02*
X13754991Y-8842270D01*
X13754991Y-8842270D02*
X13659753Y-8861317D01*
X13831182Y-8918460D02*
X13850230Y-8927984D01*
X13850230Y-8927984D02*
X13888325Y-8927984D01*
X13888325Y-8927984D02*
X13907372Y-8918460D01*
X13907372Y-8918460D02*
X13916896Y-8899412D01*
X13916896Y-8899412D02*
X13916896Y-8889889D01*
X13916896Y-8889889D02*
X13907372Y-8870841D01*
X13907372Y-8870841D02*
X13888325Y-8861317D01*
X13888325Y-8861317D02*
X13859753Y-8861317D01*
X13859753Y-8861317D02*
X13840706Y-8851793D01*
X13840706Y-8851793D02*
X13831182Y-8832746D01*
X13831182Y-8832746D02*
X13831182Y-8823222D01*
X13831182Y-8823222D02*
X13840706Y-8804174D01*
X13840706Y-8804174D02*
X13859753Y-8794650D01*
X13859753Y-8794650D02*
X13888325Y-8794650D01*
X13888325Y-8794650D02*
X13907372Y-8804174D01*
X13983563Y-9004174D02*
X13993087Y-8994650D01*
X13993087Y-8994650D02*
X14012134Y-8966079D01*
X14012134Y-8966079D02*
X14021658Y-8947031D01*
X14021658Y-8947031D02*
X14031182Y-8918460D01*
X14031182Y-8918460D02*
X14040706Y-8870841D01*
X14040706Y-8870841D02*
X14040706Y-8832746D01*
X14040706Y-8832746D02*
X14031182Y-8785127D01*
X14031182Y-8785127D02*
X14021658Y-8756555D01*
X14021658Y-8756555D02*
X14012134Y-8737508D01*
X14012134Y-8737508D02*
X13993087Y-8708936D01*
X13993087Y-8708936D02*
X13983563Y-8699412D01*
D12*
X9208500Y-9100500D02*
G75*
G02*
X9108500Y-9100500I-50000J0D01*
G01*
X9108500Y-9100500D02*
G75*
G02*
X9208500Y-9100500I50000J0D01*
G01*
D11*
X9574039Y-9191984D02*
X9459753Y-9191984D01*
X9516896Y-9191984D02*
X9516896Y-8991984D01*
X9516896Y-8991984D02*
X9497848Y-9020555D01*
X9497848Y-9020555D02*
X9478801Y-9039603D01*
X9478801Y-9039603D02*
X9459753Y-9049127D01*
X9659753Y-9172936D02*
X9669277Y-9182460D01*
X9669277Y-9182460D02*
X9659753Y-9191984D01*
X9659753Y-9191984D02*
X9650229Y-9182460D01*
X9650229Y-9182460D02*
X9659753Y-9172936D01*
X9659753Y-9172936D02*
X9659753Y-9191984D01*
X9793086Y-8991984D02*
X9812134Y-8991984D01*
X9812134Y-8991984D02*
X9831182Y-9001508D01*
X9831182Y-9001508D02*
X9840705Y-9011031D01*
X9840705Y-9011031D02*
X9850229Y-9030079D01*
X9850229Y-9030079D02*
X9859753Y-9068174D01*
X9859753Y-9068174D02*
X9859753Y-9115793D01*
X9859753Y-9115793D02*
X9850229Y-9153889D01*
X9850229Y-9153889D02*
X9840705Y-9172936D01*
X9840705Y-9172936D02*
X9831182Y-9182460D01*
X9831182Y-9182460D02*
X9812134Y-9191984D01*
X9812134Y-9191984D02*
X9793086Y-9191984D01*
X9793086Y-9191984D02*
X9774039Y-9182460D01*
X9774039Y-9182460D02*
X9764515Y-9172936D01*
X9764515Y-9172936D02*
X9754991Y-9153889D01*
X9754991Y-9153889D02*
X9745467Y-9115793D01*
X9745467Y-9115793D02*
X9745467Y-9068174D01*
X9745467Y-9068174D02*
X9754991Y-9030079D01*
X9754991Y-9030079D02*
X9764515Y-9011031D01*
X9764515Y-9011031D02*
X9774039Y-9001508D01*
X9774039Y-9001508D02*
X9793086Y-8991984D01*
X9983563Y-8991984D02*
X10002610Y-8991984D01*
X10002610Y-8991984D02*
X10021658Y-9001508D01*
X10021658Y-9001508D02*
X10031182Y-9011031D01*
X10031182Y-9011031D02*
X10040705Y-9030079D01*
X10040705Y-9030079D02*
X10050229Y-9068174D01*
X10050229Y-9068174D02*
X10050229Y-9115793D01*
X10050229Y-9115793D02*
X10040705Y-9153889D01*
X10040705Y-9153889D02*
X10031182Y-9172936D01*
X10031182Y-9172936D02*
X10021658Y-9182460D01*
X10021658Y-9182460D02*
X10002610Y-9191984D01*
X10002610Y-9191984D02*
X9983563Y-9191984D01*
X9983563Y-9191984D02*
X9964515Y-9182460D01*
X9964515Y-9182460D02*
X9954991Y-9172936D01*
X9954991Y-9172936D02*
X9945467Y-9153889D01*
X9945467Y-9153889D02*
X9935944Y-9115793D01*
X9935944Y-9115793D02*
X9935944Y-9068174D01*
X9935944Y-9068174D02*
X9945467Y-9030079D01*
X9945467Y-9030079D02*
X9954991Y-9011031D01*
X9954991Y-9011031D02*
X9964515Y-9001508D01*
X9964515Y-9001508D02*
X9983563Y-8991984D01*
X10174039Y-8991984D02*
X10193086Y-8991984D01*
X10193086Y-8991984D02*
X10212134Y-9001508D01*
X10212134Y-9001508D02*
X10221658Y-9011031D01*
X10221658Y-9011031D02*
X10231182Y-9030079D01*
X10231182Y-9030079D02*
X10240705Y-9068174D01*
X10240705Y-9068174D02*
X10240705Y-9115793D01*
X10240705Y-9115793D02*
X10231182Y-9153889D01*
X10231182Y-9153889D02*
X10221658Y-9172936D01*
X10221658Y-9172936D02*
X10212134Y-9182460D01*
X10212134Y-9182460D02*
X10193086Y-9191984D01*
X10193086Y-9191984D02*
X10174039Y-9191984D01*
X10174039Y-9191984D02*
X10154991Y-9182460D01*
X10154991Y-9182460D02*
X10145467Y-9172936D01*
X10145467Y-9172936D02*
X10135944Y-9153889D01*
X10135944Y-9153889D02*
X10126420Y-9115793D01*
X10126420Y-9115793D02*
X10126420Y-9068174D01*
X10126420Y-9068174D02*
X10135944Y-9030079D01*
X10135944Y-9030079D02*
X10145467Y-9011031D01*
X10145467Y-9011031D02*
X10154991Y-9001508D01*
X10154991Y-9001508D02*
X10174039Y-8991984D01*
X10326420Y-9191984D02*
X10326420Y-9058650D01*
X10326420Y-9077698D02*
X10335944Y-9068174D01*
X10335944Y-9068174D02*
X10354991Y-9058650D01*
X10354991Y-9058650D02*
X10383563Y-9058650D01*
X10383563Y-9058650D02*
X10402610Y-9068174D01*
X10402610Y-9068174D02*
X10412134Y-9087222D01*
X10412134Y-9087222D02*
X10412134Y-9191984D01*
X10412134Y-9087222D02*
X10421658Y-9068174D01*
X10421658Y-9068174D02*
X10440705Y-9058650D01*
X10440705Y-9058650D02*
X10469277Y-9058650D01*
X10469277Y-9058650D02*
X10488325Y-9068174D01*
X10488325Y-9068174D02*
X10497848Y-9087222D01*
X10497848Y-9087222D02*
X10497848Y-9191984D01*
X10593086Y-9191984D02*
X10593086Y-9058650D01*
X10593086Y-9077698D02*
X10602610Y-9068174D01*
X10602610Y-9068174D02*
X10621658Y-9058650D01*
X10621658Y-9058650D02*
X10650229Y-9058650D01*
X10650229Y-9058650D02*
X10669277Y-9068174D01*
X10669277Y-9068174D02*
X10678801Y-9087222D01*
X10678801Y-9087222D02*
X10678801Y-9191984D01*
X10678801Y-9087222D02*
X10688325Y-9068174D01*
X10688325Y-9068174D02*
X10707372Y-9058650D01*
X10707372Y-9058650D02*
X10735944Y-9058650D01*
X10735944Y-9058650D02*
X10754991Y-9068174D01*
X10754991Y-9068174D02*
X10764515Y-9087222D01*
X10764515Y-9087222D02*
X10764515Y-9191984D01*
X11154991Y-8982460D02*
X10983563Y-9239603D01*
X11412134Y-8991984D02*
X11431182Y-8991984D01*
X11431182Y-8991984D02*
X11450229Y-9001508D01*
X11450229Y-9001508D02*
X11459753Y-9011031D01*
X11459753Y-9011031D02*
X11469277Y-9030079D01*
X11469277Y-9030079D02*
X11478801Y-9068174D01*
X11478801Y-9068174D02*
X11478801Y-9115793D01*
X11478801Y-9115793D02*
X11469277Y-9153889D01*
X11469277Y-9153889D02*
X11459753Y-9172936D01*
X11459753Y-9172936D02*
X11450229Y-9182460D01*
X11450229Y-9182460D02*
X11431182Y-9191984D01*
X11431182Y-9191984D02*
X11412134Y-9191984D01*
X11412134Y-9191984D02*
X11393086Y-9182460D01*
X11393086Y-9182460D02*
X11383563Y-9172936D01*
X11383563Y-9172936D02*
X11374039Y-9153889D01*
X11374039Y-9153889D02*
X11364515Y-9115793D01*
X11364515Y-9115793D02*
X11364515Y-9068174D01*
X11364515Y-9068174D02*
X11374039Y-9030079D01*
X11374039Y-9030079D02*
X11383563Y-9011031D01*
X11383563Y-9011031D02*
X11393086Y-9001508D01*
X11393086Y-9001508D02*
X11412134Y-8991984D01*
X11564515Y-9172936D02*
X11574039Y-9182460D01*
X11574039Y-9182460D02*
X11564515Y-9191984D01*
X11564515Y-9191984D02*
X11554991Y-9182460D01*
X11554991Y-9182460D02*
X11564515Y-9172936D01*
X11564515Y-9172936D02*
X11564515Y-9191984D01*
X11697848Y-8991984D02*
X11716896Y-8991984D01*
X11716896Y-8991984D02*
X11735944Y-9001508D01*
X11735944Y-9001508D02*
X11745467Y-9011031D01*
X11745467Y-9011031D02*
X11754991Y-9030079D01*
X11754991Y-9030079D02*
X11764515Y-9068174D01*
X11764515Y-9068174D02*
X11764515Y-9115793D01*
X11764515Y-9115793D02*
X11754991Y-9153889D01*
X11754991Y-9153889D02*
X11745467Y-9172936D01*
X11745467Y-9172936D02*
X11735944Y-9182460D01*
X11735944Y-9182460D02*
X11716896Y-9191984D01*
X11716896Y-9191984D02*
X11697848Y-9191984D01*
X11697848Y-9191984D02*
X11678801Y-9182460D01*
X11678801Y-9182460D02*
X11669277Y-9172936D01*
X11669277Y-9172936D02*
X11659753Y-9153889D01*
X11659753Y-9153889D02*
X11650229Y-9115793D01*
X11650229Y-9115793D02*
X11650229Y-9068174D01*
X11650229Y-9068174D02*
X11659753Y-9030079D01*
X11659753Y-9030079D02*
X11669277Y-9011031D01*
X11669277Y-9011031D02*
X11678801Y-9001508D01*
X11678801Y-9001508D02*
X11697848Y-8991984D01*
X11831182Y-8991984D02*
X11954991Y-8991984D01*
X11954991Y-8991984D02*
X11888325Y-9068174D01*
X11888325Y-9068174D02*
X11916896Y-9068174D01*
X11916896Y-9068174D02*
X11935944Y-9077698D01*
X11935944Y-9077698D02*
X11945467Y-9087222D01*
X11945467Y-9087222D02*
X11954991Y-9106270D01*
X11954991Y-9106270D02*
X11954991Y-9153889D01*
X11954991Y-9153889D02*
X11945467Y-9172936D01*
X11945467Y-9172936D02*
X11935944Y-9182460D01*
X11935944Y-9182460D02*
X11916896Y-9191984D01*
X11916896Y-9191984D02*
X11859753Y-9191984D01*
X11859753Y-9191984D02*
X11840706Y-9182460D01*
X11840706Y-9182460D02*
X11831182Y-9172936D01*
X12050229Y-9191984D02*
X12088325Y-9191984D01*
X12088325Y-9191984D02*
X12107372Y-9182460D01*
X12107372Y-9182460D02*
X12116896Y-9172936D01*
X12116896Y-9172936D02*
X12135944Y-9144365D01*
X12135944Y-9144365D02*
X12145467Y-9106270D01*
X12145467Y-9106270D02*
X12145467Y-9030079D01*
X12145467Y-9030079D02*
X12135944Y-9011031D01*
X12135944Y-9011031D02*
X12126420Y-9001508D01*
X12126420Y-9001508D02*
X12107372Y-8991984D01*
X12107372Y-8991984D02*
X12069277Y-8991984D01*
X12069277Y-8991984D02*
X12050229Y-9001508D01*
X12050229Y-9001508D02*
X12040706Y-9011031D01*
X12040706Y-9011031D02*
X12031182Y-9030079D01*
X12031182Y-9030079D02*
X12031182Y-9077698D01*
X12031182Y-9077698D02*
X12040706Y-9096746D01*
X12040706Y-9096746D02*
X12050229Y-9106270D01*
X12050229Y-9106270D02*
X12069277Y-9115793D01*
X12069277Y-9115793D02*
X12107372Y-9115793D01*
X12107372Y-9115793D02*
X12126420Y-9106270D01*
X12126420Y-9106270D02*
X12135944Y-9096746D01*
X12135944Y-9096746D02*
X12145467Y-9077698D01*
X12316896Y-9058650D02*
X12316896Y-9191984D01*
X12269277Y-8982460D02*
X12221658Y-9125317D01*
X12221658Y-9125317D02*
X12345467Y-9125317D01*
X12412134Y-8991984D02*
X12412134Y-9030079D01*
X12488325Y-8991984D02*
X12488325Y-9030079D01*
X12783563Y-9268174D02*
X12774039Y-9258650D01*
X12774039Y-9258650D02*
X12754991Y-9230079D01*
X12754991Y-9230079D02*
X12745468Y-9211031D01*
X12745468Y-9211031D02*
X12735944Y-9182460D01*
X12735944Y-9182460D02*
X12726420Y-9134841D01*
X12726420Y-9134841D02*
X12726420Y-9096746D01*
X12726420Y-9096746D02*
X12735944Y-9049127D01*
X12735944Y-9049127D02*
X12745468Y-9020555D01*
X12745468Y-9020555D02*
X12754991Y-9001508D01*
X12754991Y-9001508D02*
X12774039Y-8972936D01*
X12774039Y-8972936D02*
X12783563Y-8963412D01*
X12840706Y-8991984D02*
X12974039Y-8991984D01*
X12974039Y-8991984D02*
X12888325Y-9191984D01*
X13202610Y-9191984D02*
X13202610Y-8991984D01*
X13288325Y-9191984D02*
X13288325Y-9087222D01*
X13288325Y-9087222D02*
X13278801Y-9068174D01*
X13278801Y-9068174D02*
X13259753Y-9058650D01*
X13259753Y-9058650D02*
X13231182Y-9058650D01*
X13231182Y-9058650D02*
X13212134Y-9068174D01*
X13212134Y-9068174D02*
X13202610Y-9077698D01*
X13412134Y-9191984D02*
X13393087Y-9182460D01*
X13393087Y-9182460D02*
X13383563Y-9172936D01*
X13383563Y-9172936D02*
X13374039Y-9153889D01*
X13374039Y-9153889D02*
X13374039Y-9096746D01*
X13374039Y-9096746D02*
X13383563Y-9077698D01*
X13383563Y-9077698D02*
X13393087Y-9068174D01*
X13393087Y-9068174D02*
X13412134Y-9058650D01*
X13412134Y-9058650D02*
X13440706Y-9058650D01*
X13440706Y-9058650D02*
X13459753Y-9068174D01*
X13459753Y-9068174D02*
X13469277Y-9077698D01*
X13469277Y-9077698D02*
X13478801Y-9096746D01*
X13478801Y-9096746D02*
X13478801Y-9153889D01*
X13478801Y-9153889D02*
X13469277Y-9172936D01*
X13469277Y-9172936D02*
X13459753Y-9182460D01*
X13459753Y-9182460D02*
X13440706Y-9191984D01*
X13440706Y-9191984D02*
X13412134Y-9191984D01*
X13593087Y-9191984D02*
X13574039Y-9182460D01*
X13574039Y-9182460D02*
X13564515Y-9163412D01*
X13564515Y-9163412D02*
X13564515Y-8991984D01*
X13745468Y-9182460D02*
X13726420Y-9191984D01*
X13726420Y-9191984D02*
X13688325Y-9191984D01*
X13688325Y-9191984D02*
X13669277Y-9182460D01*
X13669277Y-9182460D02*
X13659753Y-9163412D01*
X13659753Y-9163412D02*
X13659753Y-9087222D01*
X13659753Y-9087222D02*
X13669277Y-9068174D01*
X13669277Y-9068174D02*
X13688325Y-9058650D01*
X13688325Y-9058650D02*
X13726420Y-9058650D01*
X13726420Y-9058650D02*
X13745468Y-9068174D01*
X13745468Y-9068174D02*
X13754991Y-9087222D01*
X13754991Y-9087222D02*
X13754991Y-9106270D01*
X13754991Y-9106270D02*
X13659753Y-9125317D01*
X13831182Y-9182460D02*
X13850230Y-9191984D01*
X13850230Y-9191984D02*
X13888325Y-9191984D01*
X13888325Y-9191984D02*
X13907372Y-9182460D01*
X13907372Y-9182460D02*
X13916896Y-9163412D01*
X13916896Y-9163412D02*
X13916896Y-9153889D01*
X13916896Y-9153889D02*
X13907372Y-9134841D01*
X13907372Y-9134841D02*
X13888325Y-9125317D01*
X13888325Y-9125317D02*
X13859753Y-9125317D01*
X13859753Y-9125317D02*
X13840706Y-9115793D01*
X13840706Y-9115793D02*
X13831182Y-9096746D01*
X13831182Y-9096746D02*
X13831182Y-9087222D01*
X13831182Y-9087222D02*
X13840706Y-9068174D01*
X13840706Y-9068174D02*
X13859753Y-9058650D01*
X13859753Y-9058650D02*
X13888325Y-9058650D01*
X13888325Y-9058650D02*
X13907372Y-9068174D01*
X13983563Y-9268174D02*
X13993087Y-9258650D01*
X13993087Y-9258650D02*
X14012134Y-9230079D01*
X14012134Y-9230079D02*
X14021658Y-9211031D01*
X14021658Y-9211031D02*
X14031182Y-9182460D01*
X14031182Y-9182460D02*
X14040706Y-9134841D01*
X14040706Y-9134841D02*
X14040706Y-9096746D01*
X14040706Y-9096746D02*
X14031182Y-9049127D01*
X14031182Y-9049127D02*
X14021658Y-9020555D01*
X14021658Y-9020555D02*
X14012134Y-9001508D01*
X14012134Y-9001508D02*
X13993087Y-8972936D01*
X13993087Y-8972936D02*
X13983563Y-8963412D01*
M02*
