%TF.GenerationSoftware,KiCad,Pcbnew,8.0.5*%
%TF.CreationDate,2024-11-11T16:35:56-08:00*%
%TF.ProjectId,Switch Lock,53776974-6368-4204-9c6f-636b2e6b6963,rev?*%
%TF.SameCoordinates,Original*%
%TF.FileFunction,Copper,L1,Top*%
%TF.FilePolarity,Positive*%
%FSLAX46Y46*%
G04 Gerber Fmt 4.6, Leading zero omitted, Abs format (unit mm)*
G04 Created by KiCad (PCBNEW 8.0.5) date 2024-11-11 16:35:56*
%MOMM*%
%LPD*%
G01*
G04 APERTURE LIST*
G04 Aperture macros list*
%AMRoundRect*
0 Rectangle with rounded corners*
0 $1 Rounding radius*
0 $2 $3 $4 $5 $6 $7 $8 $9 X,Y pos of 4 corners*
0 Add a 4 corners polygon primitive as box body*
4,1,4,$2,$3,$4,$5,$6,$7,$8,$9,$2,$3,0*
0 Add four circle primitives for the rounded corners*
1,1,$1+$1,$2,$3*
1,1,$1+$1,$4,$5*
1,1,$1+$1,$6,$7*
1,1,$1+$1,$8,$9*
0 Add four rect primitives between the rounded corners*
20,1,$1+$1,$2,$3,$4,$5,0*
20,1,$1+$1,$4,$5,$6,$7,0*
20,1,$1+$1,$6,$7,$8,$9,0*
20,1,$1+$1,$8,$9,$2,$3,0*%
G04 Aperture macros list end*
%TA.AperFunction,SMDPad,CuDef*%
%ADD10RoundRect,0.250000X0.475000X-0.337500X0.475000X0.337500X-0.475000X0.337500X-0.475000X-0.337500X0*%
%TD*%
%TA.AperFunction,SMDPad,CuDef*%
%ADD11RoundRect,0.250000X-0.350000X-0.450000X0.350000X-0.450000X0.350000X0.450000X-0.350000X0.450000X0*%
%TD*%
%TA.AperFunction,SMDPad,CuDef*%
%ADD12R,1.200000X2.500000*%
%TD*%
%TA.AperFunction,ComponentPad*%
%ADD13R,1.700000X1.700000*%
%TD*%
%TA.AperFunction,ComponentPad*%
%ADD14O,1.700000X1.700000*%
%TD*%
%TA.AperFunction,ViaPad*%
%ADD15C,1.000000*%
%TD*%
%TA.AperFunction,Conductor*%
%ADD16C,1.000000*%
%TD*%
G04 APERTURE END LIST*
D10*
%TO.P,C1,1*%
%TO.N,GND*%
X128090000Y-69527500D03*
%TO.P,C1,2*%
%TO.N,/3.3v*%
X128090000Y-67452500D03*
%TD*%
D11*
%TO.P,R1,1*%
%TO.N,/3.3v*%
X97210000Y-68690000D03*
%TO.P,R1,2*%
%TO.N,Net-(J2-Pin_1)*%
X99210000Y-68690000D03*
%TD*%
D12*
%TO.P,Status1,1*%
%TO.N,/3.3v*%
X120250000Y-60681750D03*
%TO.P,Status1,2*%
%TO.N,Net-(J2-Pin_6)*%
X117750000Y-60681750D03*
%TO.P,Status1,3*%
%TO.N,GND*%
X115250000Y-60681750D03*
%TD*%
%TO.P,S2,1*%
%TO.N,/3.3v*%
X104570000Y-76940000D03*
%TO.P,S2,2*%
%TO.N,Net-(J2-Pin_3)*%
X107070000Y-76940000D03*
%TO.P,S2,3*%
%TO.N,GND*%
X109570000Y-76940000D03*
%TD*%
%TO.P,S1,1*%
%TO.N,/3.3v*%
X94390000Y-76978250D03*
%TO.P,S1,2*%
%TO.N,Net-(J2-Pin_2)*%
X96890000Y-76978250D03*
%TO.P,S1,3*%
%TO.N,GND*%
X99390000Y-76978250D03*
%TD*%
%TO.P,S4,1*%
%TO.N,/3.3v*%
X124700000Y-76888250D03*
%TO.P,S4,2*%
%TO.N,Net-(J2-Pin_5)*%
X127200000Y-76888250D03*
%TO.P,S4,3*%
%TO.N,GND*%
X129700000Y-76888250D03*
%TD*%
D13*
%TO.P,J2,1,Pin_1*%
%TO.N,Net-(J2-Pin_1)*%
X107490000Y-68720000D03*
D14*
%TO.P,J2,2,Pin_2*%
%TO.N,Net-(J2-Pin_2)*%
X110030000Y-68720000D03*
%TO.P,J2,3,Pin_3*%
%TO.N,Net-(J2-Pin_3)*%
X112570000Y-68720000D03*
%TO.P,J2,4,Pin_4*%
%TO.N,Net-(J2-Pin_4)*%
X115110000Y-68720000D03*
%TO.P,J2,5,Pin_5*%
%TO.N,Net-(J2-Pin_5)*%
X117650000Y-68720000D03*
%TO.P,J2,6,Pin_6*%
%TO.N,Net-(J2-Pin_6)*%
X120190000Y-68720000D03*
%TO.P,J2,7,Pin_7*%
%TO.N,GND*%
X122730000Y-68720000D03*
%TD*%
D12*
%TO.P,S3,1*%
%TO.N,/3.3v*%
X114650000Y-76870000D03*
%TO.P,S3,2*%
%TO.N,Net-(J2-Pin_4)*%
X117150000Y-76870000D03*
%TO.P,S3,3*%
%TO.N,GND*%
X119650000Y-76870000D03*
%TD*%
D15*
%TO.N,GND*%
X128090000Y-69527500D03*
X119650000Y-76870000D03*
X115250000Y-60681750D03*
X109570000Y-76940000D03*
X99390000Y-76978250D03*
X129700000Y-76888250D03*
%TD*%
D16*
%TO.N,Net-(J2-Pin_1)*%
X107460000Y-68690000D02*
X107490000Y-68720000D01*
X99210000Y-68690000D02*
X107460000Y-68690000D01*
%TO.N,Net-(J2-Pin_2)*%
X101318250Y-71900000D02*
X107410000Y-71900000D01*
X110030000Y-69280000D02*
X110030000Y-68720000D01*
X96890000Y-76328250D02*
X101318250Y-71900000D01*
X96890000Y-76978250D02*
X96890000Y-76328250D01*
X107410000Y-71900000D02*
X110030000Y-69280000D01*
%TO.N,Net-(J2-Pin_6)*%
X120190000Y-66480000D02*
X120190000Y-68720000D01*
X117750000Y-60681750D02*
X117750000Y-64040000D01*
X117750000Y-64040000D02*
X120190000Y-66480000D01*
%TO.N,Net-(J2-Pin_4)*%
X117150000Y-73820000D02*
X115110000Y-71780000D01*
X115110000Y-71780000D02*
X115110000Y-68720000D01*
X117150000Y-76870000D02*
X117150000Y-73820000D01*
%TO.N,Net-(J2-Pin_5)*%
X123591750Y-72630000D02*
X119920000Y-72630000D01*
X119920000Y-72630000D02*
X117650000Y-70360000D01*
X127200000Y-76888250D02*
X127200000Y-76238250D01*
X117650000Y-70360000D02*
X117650000Y-68720000D01*
X127200000Y-76238250D02*
X123591750Y-72630000D01*
%TO.N,Net-(J2-Pin_3)*%
X107070000Y-76190000D02*
X112570000Y-70690000D01*
X112570000Y-70690000D02*
X112570000Y-68720000D01*
X107070000Y-76940000D02*
X107070000Y-76190000D01*
%TD*%
%TA.AperFunction,Conductor*%
%TO.N,/3.3v*%
G36*
X132252539Y-55750185D02*
G01*
X132298294Y-55802989D01*
X132309500Y-55854500D01*
X132309500Y-69014250D01*
X132280306Y-81815783D01*
X132260468Y-81882777D01*
X132207560Y-81928412D01*
X132156306Y-81939500D01*
X123850600Y-81939500D01*
X92262303Y-81900152D01*
X92195288Y-81880384D01*
X92149599Y-81827523D01*
X92138467Y-81777706D01*
X92121116Y-80393330D01*
X92113707Y-79802170D01*
X92739499Y-79802170D01*
X92768340Y-79947157D01*
X92768343Y-79947167D01*
X92824912Y-80083738D01*
X92824919Y-80083751D01*
X92907048Y-80206665D01*
X92907051Y-80206669D01*
X93011580Y-80311198D01*
X93011584Y-80311201D01*
X93134498Y-80393330D01*
X93134511Y-80393337D01*
X93248374Y-80440500D01*
X93271087Y-80449908D01*
X93271091Y-80449908D01*
X93271092Y-80449909D01*
X93416079Y-80478750D01*
X93416082Y-80478750D01*
X93563920Y-80478750D01*
X93661462Y-80459346D01*
X93708913Y-80449908D01*
X93845495Y-80393334D01*
X93968416Y-80311201D01*
X94072951Y-80206666D01*
X94155084Y-80083745D01*
X94211658Y-79947163D01*
X94240500Y-79802170D01*
X99539499Y-79802170D01*
X99568340Y-79947157D01*
X99568343Y-79947167D01*
X99624912Y-80083738D01*
X99624919Y-80083751D01*
X99707048Y-80206665D01*
X99707051Y-80206669D01*
X99811580Y-80311198D01*
X99811584Y-80311201D01*
X99934498Y-80393330D01*
X99934511Y-80393337D01*
X100048374Y-80440500D01*
X100071087Y-80449908D01*
X100071091Y-80449908D01*
X100071092Y-80449909D01*
X100216079Y-80478750D01*
X100216082Y-80478750D01*
X100363920Y-80478750D01*
X100461462Y-80459346D01*
X100508913Y-80449908D01*
X100645495Y-80393334D01*
X100768416Y-80311201D01*
X100872951Y-80206666D01*
X100955084Y-80083745D01*
X101011658Y-79947163D01*
X101040500Y-79802168D01*
X101040500Y-79763920D01*
X102919499Y-79763920D01*
X102948340Y-79908907D01*
X102948343Y-79908917D01*
X103004912Y-80045488D01*
X103004919Y-80045501D01*
X103087048Y-80168415D01*
X103087051Y-80168419D01*
X103191580Y-80272948D01*
X103191584Y-80272951D01*
X103314498Y-80355080D01*
X103314511Y-80355087D01*
X103406856Y-80393337D01*
X103451087Y-80411658D01*
X103451091Y-80411658D01*
X103451092Y-80411659D01*
X103596079Y-80440500D01*
X103596082Y-80440500D01*
X103743920Y-80440500D01*
X103841462Y-80421096D01*
X103888913Y-80411658D01*
X103994547Y-80367902D01*
X104025488Y-80355087D01*
X104025488Y-80355086D01*
X104025495Y-80355084D01*
X104148416Y-80272951D01*
X104252951Y-80168416D01*
X104335084Y-80045495D01*
X104391658Y-79908913D01*
X104401953Y-79857157D01*
X104420500Y-79763920D01*
X109719499Y-79763920D01*
X109748340Y-79908907D01*
X109748343Y-79908917D01*
X109804912Y-80045488D01*
X109804919Y-80045501D01*
X109887048Y-80168415D01*
X109887051Y-80168419D01*
X109991580Y-80272948D01*
X109991584Y-80272951D01*
X110114498Y-80355080D01*
X110114511Y-80355087D01*
X110206856Y-80393337D01*
X110251087Y-80411658D01*
X110251091Y-80411658D01*
X110251092Y-80411659D01*
X110396079Y-80440500D01*
X110396082Y-80440500D01*
X110543920Y-80440500D01*
X110641462Y-80421096D01*
X110688913Y-80411658D01*
X110794547Y-80367902D01*
X110825488Y-80355087D01*
X110825488Y-80355086D01*
X110825495Y-80355084D01*
X110948416Y-80272951D01*
X111052951Y-80168416D01*
X111135084Y-80045495D01*
X111191658Y-79908913D01*
X111201953Y-79857157D01*
X111220500Y-79763920D01*
X111220500Y-79693920D01*
X112999499Y-79693920D01*
X113028340Y-79838907D01*
X113028343Y-79838917D01*
X113084912Y-79975488D01*
X113084919Y-79975501D01*
X113167048Y-80098415D01*
X113167051Y-80098419D01*
X113271580Y-80202948D01*
X113271584Y-80202951D01*
X113394498Y-80285080D01*
X113394511Y-80285087D01*
X113531082Y-80341656D01*
X113531087Y-80341658D01*
X113531091Y-80341658D01*
X113531092Y-80341659D01*
X113676079Y-80370500D01*
X113676082Y-80370500D01*
X113823920Y-80370500D01*
X113921462Y-80351096D01*
X113968913Y-80341658D01*
X114105495Y-80285084D01*
X114228416Y-80202951D01*
X114332951Y-80098416D01*
X114415084Y-79975495D01*
X114471658Y-79838913D01*
X114481096Y-79791462D01*
X114500500Y-79693920D01*
X119799499Y-79693920D01*
X119828340Y-79838907D01*
X119828343Y-79838917D01*
X119884912Y-79975488D01*
X119884919Y-79975501D01*
X119967048Y-80098415D01*
X119967051Y-80098419D01*
X120071580Y-80202948D01*
X120071584Y-80202951D01*
X120194498Y-80285080D01*
X120194511Y-80285087D01*
X120331082Y-80341656D01*
X120331087Y-80341658D01*
X120331091Y-80341658D01*
X120331092Y-80341659D01*
X120476079Y-80370500D01*
X120476082Y-80370500D01*
X120623920Y-80370500D01*
X120721462Y-80351096D01*
X120768913Y-80341658D01*
X120905495Y-80285084D01*
X121028416Y-80202951D01*
X121132951Y-80098416D01*
X121215084Y-79975495D01*
X121271658Y-79838913D01*
X121281096Y-79791462D01*
X121296870Y-79712170D01*
X123049499Y-79712170D01*
X123078340Y-79857157D01*
X123078343Y-79857167D01*
X123134912Y-79993738D01*
X123134919Y-79993751D01*
X123217048Y-80116665D01*
X123217051Y-80116669D01*
X123321580Y-80221198D01*
X123321584Y-80221201D01*
X123444498Y-80303330D01*
X123444511Y-80303337D01*
X123569431Y-80355080D01*
X123581087Y-80359908D01*
X123581091Y-80359908D01*
X123581092Y-80359909D01*
X123726079Y-80388750D01*
X123726082Y-80388750D01*
X123873920Y-80388750D01*
X123971462Y-80369346D01*
X124018913Y-80359908D01*
X124155495Y-80303334D01*
X124278416Y-80221201D01*
X124382951Y-80116666D01*
X124465084Y-79993745D01*
X124521658Y-79857163D01*
X124550500Y-79712170D01*
X129849499Y-79712170D01*
X129878340Y-79857157D01*
X129878343Y-79857167D01*
X129934912Y-79993738D01*
X129934919Y-79993751D01*
X130017048Y-80116665D01*
X130017051Y-80116669D01*
X130121580Y-80221198D01*
X130121584Y-80221201D01*
X130244498Y-80303330D01*
X130244511Y-80303337D01*
X130369431Y-80355080D01*
X130381087Y-80359908D01*
X130381091Y-80359908D01*
X130381092Y-80359909D01*
X130526079Y-80388750D01*
X130526082Y-80388750D01*
X130673920Y-80388750D01*
X130771462Y-80369346D01*
X130818913Y-80359908D01*
X130955495Y-80303334D01*
X131078416Y-80221201D01*
X131182951Y-80116666D01*
X131265084Y-79993745D01*
X131321658Y-79857163D01*
X131350500Y-79712168D01*
X131350500Y-79564332D01*
X131350500Y-79564329D01*
X131321659Y-79419342D01*
X131321658Y-79419341D01*
X131321658Y-79419337D01*
X131286517Y-79334498D01*
X131265087Y-79282761D01*
X131265080Y-79282748D01*
X131182951Y-79159834D01*
X131182948Y-79159830D01*
X131078419Y-79055301D01*
X131078415Y-79055298D01*
X130955501Y-78973169D01*
X130955488Y-78973162D01*
X130818917Y-78916593D01*
X130818907Y-78916590D01*
X130673920Y-78887750D01*
X130673918Y-78887750D01*
X130526082Y-78887750D01*
X130526080Y-78887750D01*
X130381092Y-78916590D01*
X130381082Y-78916593D01*
X130244511Y-78973162D01*
X130244498Y-78973169D01*
X130121584Y-79055298D01*
X130121580Y-79055301D01*
X130017051Y-79159830D01*
X130017048Y-79159834D01*
X129934919Y-79282748D01*
X129934912Y-79282761D01*
X129878343Y-79419332D01*
X129878340Y-79419342D01*
X129849500Y-79564329D01*
X129849500Y-79564332D01*
X129849500Y-79712168D01*
X129849500Y-79712170D01*
X129849499Y-79712170D01*
X124550500Y-79712170D01*
X124550500Y-79712168D01*
X124550500Y-79564332D01*
X124550500Y-79564329D01*
X124521659Y-79419342D01*
X124521658Y-79419341D01*
X124521658Y-79419337D01*
X124486517Y-79334498D01*
X124465087Y-79282761D01*
X124465080Y-79282748D01*
X124382951Y-79159834D01*
X124382948Y-79159830D01*
X124278419Y-79055301D01*
X124278415Y-79055298D01*
X124155501Y-78973169D01*
X124155488Y-78973162D01*
X124018917Y-78916593D01*
X124018907Y-78916590D01*
X123873920Y-78887750D01*
X123873918Y-78887750D01*
X123726082Y-78887750D01*
X123726080Y-78887750D01*
X123581092Y-78916590D01*
X123581082Y-78916593D01*
X123444511Y-78973162D01*
X123444498Y-78973169D01*
X123321584Y-79055298D01*
X123321580Y-79055301D01*
X123217051Y-79159830D01*
X123217048Y-79159834D01*
X123134919Y-79282748D01*
X123134912Y-79282761D01*
X123078343Y-79419332D01*
X123078340Y-79419342D01*
X123049500Y-79564329D01*
X123049500Y-79564332D01*
X123049500Y-79712168D01*
X123049500Y-79712170D01*
X123049499Y-79712170D01*
X121296870Y-79712170D01*
X121300500Y-79693920D01*
X121300500Y-79546079D01*
X121271659Y-79401092D01*
X121271658Y-79401091D01*
X121271658Y-79401087D01*
X121259920Y-79372748D01*
X121215087Y-79264511D01*
X121215080Y-79264498D01*
X121132951Y-79141584D01*
X121132948Y-79141580D01*
X121028419Y-79037051D01*
X121028415Y-79037048D01*
X120905501Y-78954919D01*
X120905488Y-78954912D01*
X120768917Y-78898343D01*
X120768907Y-78898340D01*
X120623920Y-78869500D01*
X120623918Y-78869500D01*
X120476082Y-78869500D01*
X120476080Y-78869500D01*
X120331092Y-78898340D01*
X120331082Y-78898343D01*
X120194511Y-78954912D01*
X120194498Y-78954919D01*
X120071584Y-79037048D01*
X120071580Y-79037051D01*
X119967051Y-79141580D01*
X119967048Y-79141584D01*
X119884919Y-79264498D01*
X119884912Y-79264511D01*
X119828343Y-79401082D01*
X119828340Y-79401092D01*
X119799500Y-79546079D01*
X119799500Y-79546082D01*
X119799500Y-79693918D01*
X119799500Y-79693920D01*
X119799499Y-79693920D01*
X114500500Y-79693920D01*
X114500500Y-79546079D01*
X114471659Y-79401092D01*
X114471658Y-79401091D01*
X114471658Y-79401087D01*
X114459920Y-79372748D01*
X114415087Y-79264511D01*
X114415080Y-79264498D01*
X114332951Y-79141584D01*
X114332948Y-79141580D01*
X114228419Y-79037051D01*
X114228415Y-79037048D01*
X114105501Y-78954919D01*
X114105488Y-78954912D01*
X113968917Y-78898343D01*
X113968907Y-78898340D01*
X113823920Y-78869500D01*
X113823918Y-78869500D01*
X113676082Y-78869500D01*
X113676080Y-78869500D01*
X113531092Y-78898340D01*
X113531082Y-78898343D01*
X113394511Y-78954912D01*
X113394498Y-78954919D01*
X113271584Y-79037048D01*
X113271580Y-79037051D01*
X113167051Y-79141580D01*
X113167048Y-79141584D01*
X113084919Y-79264498D01*
X113084912Y-79264511D01*
X113028343Y-79401082D01*
X113028340Y-79401092D01*
X112999500Y-79546079D01*
X112999500Y-79546082D01*
X112999500Y-79693918D01*
X112999500Y-79693920D01*
X112999499Y-79693920D01*
X111220500Y-79693920D01*
X111220500Y-79616079D01*
X111191659Y-79471092D01*
X111191658Y-79471091D01*
X111191658Y-79471087D01*
X111170225Y-79419342D01*
X111135087Y-79334511D01*
X111135080Y-79334498D01*
X111052951Y-79211584D01*
X111052948Y-79211580D01*
X110948419Y-79107051D01*
X110948415Y-79107048D01*
X110825501Y-79024919D01*
X110825488Y-79024912D01*
X110688917Y-78968343D01*
X110688907Y-78968340D01*
X110543920Y-78939500D01*
X110543918Y-78939500D01*
X110396082Y-78939500D01*
X110396080Y-78939500D01*
X110251092Y-78968340D01*
X110251082Y-78968343D01*
X110114511Y-79024912D01*
X110114498Y-79024919D01*
X109991584Y-79107048D01*
X109991580Y-79107051D01*
X109887051Y-79211580D01*
X109887048Y-79211584D01*
X109804919Y-79334498D01*
X109804912Y-79334511D01*
X109748343Y-79471082D01*
X109748340Y-79471092D01*
X109719500Y-79616079D01*
X109719500Y-79616082D01*
X109719500Y-79763918D01*
X109719500Y-79763920D01*
X109719499Y-79763920D01*
X104420500Y-79763920D01*
X104420500Y-79616079D01*
X104391659Y-79471092D01*
X104391658Y-79471091D01*
X104391658Y-79471087D01*
X104370225Y-79419342D01*
X104335087Y-79334511D01*
X104335080Y-79334498D01*
X104252951Y-79211584D01*
X104252948Y-79211580D01*
X104148419Y-79107051D01*
X104148415Y-79107048D01*
X104025501Y-79024919D01*
X104025488Y-79024912D01*
X103888917Y-78968343D01*
X103888907Y-78968340D01*
X103743920Y-78939500D01*
X103743918Y-78939500D01*
X103596082Y-78939500D01*
X103596080Y-78939500D01*
X103451092Y-78968340D01*
X103451082Y-78968343D01*
X103314511Y-79024912D01*
X103314498Y-79024919D01*
X103191584Y-79107048D01*
X103191580Y-79107051D01*
X103087051Y-79211580D01*
X103087048Y-79211584D01*
X103004919Y-79334498D01*
X103004912Y-79334511D01*
X102948343Y-79471082D01*
X102948340Y-79471092D01*
X102919500Y-79616079D01*
X102919500Y-79616082D01*
X102919500Y-79763918D01*
X102919500Y-79763920D01*
X102919499Y-79763920D01*
X101040500Y-79763920D01*
X101040500Y-79654332D01*
X101040500Y-79654329D01*
X101011659Y-79509342D01*
X101011658Y-79509341D01*
X101011658Y-79509337D01*
X101011656Y-79509332D01*
X100955087Y-79372761D01*
X100955080Y-79372748D01*
X100872951Y-79249834D01*
X100872948Y-79249830D01*
X100768419Y-79145301D01*
X100768415Y-79145298D01*
X100645501Y-79063169D01*
X100645488Y-79063162D01*
X100508917Y-79006593D01*
X100508907Y-79006590D01*
X100363920Y-78977750D01*
X100363918Y-78977750D01*
X100216082Y-78977750D01*
X100216080Y-78977750D01*
X100071092Y-79006590D01*
X100071082Y-79006593D01*
X99934511Y-79063162D01*
X99934498Y-79063169D01*
X99811584Y-79145298D01*
X99811580Y-79145301D01*
X99707051Y-79249830D01*
X99707048Y-79249834D01*
X99624919Y-79372748D01*
X99624912Y-79372761D01*
X99568343Y-79509332D01*
X99568340Y-79509342D01*
X99539500Y-79654329D01*
X99539500Y-79654332D01*
X99539500Y-79802168D01*
X99539500Y-79802170D01*
X99539499Y-79802170D01*
X94240500Y-79802170D01*
X94240500Y-79802168D01*
X94240500Y-79654332D01*
X94240500Y-79654329D01*
X94211659Y-79509342D01*
X94211658Y-79509341D01*
X94211658Y-79509337D01*
X94211656Y-79509332D01*
X94155087Y-79372761D01*
X94155080Y-79372748D01*
X94072951Y-79249834D01*
X94072948Y-79249830D01*
X93968419Y-79145301D01*
X93968415Y-79145298D01*
X93845501Y-79063169D01*
X93845488Y-79063162D01*
X93708917Y-79006593D01*
X93708907Y-79006590D01*
X93563920Y-78977750D01*
X93563918Y-78977750D01*
X93416082Y-78977750D01*
X93416080Y-78977750D01*
X93271092Y-79006590D01*
X93271082Y-79006593D01*
X93134511Y-79063162D01*
X93134498Y-79063169D01*
X93011584Y-79145298D01*
X93011580Y-79145301D01*
X92907051Y-79249830D01*
X92907048Y-79249834D01*
X92824919Y-79372748D01*
X92824912Y-79372761D01*
X92768343Y-79509332D01*
X92768340Y-79509342D01*
X92739500Y-79654329D01*
X92739500Y-79654332D01*
X92739500Y-79802168D01*
X92739500Y-79802170D01*
X92739499Y-79802170D01*
X92113707Y-79802170D01*
X92111375Y-79616079D01*
X92110510Y-79547054D01*
X92110500Y-79545500D01*
X92110500Y-75680385D01*
X95789500Y-75680385D01*
X95789500Y-78276120D01*
X95789501Y-78276126D01*
X95795908Y-78335733D01*
X95846202Y-78470578D01*
X95846206Y-78470585D01*
X95932452Y-78585794D01*
X95932455Y-78585797D01*
X96047664Y-78672043D01*
X96047671Y-78672047D01*
X96182517Y-78722341D01*
X96182516Y-78722341D01*
X96189444Y-78723085D01*
X96242127Y-78728750D01*
X97537872Y-78728749D01*
X97597483Y-78722341D01*
X97732331Y-78672046D01*
X97847546Y-78585796D01*
X97933796Y-78470581D01*
X97984091Y-78335733D01*
X97990500Y-78276123D01*
X97990499Y-77310870D01*
X98004587Y-77253466D01*
X98055589Y-77155813D01*
X98104071Y-77105505D01*
X98172058Y-77089394D01*
X98237963Y-77112596D01*
X98280861Y-77167746D01*
X98289500Y-77213220D01*
X98289500Y-78276120D01*
X98289501Y-78276126D01*
X98295908Y-78335733D01*
X98346202Y-78470578D01*
X98346206Y-78470585D01*
X98432452Y-78585794D01*
X98432455Y-78585797D01*
X98547664Y-78672043D01*
X98547671Y-78672047D01*
X98682517Y-78722341D01*
X98682516Y-78722341D01*
X98689444Y-78723085D01*
X98742127Y-78728750D01*
X100037872Y-78728749D01*
X100097483Y-78722341D01*
X100232331Y-78672046D01*
X100347546Y-78585796D01*
X100433796Y-78470581D01*
X100484091Y-78335733D01*
X100490500Y-78276123D01*
X100490499Y-75680378D01*
X100484091Y-75620767D01*
X100472759Y-75590385D01*
X100433797Y-75485921D01*
X100433793Y-75485914D01*
X100347547Y-75370705D01*
X100347544Y-75370702D01*
X100232335Y-75284456D01*
X100232328Y-75284452D01*
X100097482Y-75234158D01*
X100097483Y-75234158D01*
X100037883Y-75227751D01*
X100037881Y-75227750D01*
X100037873Y-75227750D01*
X100037865Y-75227750D01*
X99704781Y-75227750D01*
X99637742Y-75208065D01*
X99591987Y-75155261D01*
X99582043Y-75086103D01*
X99611068Y-75022547D01*
X99617100Y-75016069D01*
X101696351Y-72936819D01*
X101757674Y-72903334D01*
X101784032Y-72900500D01*
X107508542Y-72900500D01*
X107527870Y-72896655D01*
X107605188Y-72881275D01*
X107701836Y-72862051D01*
X107755165Y-72839961D01*
X107883914Y-72786632D01*
X108047782Y-72677139D01*
X108187139Y-72537782D01*
X108187139Y-72537780D01*
X108197347Y-72527573D01*
X108197348Y-72527570D01*
X109880942Y-70843977D01*
X109891465Y-70834590D01*
X109892316Y-70833914D01*
X109916531Y-70814669D01*
X110020637Y-70704353D01*
X110023070Y-70701849D01*
X110807140Y-69917781D01*
X110908536Y-69766029D01*
X110921450Y-69749822D01*
X110937919Y-69732371D01*
X110990887Y-69676245D01*
X111018522Y-69644122D01*
X111025030Y-69636558D01*
X111025040Y-69636566D01*
X111034248Y-69625647D01*
X111068495Y-69591401D01*
X111145491Y-69481438D01*
X111200067Y-69437815D01*
X111269565Y-69430621D01*
X111331920Y-69462144D01*
X111367334Y-69522373D01*
X111368478Y-69527366D01*
X111518015Y-70247916D01*
X111512364Y-70317557D01*
X111484283Y-70360794D01*
X106691897Y-75153181D01*
X106630574Y-75186666D01*
X106604217Y-75189500D01*
X106422130Y-75189500D01*
X106422123Y-75189501D01*
X106362516Y-75195908D01*
X106227671Y-75246202D01*
X106227664Y-75246206D01*
X106112455Y-75332452D01*
X106112452Y-75332455D01*
X106026206Y-75447664D01*
X106026202Y-75447671D01*
X105975908Y-75582517D01*
X105969501Y-75642116D01*
X105969501Y-75642123D01*
X105969500Y-75642135D01*
X105969500Y-78237870D01*
X105969501Y-78237876D01*
X105975908Y-78297483D01*
X106026202Y-78432328D01*
X106026206Y-78432335D01*
X106112452Y-78547544D01*
X106112455Y-78547547D01*
X106227664Y-78633793D01*
X106227671Y-78633797D01*
X106362517Y-78684091D01*
X106362516Y-78684091D01*
X106369444Y-78684835D01*
X106422127Y-78690500D01*
X107717872Y-78690499D01*
X107777483Y-78684091D01*
X107912331Y-78633796D01*
X108027546Y-78547546D01*
X108113796Y-78432331D01*
X108164091Y-78297483D01*
X108170500Y-78237873D01*
X108170499Y-77242698D01*
X108181829Y-77190916D01*
X108221084Y-77105505D01*
X108232830Y-77079946D01*
X108278712Y-77027254D01*
X108345798Y-77007730D01*
X108412790Y-77027576D01*
X108458418Y-77080490D01*
X108469500Y-77131730D01*
X108469500Y-78237870D01*
X108469501Y-78237876D01*
X108475908Y-78297483D01*
X108526202Y-78432328D01*
X108526206Y-78432335D01*
X108612452Y-78547544D01*
X108612455Y-78547547D01*
X108727664Y-78633793D01*
X108727671Y-78633797D01*
X108862517Y-78684091D01*
X108862516Y-78684091D01*
X108869444Y-78684835D01*
X108922127Y-78690500D01*
X110217872Y-78690499D01*
X110277483Y-78684091D01*
X110412331Y-78633796D01*
X110527546Y-78547546D01*
X110613796Y-78432331D01*
X110664091Y-78297483D01*
X110670500Y-78237873D01*
X110670499Y-75642128D01*
X110664936Y-75590377D01*
X110664091Y-75582516D01*
X110613797Y-75447671D01*
X110613793Y-75447664D01*
X110527547Y-75332455D01*
X110527544Y-75332452D01*
X110412335Y-75246206D01*
X110412328Y-75246202D01*
X110277482Y-75195908D01*
X110277483Y-75195908D01*
X110217883Y-75189501D01*
X110217881Y-75189500D01*
X110217873Y-75189500D01*
X110217865Y-75189500D01*
X109784781Y-75189500D01*
X109717742Y-75169815D01*
X109671987Y-75117011D01*
X109662043Y-75047853D01*
X109691068Y-74984297D01*
X109697100Y-74977819D01*
X110476819Y-74198101D01*
X113347140Y-71327781D01*
X113456632Y-71163914D01*
X113532052Y-70981835D01*
X113570501Y-70788540D01*
X113570501Y-70591459D01*
X113570501Y-70586349D01*
X113570500Y-70586323D01*
X113570500Y-70508726D01*
X113573087Y-70483529D01*
X113607531Y-70317557D01*
X113718586Y-69782429D01*
X113751482Y-69720790D01*
X113812482Y-69686720D01*
X113882218Y-69691037D01*
X113938550Y-69732371D01*
X113961412Y-69782431D01*
X114025281Y-70090183D01*
X114101554Y-70457710D01*
X114106913Y-70483530D01*
X114109500Y-70508726D01*
X114109500Y-71878541D01*
X114109500Y-71878543D01*
X114109499Y-71878543D01*
X114147947Y-72071829D01*
X114147950Y-72071839D01*
X114223364Y-72253907D01*
X114223371Y-72253920D01*
X114332859Y-72417780D01*
X114332860Y-72417781D01*
X114332861Y-72417782D01*
X114472218Y-72557139D01*
X114472219Y-72557139D01*
X114479286Y-72564206D01*
X114479285Y-72564206D01*
X114479289Y-72564209D01*
X116113181Y-74198101D01*
X116146666Y-74259424D01*
X116149500Y-74285782D01*
X116149500Y-74937897D01*
X116147813Y-74958282D01*
X116051984Y-75533253D01*
X116050376Y-75543551D01*
X116050352Y-75557766D01*
X116049643Y-75570793D01*
X116049500Y-75572117D01*
X116049500Y-78167870D01*
X116049501Y-78167876D01*
X116055908Y-78227483D01*
X116106202Y-78362328D01*
X116106206Y-78362335D01*
X116192452Y-78477544D01*
X116192455Y-78477547D01*
X116307664Y-78563793D01*
X116307671Y-78563797D01*
X116442517Y-78614091D01*
X116442516Y-78614091D01*
X116449444Y-78614835D01*
X116502127Y-78620500D01*
X117797872Y-78620499D01*
X117857483Y-78614091D01*
X117992331Y-78563796D01*
X118107546Y-78477546D01*
X118193796Y-78362331D01*
X118244091Y-78227483D01*
X118250500Y-78167873D01*
X118250499Y-75690759D01*
X118251083Y-75681838D01*
X118250971Y-75681832D01*
X118251226Y-75677111D01*
X118251229Y-75677093D01*
X118250530Y-75645818D01*
X118250499Y-75643048D01*
X118250499Y-75572135D01*
X118549500Y-75572135D01*
X118549500Y-78167870D01*
X118549501Y-78167876D01*
X118555908Y-78227483D01*
X118606202Y-78362328D01*
X118606206Y-78362335D01*
X118692452Y-78477544D01*
X118692455Y-78477547D01*
X118807664Y-78563793D01*
X118807671Y-78563797D01*
X118942517Y-78614091D01*
X118942516Y-78614091D01*
X118949444Y-78614835D01*
X119002127Y-78620500D01*
X120297872Y-78620499D01*
X120357483Y-78614091D01*
X120492331Y-78563796D01*
X120607546Y-78477546D01*
X120693796Y-78362331D01*
X120744091Y-78227483D01*
X120750500Y-78167873D01*
X120750499Y-75572128D01*
X120744091Y-75512517D01*
X120734171Y-75485921D01*
X120693797Y-75377671D01*
X120693793Y-75377664D01*
X120607547Y-75262455D01*
X120607544Y-75262452D01*
X120492335Y-75176206D01*
X120492328Y-75176202D01*
X120357482Y-75125908D01*
X120357483Y-75125908D01*
X120297883Y-75119501D01*
X120297881Y-75119500D01*
X120297873Y-75119500D01*
X120297864Y-75119500D01*
X119002129Y-75119500D01*
X119002123Y-75119501D01*
X118942516Y-75125908D01*
X118807671Y-75176202D01*
X118807664Y-75176206D01*
X118692455Y-75262452D01*
X118692452Y-75262455D01*
X118606206Y-75377664D01*
X118606202Y-75377671D01*
X118555908Y-75512517D01*
X118550341Y-75564302D01*
X118549501Y-75572123D01*
X118549500Y-75572135D01*
X118250499Y-75572135D01*
X118250499Y-75572128D01*
X118249018Y-75558360D01*
X118248340Y-75547898D01*
X118248014Y-75533249D01*
X118152187Y-74958282D01*
X118150500Y-74937899D01*
X118150500Y-73721456D01*
X118128583Y-73611275D01*
X118124759Y-73592051D01*
X118124759Y-73592050D01*
X118124759Y-73592048D01*
X118112053Y-73528172D01*
X118112052Y-73528165D01*
X118036632Y-73346086D01*
X118036631Y-73346085D01*
X118036628Y-73346079D01*
X117927140Y-73182219D01*
X117927137Y-73182215D01*
X116146819Y-71401897D01*
X116113334Y-71340574D01*
X116110500Y-71314216D01*
X116110500Y-70508726D01*
X116113087Y-70483529D01*
X116147531Y-70317557D01*
X116276901Y-69694178D01*
X116309796Y-69632541D01*
X116370796Y-69598471D01*
X116440532Y-69602788D01*
X116496864Y-69644122D01*
X116517808Y-69686257D01*
X116644995Y-70145113D01*
X116649500Y-70178235D01*
X116649500Y-70458541D01*
X116649500Y-70458543D01*
X116649499Y-70458543D01*
X116687947Y-70651829D01*
X116687950Y-70651839D01*
X116763364Y-70833907D01*
X116763371Y-70833920D01*
X116872860Y-70997781D01*
X116872863Y-70997785D01*
X117016537Y-71141459D01*
X117016559Y-71141479D01*
X119139735Y-73264655D01*
X119139764Y-73264686D01*
X119282214Y-73407136D01*
X119282218Y-73407139D01*
X119446079Y-73516628D01*
X119446092Y-73516635D01*
X119574833Y-73569961D01*
X119617744Y-73587735D01*
X119628164Y-73592051D01*
X119724812Y-73611275D01*
X119773135Y-73620887D01*
X119821458Y-73630500D01*
X119821459Y-73630500D01*
X119821460Y-73630500D01*
X120018540Y-73630500D01*
X123125968Y-73630500D01*
X123193007Y-73650185D01*
X123213649Y-73666819D01*
X125388803Y-75841973D01*
X125411034Y-75872249D01*
X125939407Y-76883915D01*
X125939407Y-76883916D01*
X126055138Y-77105505D01*
X126085412Y-77163469D01*
X126099500Y-77220874D01*
X126099500Y-78186120D01*
X126099501Y-78186126D01*
X126105908Y-78245733D01*
X126156202Y-78380578D01*
X126156206Y-78380585D01*
X126242452Y-78495794D01*
X126242455Y-78495797D01*
X126357664Y-78582043D01*
X126357671Y-78582047D01*
X126492517Y-78632341D01*
X126492516Y-78632341D01*
X126499444Y-78633085D01*
X126552127Y-78638750D01*
X127847872Y-78638749D01*
X127907483Y-78632341D01*
X128042331Y-78582046D01*
X128157546Y-78495796D01*
X128243796Y-78380581D01*
X128294091Y-78245733D01*
X128300500Y-78186123D01*
X128300499Y-75590385D01*
X128599500Y-75590385D01*
X128599500Y-78186120D01*
X128599501Y-78186126D01*
X128605908Y-78245733D01*
X128656202Y-78380578D01*
X128656206Y-78380585D01*
X128742452Y-78495794D01*
X128742455Y-78495797D01*
X128857664Y-78582043D01*
X128857671Y-78582047D01*
X128992517Y-78632341D01*
X128992516Y-78632341D01*
X128999444Y-78633085D01*
X129052127Y-78638750D01*
X130347872Y-78638749D01*
X130407483Y-78632341D01*
X130542331Y-78582046D01*
X130657546Y-78495796D01*
X130743796Y-78380581D01*
X130794091Y-78245733D01*
X130800500Y-78186123D01*
X130800499Y-75590378D01*
X130794091Y-75530767D01*
X130787284Y-75512517D01*
X130743797Y-75395921D01*
X130743793Y-75395914D01*
X130657547Y-75280705D01*
X130657544Y-75280702D01*
X130542335Y-75194456D01*
X130542328Y-75194452D01*
X130407482Y-75144158D01*
X130407483Y-75144158D01*
X130347883Y-75137751D01*
X130347881Y-75137750D01*
X130347873Y-75137750D01*
X130347864Y-75137750D01*
X129052129Y-75137750D01*
X129052123Y-75137751D01*
X128992516Y-75144158D01*
X128857671Y-75194452D01*
X128857664Y-75194456D01*
X128742455Y-75280702D01*
X128742452Y-75280705D01*
X128656206Y-75395914D01*
X128656202Y-75395921D01*
X128605908Y-75530767D01*
X128601461Y-75572135D01*
X128599501Y-75590373D01*
X128599500Y-75590385D01*
X128300499Y-75590385D01*
X128300499Y-75590378D01*
X128294091Y-75530767D01*
X128287284Y-75512517D01*
X128243797Y-75395921D01*
X128243793Y-75395914D01*
X128157547Y-75280705D01*
X128157544Y-75280702D01*
X128042335Y-75194456D01*
X128042328Y-75194452D01*
X127907482Y-75144158D01*
X127907483Y-75144158D01*
X127847883Y-75137751D01*
X127847881Y-75137750D01*
X127847873Y-75137750D01*
X127847865Y-75137750D01*
X127565782Y-75137750D01*
X127498743Y-75118065D01*
X127478101Y-75101431D01*
X126937394Y-74560724D01*
X126929813Y-74552423D01*
X126915881Y-74535703D01*
X126914945Y-74534646D01*
X126853692Y-74476174D01*
X126849236Y-74471920D01*
X126844183Y-74467513D01*
X124373229Y-71996559D01*
X124373209Y-71996537D01*
X124229535Y-71852863D01*
X124229531Y-71852860D01*
X124065670Y-71743371D01*
X124065657Y-71743364D01*
X123916205Y-71681460D01*
X123916204Y-71681460D01*
X123883586Y-71667949D01*
X123883578Y-71667947D01*
X123786938Y-71648724D01*
X123690294Y-71629500D01*
X123690291Y-71629500D01*
X120385782Y-71629500D01*
X120318743Y-71609815D01*
X120298101Y-71593181D01*
X118691631Y-69986711D01*
X118658146Y-69925388D01*
X118663130Y-69855696D01*
X118663656Y-69854312D01*
X118819223Y-69453291D01*
X118861819Y-69397912D01*
X118927596Y-69374352D01*
X118995670Y-69390094D01*
X119036401Y-69427016D01*
X119151505Y-69591401D01*
X119318599Y-69758495D01*
X119413308Y-69824811D01*
X119512165Y-69894032D01*
X119512167Y-69894033D01*
X119512170Y-69894035D01*
X119726337Y-69993903D01*
X119954592Y-70055063D01*
X120131034Y-70070500D01*
X120189999Y-70075659D01*
X120190000Y-70075659D01*
X120190001Y-70075659D01*
X120248966Y-70070500D01*
X120425408Y-70055063D01*
X120653663Y-69993903D01*
X120867830Y-69894035D01*
X121061401Y-69758495D01*
X121228495Y-69591401D01*
X121358425Y-69405842D01*
X121413002Y-69362217D01*
X121482500Y-69355023D01*
X121544855Y-69386546D01*
X121561575Y-69405842D01*
X121691500Y-69591395D01*
X121691505Y-69591401D01*
X121858599Y-69758495D01*
X121953308Y-69824811D01*
X122052165Y-69894032D01*
X122052167Y-69894033D01*
X122052170Y-69894035D01*
X122266337Y-69993903D01*
X122494592Y-70055063D01*
X122671034Y-70070500D01*
X122729999Y-70075659D01*
X122730000Y-70075659D01*
X122730001Y-70075659D01*
X122788966Y-70070500D01*
X122965408Y-70055063D01*
X123193663Y-69993903D01*
X123407830Y-69894035D01*
X123601401Y-69758495D01*
X123768495Y-69591401D01*
X123904035Y-69397830D01*
X124003903Y-69183663D01*
X124015607Y-69139983D01*
X126864500Y-69139983D01*
X126864500Y-69915001D01*
X126864501Y-69915019D01*
X126875000Y-70017796D01*
X126875001Y-70017799D01*
X126898987Y-70090183D01*
X126930186Y-70184334D01*
X127022288Y-70333656D01*
X127146344Y-70457712D01*
X127295666Y-70549814D01*
X127462203Y-70604999D01*
X127564991Y-70615500D01*
X128615008Y-70615499D01*
X128615016Y-70615498D01*
X128615019Y-70615498D01*
X128671302Y-70609748D01*
X128717797Y-70604999D01*
X128884334Y-70549814D01*
X129033656Y-70457712D01*
X129157712Y-70333656D01*
X129249814Y-70184334D01*
X129304999Y-70017797D01*
X129315500Y-69915009D01*
X129315499Y-69139992D01*
X129304999Y-69037203D01*
X129249814Y-68870666D01*
X129157712Y-68721344D01*
X129033656Y-68597288D01*
X128884334Y-68505186D01*
X128717797Y-68450001D01*
X128717795Y-68450000D01*
X128615010Y-68439500D01*
X127564998Y-68439500D01*
X127564980Y-68439501D01*
X127462203Y-68450000D01*
X127462200Y-68450001D01*
X127295668Y-68505185D01*
X127295663Y-68505187D01*
X127146342Y-68597289D01*
X127022289Y-68721342D01*
X126930187Y-68870663D01*
X126930186Y-68870666D01*
X126875001Y-69037203D01*
X126875001Y-69037204D01*
X126875000Y-69037204D01*
X126864500Y-69139983D01*
X124015607Y-69139983D01*
X124065063Y-68955408D01*
X124085659Y-68720000D01*
X124065063Y-68484592D01*
X124003903Y-68256337D01*
X123904035Y-68042171D01*
X123898425Y-68034158D01*
X123768494Y-67848597D01*
X123601402Y-67681506D01*
X123601395Y-67681501D01*
X123407834Y-67545967D01*
X123407830Y-67545965D01*
X123407828Y-67545964D01*
X123193663Y-67446097D01*
X123193659Y-67446096D01*
X123193655Y-67446094D01*
X122965413Y-67384938D01*
X122965403Y-67384936D01*
X122730001Y-67364341D01*
X122729999Y-67364341D01*
X122494596Y-67384936D01*
X122494586Y-67384938D01*
X122266344Y-67446094D01*
X122266335Y-67446098D01*
X122052171Y-67545964D01*
X122052169Y-67545965D01*
X121858597Y-67681505D01*
X121691504Y-67848598D01*
X121614507Y-67958561D01*
X121559930Y-68002186D01*
X121490432Y-68009378D01*
X121428077Y-67977856D01*
X121392664Y-67917625D01*
X121391528Y-67912671D01*
X121193087Y-66956469D01*
X121190500Y-66931272D01*
X121190500Y-66381456D01*
X121152052Y-66188170D01*
X121152051Y-66188169D01*
X121152051Y-66188165D01*
X121152049Y-66188160D01*
X121076635Y-66006092D01*
X121076628Y-66006079D01*
X120967139Y-65842218D01*
X120967136Y-65842214D01*
X120824686Y-65699764D01*
X120824655Y-65699735D01*
X118786819Y-63661899D01*
X118753334Y-63600576D01*
X118750500Y-63574218D01*
X118750500Y-62613849D01*
X118752187Y-62593464D01*
X118788506Y-62375547D01*
X118848014Y-62018500D01*
X118849625Y-62008180D01*
X118849648Y-61993985D01*
X118850361Y-61980914D01*
X118850500Y-61979623D01*
X118850499Y-60653713D01*
X126319500Y-60653713D01*
X126319500Y-60866286D01*
X126352753Y-61076239D01*
X126418444Y-61278414D01*
X126514951Y-61467820D01*
X126639890Y-61639786D01*
X126790213Y-61790109D01*
X126962179Y-61915048D01*
X126962181Y-61915049D01*
X126962184Y-61915051D01*
X127151588Y-62011557D01*
X127353757Y-62077246D01*
X127563713Y-62110500D01*
X127563714Y-62110500D01*
X127776286Y-62110500D01*
X127776287Y-62110500D01*
X127986243Y-62077246D01*
X128188412Y-62011557D01*
X128377816Y-61915051D01*
X128399789Y-61899086D01*
X128549786Y-61790109D01*
X128549788Y-61790106D01*
X128549792Y-61790104D01*
X128700104Y-61639792D01*
X128700106Y-61639788D01*
X128700109Y-61639786D01*
X128825048Y-61467820D01*
X128825047Y-61467820D01*
X128825051Y-61467816D01*
X128921557Y-61278412D01*
X128987246Y-61076243D01*
X129020500Y-60866287D01*
X129020500Y-60653713D01*
X128987246Y-60443757D01*
X128921557Y-60241588D01*
X128825051Y-60052184D01*
X128825049Y-60052181D01*
X128825048Y-60052179D01*
X128700109Y-59880213D01*
X128549786Y-59729890D01*
X128377820Y-59604951D01*
X128188414Y-59508444D01*
X128188413Y-59508443D01*
X128188412Y-59508443D01*
X127986243Y-59442754D01*
X127986241Y-59442753D01*
X127986240Y-59442753D01*
X127824957Y-59417208D01*
X127776287Y-59409500D01*
X127563713Y-59409500D01*
X127515042Y-59417208D01*
X127353760Y-59442753D01*
X127151585Y-59508444D01*
X126962179Y-59604951D01*
X126790213Y-59729890D01*
X126639890Y-59880213D01*
X126514951Y-60052179D01*
X126418444Y-60241585D01*
X126418443Y-60241587D01*
X126418443Y-60241588D01*
X126385598Y-60342672D01*
X126352753Y-60443760D01*
X126319500Y-60653713D01*
X118850499Y-60653713D01*
X118850499Y-59383878D01*
X118844091Y-59324267D01*
X118793796Y-59189419D01*
X118793795Y-59189418D01*
X118793793Y-59189414D01*
X118707547Y-59074205D01*
X118707544Y-59074202D01*
X118592335Y-58987956D01*
X118592328Y-58987952D01*
X118457482Y-58937658D01*
X118457483Y-58937658D01*
X118397883Y-58931251D01*
X118397881Y-58931250D01*
X118397873Y-58931250D01*
X118397864Y-58931250D01*
X117102129Y-58931250D01*
X117102123Y-58931251D01*
X117042516Y-58937658D01*
X116907671Y-58987952D01*
X116907664Y-58987956D01*
X116792455Y-59074202D01*
X116792452Y-59074205D01*
X116706206Y-59189414D01*
X116706202Y-59189421D01*
X116655908Y-59324267D01*
X116649501Y-59383866D01*
X116649501Y-59383873D01*
X116649500Y-59383885D01*
X116649500Y-61860987D01*
X116648916Y-61869915D01*
X116649026Y-61869921D01*
X116648769Y-61874649D01*
X116649469Y-61905969D01*
X116649500Y-61908735D01*
X116649500Y-61979618D01*
X116649501Y-61979634D01*
X116650978Y-61993370D01*
X116651657Y-62003845D01*
X116651984Y-62018493D01*
X116651985Y-62018502D01*
X116747813Y-62593466D01*
X116749500Y-62613849D01*
X116749500Y-64138541D01*
X116749500Y-64138543D01*
X116749499Y-64138543D01*
X116787947Y-64331829D01*
X116787950Y-64331839D01*
X116863364Y-64513907D01*
X116863371Y-64513920D01*
X116972860Y-64677781D01*
X116972863Y-64677785D01*
X117116537Y-64821459D01*
X117116559Y-64821479D01*
X119150686Y-66855606D01*
X119184171Y-66916929D01*
X119184418Y-66968484D01*
X118988478Y-67912633D01*
X118955582Y-67974274D01*
X118894582Y-68008344D01*
X118824846Y-68004027D01*
X118768514Y-67962693D01*
X118765490Y-67958559D01*
X118688494Y-67848597D01*
X118521402Y-67681506D01*
X118521395Y-67681501D01*
X118327834Y-67545967D01*
X118327830Y-67545965D01*
X118327828Y-67545964D01*
X118113663Y-67446097D01*
X118113659Y-67446096D01*
X118113655Y-67446094D01*
X117885413Y-67384938D01*
X117885403Y-67384936D01*
X117650001Y-67364341D01*
X117649999Y-67364341D01*
X117414596Y-67384936D01*
X117414586Y-67384938D01*
X117186344Y-67446094D01*
X117186335Y-67446098D01*
X116972171Y-67545964D01*
X116972169Y-67545965D01*
X116778597Y-67681505D01*
X116611505Y-67848597D01*
X116481575Y-68034158D01*
X116426998Y-68077783D01*
X116357500Y-68084977D01*
X116295145Y-68053454D01*
X116278425Y-68034158D01*
X116148494Y-67848597D01*
X115981402Y-67681506D01*
X115981395Y-67681501D01*
X115787834Y-67545967D01*
X115787830Y-67545965D01*
X115787828Y-67545964D01*
X115573663Y-67446097D01*
X115573659Y-67446096D01*
X115573655Y-67446094D01*
X115345413Y-67384938D01*
X115345403Y-67384936D01*
X115110001Y-67364341D01*
X115109999Y-67364341D01*
X114874596Y-67384936D01*
X114874586Y-67384938D01*
X114646344Y-67446094D01*
X114646335Y-67446098D01*
X114432171Y-67545964D01*
X114432169Y-67545965D01*
X114238597Y-67681505D01*
X114071505Y-67848597D01*
X113941575Y-68034158D01*
X113886998Y-68077783D01*
X113817500Y-68084977D01*
X113755145Y-68053454D01*
X113738425Y-68034158D01*
X113608494Y-67848597D01*
X113441402Y-67681506D01*
X113441395Y-67681501D01*
X113247834Y-67545967D01*
X113247830Y-67545965D01*
X113247828Y-67545964D01*
X113033663Y-67446097D01*
X113033659Y-67446096D01*
X113033655Y-67446094D01*
X112805413Y-67384938D01*
X112805403Y-67384936D01*
X112570001Y-67364341D01*
X112569999Y-67364341D01*
X112334596Y-67384936D01*
X112334586Y-67384938D01*
X112106344Y-67446094D01*
X112106335Y-67446098D01*
X111892171Y-67545964D01*
X111892169Y-67545965D01*
X111698597Y-67681505D01*
X111531505Y-67848597D01*
X111401575Y-68034158D01*
X111346998Y-68077783D01*
X111277500Y-68084977D01*
X111215145Y-68053454D01*
X111198425Y-68034158D01*
X111068494Y-67848597D01*
X110901402Y-67681506D01*
X110901395Y-67681501D01*
X110707834Y-67545967D01*
X110707830Y-67545965D01*
X110707828Y-67545964D01*
X110493663Y-67446097D01*
X110493659Y-67446096D01*
X110493655Y-67446094D01*
X110265413Y-67384938D01*
X110265403Y-67384936D01*
X110030001Y-67364341D01*
X110029999Y-67364341D01*
X109794596Y-67384936D01*
X109794586Y-67384938D01*
X109566344Y-67446094D01*
X109566335Y-67446098D01*
X109352171Y-67545964D01*
X109352169Y-67545965D01*
X109158600Y-67681503D01*
X109036673Y-67803430D01*
X108975350Y-67836914D01*
X108905658Y-67831930D01*
X108849725Y-67790058D01*
X108832810Y-67759081D01*
X108783797Y-67627671D01*
X108783793Y-67627664D01*
X108697547Y-67512455D01*
X108697544Y-67512452D01*
X108582335Y-67426206D01*
X108582328Y-67426202D01*
X108447482Y-67375908D01*
X108447483Y-67375908D01*
X108387883Y-67369501D01*
X108387881Y-67369500D01*
X108387873Y-67369500D01*
X108387865Y-67369500D01*
X106679341Y-67369500D01*
X106662788Y-67368045D01*
X106662775Y-67368176D01*
X106658373Y-67367716D01*
X106649433Y-67367425D01*
X106649414Y-67367425D01*
X106595334Y-67368557D01*
X106593533Y-67368773D01*
X106583259Y-67370454D01*
X106532516Y-67375908D01*
X106497842Y-67388840D01*
X106481250Y-67393739D01*
X106454845Y-67399569D01*
X105705838Y-67681549D01*
X105662149Y-67689500D01*
X100490520Y-67689500D01*
X100471815Y-67688081D01*
X99995785Y-67615441D01*
X99949394Y-67598399D01*
X99879334Y-67555186D01*
X99712797Y-67500001D01*
X99712795Y-67500000D01*
X99610010Y-67489500D01*
X98809998Y-67489500D01*
X98809980Y-67489501D01*
X98707203Y-67500000D01*
X98707200Y-67500001D01*
X98540668Y-67555185D01*
X98540663Y-67555187D01*
X98391342Y-67647289D01*
X98267289Y-67771342D01*
X98175187Y-67920663D01*
X98175185Y-67920668D01*
X98157422Y-67974274D01*
X98120001Y-68087203D01*
X98120001Y-68087204D01*
X98120000Y-68087204D01*
X98109500Y-68189983D01*
X98109500Y-69190001D01*
X98109501Y-69190019D01*
X98120000Y-69292796D01*
X98120001Y-69292799D01*
X98157460Y-69405842D01*
X98175186Y-69459334D01*
X98267288Y-69608656D01*
X98391344Y-69732712D01*
X98540666Y-69824814D01*
X98707203Y-69879999D01*
X98809991Y-69890500D01*
X99610008Y-69890499D01*
X99610016Y-69890498D01*
X99610019Y-69890498D01*
X99666302Y-69884748D01*
X99712797Y-69879999D01*
X99879334Y-69824814D01*
X99949396Y-69781598D01*
X99995785Y-69764557D01*
X100471817Y-69691918D01*
X100490519Y-69690500D01*
X105648878Y-69690500D01*
X105697818Y-69700566D01*
X106344609Y-69978399D01*
X106369974Y-69993063D01*
X106371096Y-69993903D01*
X106397669Y-70013796D01*
X106397670Y-70013797D01*
X106532517Y-70064091D01*
X106532516Y-70064091D01*
X106539444Y-70064835D01*
X106592127Y-70070500D01*
X107525218Y-70070499D01*
X107592257Y-70090183D01*
X107638012Y-70142987D01*
X107647956Y-70212146D01*
X107618931Y-70275702D01*
X107612899Y-70282180D01*
X107031899Y-70863181D01*
X106970576Y-70896666D01*
X106944218Y-70899500D01*
X101219705Y-70899500D01*
X101123062Y-70918724D01*
X101026417Y-70937947D01*
X101026411Y-70937949D01*
X100973084Y-70960037D01*
X100973084Y-70960038D01*
X100927565Y-70978892D01*
X100844339Y-71013366D01*
X100844329Y-71013371D01*
X100680469Y-71122859D01*
X100639418Y-71163911D01*
X100541111Y-71262218D01*
X100541108Y-71262221D01*
X96611897Y-75191431D01*
X96550574Y-75224916D01*
X96524216Y-75227750D01*
X96242130Y-75227750D01*
X96242123Y-75227751D01*
X96182516Y-75234158D01*
X96047671Y-75284452D01*
X96047664Y-75284456D01*
X95932455Y-75370702D01*
X95932452Y-75370705D01*
X95846206Y-75485914D01*
X95846202Y-75485921D01*
X95795908Y-75620767D01*
X95789854Y-75677085D01*
X95789501Y-75680373D01*
X95789500Y-75680385D01*
X92110500Y-75680385D01*
X92110500Y-60113713D01*
X95139500Y-60113713D01*
X95139500Y-60326286D01*
X95158105Y-60443757D01*
X95172754Y-60536243D01*
X95210922Y-60653713D01*
X95238444Y-60738414D01*
X95334951Y-60927820D01*
X95459890Y-61099786D01*
X95610213Y-61250109D01*
X95782179Y-61375048D01*
X95782181Y-61375049D01*
X95782184Y-61375051D01*
X95971588Y-61471557D01*
X96173757Y-61537246D01*
X96383713Y-61570500D01*
X96383714Y-61570500D01*
X96596286Y-61570500D01*
X96596287Y-61570500D01*
X96806243Y-61537246D01*
X97008412Y-61471557D01*
X97197816Y-61375051D01*
X97219789Y-61359086D01*
X97369786Y-61250109D01*
X97369788Y-61250106D01*
X97369792Y-61250104D01*
X97520104Y-61099792D01*
X97520106Y-61099788D01*
X97520109Y-61099786D01*
X97645048Y-60927820D01*
X97645047Y-60927820D01*
X97645051Y-60927816D01*
X97741557Y-60738412D01*
X97807246Y-60536243D01*
X97840500Y-60326287D01*
X97840500Y-60113713D01*
X97807246Y-59903757D01*
X97741557Y-59701588D01*
X97645051Y-59512184D01*
X97645049Y-59512181D01*
X97645048Y-59512179D01*
X97551838Y-59383885D01*
X114149500Y-59383885D01*
X114149500Y-61979620D01*
X114149501Y-61979626D01*
X114155908Y-62039233D01*
X114206202Y-62174078D01*
X114206206Y-62174085D01*
X114292452Y-62289294D01*
X114292455Y-62289297D01*
X114407664Y-62375543D01*
X114407671Y-62375547D01*
X114542517Y-62425841D01*
X114542516Y-62425841D01*
X114549444Y-62426585D01*
X114602127Y-62432250D01*
X115897872Y-62432249D01*
X115957483Y-62425841D01*
X116092331Y-62375546D01*
X116207546Y-62289296D01*
X116293796Y-62174081D01*
X116344091Y-62039233D01*
X116350500Y-61979623D01*
X116350499Y-59383878D01*
X116344091Y-59324267D01*
X116293796Y-59189419D01*
X116293795Y-59189418D01*
X116293793Y-59189414D01*
X116207547Y-59074205D01*
X116207544Y-59074202D01*
X116092335Y-58987956D01*
X116092328Y-58987952D01*
X115957482Y-58937658D01*
X115957483Y-58937658D01*
X115897883Y-58931251D01*
X115897881Y-58931250D01*
X115897873Y-58931250D01*
X115897864Y-58931250D01*
X114602129Y-58931250D01*
X114602123Y-58931251D01*
X114542516Y-58937658D01*
X114407671Y-58987952D01*
X114407664Y-58987956D01*
X114292455Y-59074202D01*
X114292452Y-59074205D01*
X114206206Y-59189414D01*
X114206202Y-59189421D01*
X114155908Y-59324267D01*
X114149501Y-59383866D01*
X114149501Y-59383873D01*
X114149500Y-59383885D01*
X97551838Y-59383885D01*
X97520109Y-59340213D01*
X97369786Y-59189890D01*
X97197820Y-59064951D01*
X97008414Y-58968444D01*
X97008413Y-58968443D01*
X97008412Y-58968443D01*
X96806243Y-58902754D01*
X96806241Y-58902753D01*
X96806240Y-58902753D01*
X96644957Y-58877208D01*
X96596287Y-58869500D01*
X96383713Y-58869500D01*
X96335042Y-58877208D01*
X96173760Y-58902753D01*
X95971585Y-58968444D01*
X95782179Y-59064951D01*
X95610213Y-59189890D01*
X95459890Y-59340213D01*
X95334951Y-59512179D01*
X95238444Y-59701585D01*
X95172753Y-59903760D01*
X95139500Y-60113713D01*
X92110500Y-60113713D01*
X92110500Y-58005670D01*
X113599499Y-58005670D01*
X113628340Y-58150657D01*
X113628343Y-58150667D01*
X113684912Y-58287238D01*
X113684919Y-58287251D01*
X113767048Y-58410165D01*
X113767051Y-58410169D01*
X113871580Y-58514698D01*
X113871584Y-58514701D01*
X113994498Y-58596830D01*
X113994511Y-58596837D01*
X114131082Y-58653406D01*
X114131087Y-58653408D01*
X114131091Y-58653408D01*
X114131092Y-58653409D01*
X114276079Y-58682250D01*
X114276082Y-58682250D01*
X114423920Y-58682250D01*
X114521462Y-58662846D01*
X114568913Y-58653408D01*
X114705495Y-58596834D01*
X114828416Y-58514701D01*
X114932951Y-58410166D01*
X115015084Y-58287245D01*
X115071658Y-58150663D01*
X115100500Y-58005670D01*
X120399499Y-58005670D01*
X120428340Y-58150657D01*
X120428343Y-58150667D01*
X120484912Y-58287238D01*
X120484919Y-58287251D01*
X120567048Y-58410165D01*
X120567051Y-58410169D01*
X120671580Y-58514698D01*
X120671584Y-58514701D01*
X120794498Y-58596830D01*
X120794511Y-58596837D01*
X120931082Y-58653406D01*
X120931087Y-58653408D01*
X120931091Y-58653408D01*
X120931092Y-58653409D01*
X121076079Y-58682250D01*
X121076082Y-58682250D01*
X121223920Y-58682250D01*
X121321462Y-58662846D01*
X121368913Y-58653408D01*
X121505495Y-58596834D01*
X121628416Y-58514701D01*
X121732951Y-58410166D01*
X121815084Y-58287245D01*
X121871658Y-58150663D01*
X121900500Y-58005668D01*
X121900500Y-57857832D01*
X121900500Y-57857829D01*
X121871659Y-57712842D01*
X121871658Y-57712841D01*
X121871658Y-57712837D01*
X121871656Y-57712832D01*
X121815087Y-57576261D01*
X121815080Y-57576248D01*
X121732951Y-57453334D01*
X121732948Y-57453330D01*
X121628419Y-57348801D01*
X121628415Y-57348798D01*
X121505501Y-57266669D01*
X121505488Y-57266662D01*
X121368917Y-57210093D01*
X121368907Y-57210090D01*
X121223920Y-57181250D01*
X121223918Y-57181250D01*
X121076082Y-57181250D01*
X121076080Y-57181250D01*
X120931092Y-57210090D01*
X120931082Y-57210093D01*
X120794511Y-57266662D01*
X120794498Y-57266669D01*
X120671584Y-57348798D01*
X120671580Y-57348801D01*
X120567051Y-57453330D01*
X120567048Y-57453334D01*
X120484919Y-57576248D01*
X120484912Y-57576261D01*
X120428343Y-57712832D01*
X120428340Y-57712842D01*
X120399500Y-57857829D01*
X120399500Y-57857832D01*
X120399500Y-58005668D01*
X120399500Y-58005670D01*
X120399499Y-58005670D01*
X115100500Y-58005670D01*
X115100500Y-58005668D01*
X115100500Y-57857832D01*
X115100500Y-57857829D01*
X115071659Y-57712842D01*
X115071658Y-57712841D01*
X115071658Y-57712837D01*
X115071656Y-57712832D01*
X115015087Y-57576261D01*
X115015080Y-57576248D01*
X114932951Y-57453334D01*
X114932948Y-57453330D01*
X114828419Y-57348801D01*
X114828415Y-57348798D01*
X114705501Y-57266669D01*
X114705488Y-57266662D01*
X114568917Y-57210093D01*
X114568907Y-57210090D01*
X114423920Y-57181250D01*
X114423918Y-57181250D01*
X114276082Y-57181250D01*
X114276080Y-57181250D01*
X114131092Y-57210090D01*
X114131082Y-57210093D01*
X113994511Y-57266662D01*
X113994498Y-57266669D01*
X113871584Y-57348798D01*
X113871580Y-57348801D01*
X113767051Y-57453330D01*
X113767048Y-57453334D01*
X113684919Y-57576248D01*
X113684912Y-57576261D01*
X113628343Y-57712832D01*
X113628340Y-57712842D01*
X113599500Y-57857829D01*
X113599500Y-57857832D01*
X113599500Y-58005668D01*
X113599500Y-58005670D01*
X113599499Y-58005670D01*
X92110500Y-58005670D01*
X92110500Y-55854500D01*
X92130185Y-55787461D01*
X92182989Y-55741706D01*
X92234500Y-55730500D01*
X132185500Y-55730500D01*
X132252539Y-55750185D01*
G37*
%TD.AperFunction*%
%TD*%
%TA.AperFunction,Conductor*%
%TO.N,Net-(J2-Pin_1)*%
G36*
X99760868Y-68090945D02*
G01*
X100400067Y-68188484D01*
X100407726Y-68193119D01*
X100410000Y-68200049D01*
X100410000Y-69179950D01*
X100406573Y-69188223D01*
X100400065Y-69191516D01*
X99760869Y-69289053D01*
X99752174Y-69286913D01*
X99750448Y-69285359D01*
X99216159Y-68697872D01*
X99213128Y-68689446D01*
X99216159Y-68682128D01*
X99750450Y-68094639D01*
X99758550Y-68090825D01*
X99760868Y-68090945D01*
G37*
%TD.AperFunction*%
%TD*%
%TA.AperFunction,Conductor*%
%TO.N,Net-(J2-Pin_1)*%
G36*
X106641894Y-67872948D02*
G01*
X106645334Y-67875328D01*
X107482638Y-68711648D01*
X107486070Y-68719919D01*
X107482648Y-68728194D01*
X107482565Y-68728277D01*
X106645601Y-69549626D01*
X106637296Y-69552974D01*
X106632788Y-69552025D01*
X105797082Y-69193042D01*
X105790833Y-69186628D01*
X105790000Y-69182292D01*
X105790000Y-68198097D01*
X105793427Y-68189824D01*
X105797578Y-68187147D01*
X106632944Y-67872656D01*
X106641894Y-67872948D01*
G37*
%TD.AperFunction*%
%TD*%
%TA.AperFunction,Conductor*%
%TO.N,Net-(J2-Pin_2)*%
G36*
X97568990Y-74958834D02*
G01*
X97570047Y-74959770D01*
X98261742Y-75651465D01*
X98265169Y-75659738D01*
X98263840Y-75665154D01*
X97494388Y-77138411D01*
X97487520Y-77144158D01*
X97480868Y-77144263D01*
X96898292Y-76981471D01*
X96891247Y-76975944D01*
X96889755Y-76969624D01*
X96951034Y-75731960D01*
X96953510Y-75725324D01*
X97552565Y-74960826D01*
X97560365Y-74956428D01*
X97568990Y-74958834D01*
G37*
%TD.AperFunction*%
%TD*%
%TA.AperFunction,Conductor*%
%TO.N,Net-(J2-Pin_2)*%
G36*
X109256652Y-68399653D02*
G01*
X110028544Y-68718400D01*
X110032360Y-68720950D01*
X110623023Y-69313004D01*
X110626440Y-69321281D01*
X110623249Y-69329297D01*
X109548893Y-70467721D01*
X109540723Y-70471386D01*
X109532354Y-70468200D01*
X109532111Y-70467964D01*
X108838456Y-69774309D01*
X108835029Y-69766036D01*
X108835518Y-69762690D01*
X109240993Y-68407118D01*
X109246646Y-68400176D01*
X109255554Y-68399264D01*
X109256652Y-68399653D01*
G37*
%TD.AperFunction*%
%TD*%
%TA.AperFunction,Conductor*%
%TO.N,Net-(J2-Pin_6)*%
G36*
X120688752Y-67023427D02*
G01*
X120691935Y-67029323D01*
X120973332Y-68385248D01*
X120971658Y-68394044D01*
X120966365Y-68398430D01*
X120194489Y-68719134D01*
X120185534Y-68719143D01*
X120185511Y-68719134D01*
X119413634Y-68398430D01*
X119407309Y-68392091D01*
X119406667Y-68385249D01*
X119688065Y-67029322D01*
X119693102Y-67021918D01*
X119699521Y-67020000D01*
X120680479Y-67020000D01*
X120688752Y-67023427D01*
G37*
%TD.AperFunction*%
%TD*%
%TA.AperFunction,Conductor*%
%TO.N,Net-(J2-Pin_6)*%
G36*
X117755060Y-60697255D02*
G01*
X117760549Y-60702744D01*
X118348400Y-61928414D01*
X118349392Y-61935397D01*
X118251630Y-62521973D01*
X118246889Y-62529571D01*
X118240089Y-62531750D01*
X117259911Y-62531750D01*
X117251638Y-62528323D01*
X117248370Y-62521973D01*
X117150607Y-61935394D01*
X117151598Y-61928416D01*
X117739451Y-60702743D01*
X117746118Y-60696767D01*
X117755060Y-60697255D01*
G37*
%TD.AperFunction*%
%TD*%
%TA.AperFunction,Conductor*%
%TO.N,Net-(J2-Pin_4)*%
G36*
X115114484Y-68720863D02*
G01*
X115886365Y-69041569D01*
X115892690Y-69047908D01*
X115893332Y-69054751D01*
X115611935Y-70410677D01*
X115606898Y-70418082D01*
X115600479Y-70420000D01*
X114619521Y-70420000D01*
X114611248Y-70416573D01*
X114608065Y-70410677D01*
X114326667Y-69054751D01*
X114328341Y-69045955D01*
X114333631Y-69041570D01*
X115105511Y-68720864D01*
X115114466Y-68720856D01*
X115114484Y-68720863D01*
G37*
%TD.AperFunction*%
%TD*%
%TA.AperFunction,Conductor*%
%TO.N,Net-(J2-Pin_4)*%
G36*
X117648362Y-75023427D02*
G01*
X117651630Y-75029777D01*
X117749392Y-75616352D01*
X117748400Y-75623335D01*
X117160549Y-76849005D01*
X117153882Y-76854982D01*
X117144940Y-76854494D01*
X117139451Y-76849005D01*
X117000767Y-76559850D01*
X116551598Y-75623333D01*
X116550607Y-75616355D01*
X116648370Y-75029775D01*
X116653111Y-75022179D01*
X116659911Y-75020000D01*
X117640089Y-75020000D01*
X117648362Y-75023427D01*
G37*
%TD.AperFunction*%
%TD*%
%TA.AperFunction,Conductor*%
%TO.N,Net-(J2-Pin_5)*%
G36*
X118369189Y-69017863D02*
G01*
X118424737Y-69040901D01*
X118431066Y-69047235D01*
X118431163Y-69055939D01*
X118046870Y-70046575D01*
X118044235Y-70050617D01*
X117353062Y-70741790D01*
X117344789Y-70745217D01*
X117336516Y-70741790D01*
X117333514Y-70736642D01*
X116867656Y-69055939D01*
X116867463Y-69055242D01*
X116868556Y-69046356D01*
X116874248Y-69041314D01*
X117644811Y-68721154D01*
X117653760Y-68721146D01*
X118369189Y-69017863D01*
G37*
%TD.AperFunction*%
%TD*%
%TA.AperFunction,Conductor*%
%TO.N,Net-(J2-Pin_5)*%
G36*
X126536498Y-74869770D02*
G01*
X126537434Y-74870827D01*
X127136489Y-75635323D01*
X127138966Y-75641960D01*
X127200244Y-76879624D01*
X127197230Y-76888057D01*
X127191707Y-76891471D01*
X126609131Y-77054262D01*
X126600241Y-77053188D01*
X126595611Y-77048410D01*
X126387476Y-76649898D01*
X125826158Y-75575152D01*
X125825367Y-75566235D01*
X125828255Y-75561467D01*
X126519953Y-74869769D01*
X126528225Y-74866343D01*
X126536498Y-74869770D01*
G37*
%TD.AperFunction*%
%TD*%
%TA.AperFunction,Conductor*%
%TO.N,Net-(J2-Pin_3)*%
G36*
X107649000Y-74920674D02*
G01*
X107650388Y-74921861D01*
X108342057Y-75613530D01*
X108345484Y-75621803D01*
X108344415Y-75626689D01*
X107674073Y-77085224D01*
X107667504Y-77091310D01*
X107660547Y-77091674D01*
X107078136Y-76942965D01*
X107070968Y-76937598D01*
X107069331Y-76931580D01*
X107074547Y-75693780D01*
X107076787Y-75686944D01*
X107632655Y-74923249D01*
X107640295Y-74918576D01*
X107649000Y-74920674D01*
G37*
%TD.AperFunction*%
%TD*%
%TA.AperFunction,Conductor*%
%TO.N,Net-(J2-Pin_3)*%
G36*
X112574484Y-68720863D02*
G01*
X113346365Y-69041569D01*
X113352690Y-69047908D01*
X113353332Y-69054751D01*
X113071935Y-70410677D01*
X113066898Y-70418082D01*
X113060479Y-70420000D01*
X112079521Y-70420000D01*
X112071248Y-70416573D01*
X112068065Y-70410677D01*
X111786667Y-69054751D01*
X111788341Y-69045955D01*
X111793631Y-69041570D01*
X112565511Y-68720864D01*
X112574466Y-68720856D01*
X112574484Y-68720863D01*
G37*
%TD.AperFunction*%
%TD*%
M02*
