%TF.GenerationSoftware,KiCad,Pcbnew,8.0.5*%
%TF.CreationDate,2024-11-11T16:35:59-08:00*%
%TF.ProjectId,Switch Lock,53776974-6368-4204-9c6f-636b2e6b6963,rev?*%
%TF.SameCoordinates,Original*%
%TF.FileFunction,Drillmap*%
%TF.FilePolarity,Positive*%
%FSLAX45Y45*%
G04 Gerber Fmt 4.5, Leading zero omitted, Abs format (unit mm)*
G04 Created by KiCad (PCBNEW 8.0.5) date 2024-11-11 16:35:59*
%MOMM*%
%LPD*%
G01*
G04 APERTURE LIST*
%ADD10C,0.050000*%
%ADD11C,0.200000*%
%ADD12C,0.100000*%
G04 APERTURE END LIST*
D10*
X13231000Y-8244000D02*
X9211000Y-8244000D01*
X13281000Y-5573000D02*
X13281000Y-8194000D01*
X9211000Y-5523000D02*
X13231000Y-5523000D01*
X9161000Y-8194000D02*
X9161000Y-5573000D01*
X9211000Y-8244000D02*
G75*
G02*
X9161000Y-8194000I0J50000D01*
G01*
X13281000Y-8194000D02*
G75*
G02*
X13231000Y-8244000I-50000J0D01*
G01*
X13231000Y-5523000D02*
G75*
G02*
X13281000Y-5573000I0J-50000D01*
G01*
X9161000Y-5573000D02*
G75*
G02*
X9211000Y-5523000I50000J0D01*
G01*
D11*
D12*
X9924000Y-7682825D02*
X9954000Y-7712825D01*
X9954000Y-7682825D02*
X9924000Y-7712825D01*
X10942000Y-7679000D02*
X10972000Y-7709000D01*
X10972000Y-7679000D02*
X10942000Y-7709000D01*
X11510000Y-6053175D02*
X11540000Y-6083175D01*
X11540000Y-6053175D02*
X11510000Y-6083175D01*
X11950000Y-7672000D02*
X11980000Y-7702000D01*
X11980000Y-7672000D02*
X11950000Y-7702000D01*
X12794000Y-6937750D02*
X12824000Y-6967750D01*
X12824000Y-6937750D02*
X12794000Y-6967750D01*
X12955000Y-7673825D02*
X12985000Y-7703825D01*
X12985000Y-7673825D02*
X12955000Y-7703825D01*
X10799000Y-6872000D02*
G75*
G02*
X10699000Y-6872000I-50000J0D01*
G01*
X10699000Y-6872000D02*
G75*
G02*
X10799000Y-6872000I50000J0D01*
G01*
X11053000Y-6872000D02*
G75*
G02*
X10953000Y-6872000I-50000J0D01*
G01*
X10953000Y-6872000D02*
G75*
G02*
X11053000Y-6872000I50000J0D01*
G01*
X11307000Y-6872000D02*
G75*
G02*
X11207000Y-6872000I-50000J0D01*
G01*
X11207000Y-6872000D02*
G75*
G02*
X11307000Y-6872000I50000J0D01*
G01*
X11561000Y-6872000D02*
G75*
G02*
X11461000Y-6872000I-50000J0D01*
G01*
X11461000Y-6872000D02*
G75*
G02*
X11561000Y-6872000I50000J0D01*
G01*
X11815000Y-6872000D02*
G75*
G02*
X11715000Y-6872000I-50000J0D01*
G01*
X11715000Y-6872000D02*
G75*
G02*
X11815000Y-6872000I50000J0D01*
G01*
X12069000Y-6872000D02*
G75*
G02*
X11969000Y-6872000I-50000J0D01*
G01*
X11969000Y-6872000D02*
G75*
G02*
X12069000Y-6872000I50000J0D01*
G01*
X12323000Y-6872000D02*
G75*
G02*
X12223000Y-6872000I-50000J0D01*
G01*
X12223000Y-6872000D02*
G75*
G02*
X12323000Y-6872000I50000J0D01*
G01*
D11*
X9419277Y-8557984D02*
X9419277Y-8357984D01*
X9419277Y-8357984D02*
X9466896Y-8357984D01*
X9466896Y-8357984D02*
X9495467Y-8367508D01*
X9495467Y-8367508D02*
X9514515Y-8386555D01*
X9514515Y-8386555D02*
X9524039Y-8405603D01*
X9524039Y-8405603D02*
X9533563Y-8443698D01*
X9533563Y-8443698D02*
X9533563Y-8472270D01*
X9533563Y-8472270D02*
X9524039Y-8510365D01*
X9524039Y-8510365D02*
X9514515Y-8529412D01*
X9514515Y-8529412D02*
X9495467Y-8548460D01*
X9495467Y-8548460D02*
X9466896Y-8557984D01*
X9466896Y-8557984D02*
X9419277Y-8557984D01*
X9619277Y-8557984D02*
X9619277Y-8424650D01*
X9619277Y-8462746D02*
X9628801Y-8443698D01*
X9628801Y-8443698D02*
X9638324Y-8434174D01*
X9638324Y-8434174D02*
X9657372Y-8424650D01*
X9657372Y-8424650D02*
X9676420Y-8424650D01*
X9743086Y-8557984D02*
X9743086Y-8424650D01*
X9743086Y-8357984D02*
X9733563Y-8367508D01*
X9733563Y-8367508D02*
X9743086Y-8377031D01*
X9743086Y-8377031D02*
X9752610Y-8367508D01*
X9752610Y-8367508D02*
X9743086Y-8357984D01*
X9743086Y-8357984D02*
X9743086Y-8377031D01*
X9866896Y-8557984D02*
X9847848Y-8548460D01*
X9847848Y-8548460D02*
X9838324Y-8529412D01*
X9838324Y-8529412D02*
X9838324Y-8357984D01*
X9971658Y-8557984D02*
X9952610Y-8548460D01*
X9952610Y-8548460D02*
X9943086Y-8529412D01*
X9943086Y-8529412D02*
X9943086Y-8357984D01*
X10200229Y-8557984D02*
X10200229Y-8357984D01*
X10200229Y-8357984D02*
X10266896Y-8500841D01*
X10266896Y-8500841D02*
X10333563Y-8357984D01*
X10333563Y-8357984D02*
X10333563Y-8557984D01*
X10514515Y-8557984D02*
X10514515Y-8453222D01*
X10514515Y-8453222D02*
X10504991Y-8434174D01*
X10504991Y-8434174D02*
X10485944Y-8424650D01*
X10485944Y-8424650D02*
X10447848Y-8424650D01*
X10447848Y-8424650D02*
X10428801Y-8434174D01*
X10514515Y-8548460D02*
X10495467Y-8557984D01*
X10495467Y-8557984D02*
X10447848Y-8557984D01*
X10447848Y-8557984D02*
X10428801Y-8548460D01*
X10428801Y-8548460D02*
X10419277Y-8529412D01*
X10419277Y-8529412D02*
X10419277Y-8510365D01*
X10419277Y-8510365D02*
X10428801Y-8491317D01*
X10428801Y-8491317D02*
X10447848Y-8481793D01*
X10447848Y-8481793D02*
X10495467Y-8481793D01*
X10495467Y-8481793D02*
X10514515Y-8472270D01*
X10609753Y-8424650D02*
X10609753Y-8624650D01*
X10609753Y-8434174D02*
X10628801Y-8424650D01*
X10628801Y-8424650D02*
X10666896Y-8424650D01*
X10666896Y-8424650D02*
X10685944Y-8434174D01*
X10685944Y-8434174D02*
X10695467Y-8443698D01*
X10695467Y-8443698D02*
X10704991Y-8462746D01*
X10704991Y-8462746D02*
X10704991Y-8519889D01*
X10704991Y-8519889D02*
X10695467Y-8538936D01*
X10695467Y-8538936D02*
X10685944Y-8548460D01*
X10685944Y-8548460D02*
X10666896Y-8557984D01*
X10666896Y-8557984D02*
X10628801Y-8557984D01*
X10628801Y-8557984D02*
X10609753Y-8548460D01*
X10790705Y-8538936D02*
X10800229Y-8548460D01*
X10800229Y-8548460D02*
X10790705Y-8557984D01*
X10790705Y-8557984D02*
X10781182Y-8548460D01*
X10781182Y-8548460D02*
X10790705Y-8538936D01*
X10790705Y-8538936D02*
X10790705Y-8557984D01*
X10790705Y-8434174D02*
X10800229Y-8443698D01*
X10800229Y-8443698D02*
X10790705Y-8453222D01*
X10790705Y-8453222D02*
X10781182Y-8443698D01*
X10781182Y-8443698D02*
X10790705Y-8434174D01*
X10790705Y-8434174D02*
X10790705Y-8453222D01*
D12*
X9128500Y-8871500D02*
X9158500Y-8901500D01*
X9158500Y-8871500D02*
X9128500Y-8901500D01*
D11*
X9457372Y-8777984D02*
X9476420Y-8777984D01*
X9476420Y-8777984D02*
X9495467Y-8787508D01*
X9495467Y-8787508D02*
X9504991Y-8797031D01*
X9504991Y-8797031D02*
X9514515Y-8816079D01*
X9514515Y-8816079D02*
X9524039Y-8854174D01*
X9524039Y-8854174D02*
X9524039Y-8901793D01*
X9524039Y-8901793D02*
X9514515Y-8939889D01*
X9514515Y-8939889D02*
X9504991Y-8958936D01*
X9504991Y-8958936D02*
X9495467Y-8968460D01*
X9495467Y-8968460D02*
X9476420Y-8977984D01*
X9476420Y-8977984D02*
X9457372Y-8977984D01*
X9457372Y-8977984D02*
X9438324Y-8968460D01*
X9438324Y-8968460D02*
X9428801Y-8958936D01*
X9428801Y-8958936D02*
X9419277Y-8939889D01*
X9419277Y-8939889D02*
X9409753Y-8901793D01*
X9409753Y-8901793D02*
X9409753Y-8854174D01*
X9409753Y-8854174D02*
X9419277Y-8816079D01*
X9419277Y-8816079D02*
X9428801Y-8797031D01*
X9428801Y-8797031D02*
X9438324Y-8787508D01*
X9438324Y-8787508D02*
X9457372Y-8777984D01*
X9609753Y-8958936D02*
X9619277Y-8968460D01*
X9619277Y-8968460D02*
X9609753Y-8977984D01*
X9609753Y-8977984D02*
X9600229Y-8968460D01*
X9600229Y-8968460D02*
X9609753Y-8958936D01*
X9609753Y-8958936D02*
X9609753Y-8977984D01*
X9685944Y-8777984D02*
X9809753Y-8777984D01*
X9809753Y-8777984D02*
X9743086Y-8854174D01*
X9743086Y-8854174D02*
X9771658Y-8854174D01*
X9771658Y-8854174D02*
X9790705Y-8863698D01*
X9790705Y-8863698D02*
X9800229Y-8873222D01*
X9800229Y-8873222D02*
X9809753Y-8892270D01*
X9809753Y-8892270D02*
X9809753Y-8939889D01*
X9809753Y-8939889D02*
X9800229Y-8958936D01*
X9800229Y-8958936D02*
X9790705Y-8968460D01*
X9790705Y-8968460D02*
X9771658Y-8977984D01*
X9771658Y-8977984D02*
X9714515Y-8977984D01*
X9714515Y-8977984D02*
X9695467Y-8968460D01*
X9695467Y-8968460D02*
X9685944Y-8958936D01*
X9933563Y-8777984D02*
X9952610Y-8777984D01*
X9952610Y-8777984D02*
X9971658Y-8787508D01*
X9971658Y-8787508D02*
X9981182Y-8797031D01*
X9981182Y-8797031D02*
X9990705Y-8816079D01*
X9990705Y-8816079D02*
X10000229Y-8854174D01*
X10000229Y-8854174D02*
X10000229Y-8901793D01*
X10000229Y-8901793D02*
X9990705Y-8939889D01*
X9990705Y-8939889D02*
X9981182Y-8958936D01*
X9981182Y-8958936D02*
X9971658Y-8968460D01*
X9971658Y-8968460D02*
X9952610Y-8977984D01*
X9952610Y-8977984D02*
X9933563Y-8977984D01*
X9933563Y-8977984D02*
X9914515Y-8968460D01*
X9914515Y-8968460D02*
X9904991Y-8958936D01*
X9904991Y-8958936D02*
X9895467Y-8939889D01*
X9895467Y-8939889D02*
X9885944Y-8901793D01*
X9885944Y-8901793D02*
X9885944Y-8854174D01*
X9885944Y-8854174D02*
X9895467Y-8816079D01*
X9895467Y-8816079D02*
X9904991Y-8797031D01*
X9904991Y-8797031D02*
X9914515Y-8787508D01*
X9914515Y-8787508D02*
X9933563Y-8777984D01*
X10124039Y-8777984D02*
X10143086Y-8777984D01*
X10143086Y-8777984D02*
X10162134Y-8787508D01*
X10162134Y-8787508D02*
X10171658Y-8797031D01*
X10171658Y-8797031D02*
X10181182Y-8816079D01*
X10181182Y-8816079D02*
X10190705Y-8854174D01*
X10190705Y-8854174D02*
X10190705Y-8901793D01*
X10190705Y-8901793D02*
X10181182Y-8939889D01*
X10181182Y-8939889D02*
X10171658Y-8958936D01*
X10171658Y-8958936D02*
X10162134Y-8968460D01*
X10162134Y-8968460D02*
X10143086Y-8977984D01*
X10143086Y-8977984D02*
X10124039Y-8977984D01*
X10124039Y-8977984D02*
X10104991Y-8968460D01*
X10104991Y-8968460D02*
X10095467Y-8958936D01*
X10095467Y-8958936D02*
X10085944Y-8939889D01*
X10085944Y-8939889D02*
X10076420Y-8901793D01*
X10076420Y-8901793D02*
X10076420Y-8854174D01*
X10076420Y-8854174D02*
X10085944Y-8816079D01*
X10085944Y-8816079D02*
X10095467Y-8797031D01*
X10095467Y-8797031D02*
X10104991Y-8787508D01*
X10104991Y-8787508D02*
X10124039Y-8777984D01*
X10276420Y-8977984D02*
X10276420Y-8844650D01*
X10276420Y-8863698D02*
X10285944Y-8854174D01*
X10285944Y-8854174D02*
X10304991Y-8844650D01*
X10304991Y-8844650D02*
X10333563Y-8844650D01*
X10333563Y-8844650D02*
X10352610Y-8854174D01*
X10352610Y-8854174D02*
X10362134Y-8873222D01*
X10362134Y-8873222D02*
X10362134Y-8977984D01*
X10362134Y-8873222D02*
X10371658Y-8854174D01*
X10371658Y-8854174D02*
X10390705Y-8844650D01*
X10390705Y-8844650D02*
X10419277Y-8844650D01*
X10419277Y-8844650D02*
X10438325Y-8854174D01*
X10438325Y-8854174D02*
X10447848Y-8873222D01*
X10447848Y-8873222D02*
X10447848Y-8977984D01*
X10543086Y-8977984D02*
X10543086Y-8844650D01*
X10543086Y-8863698D02*
X10552610Y-8854174D01*
X10552610Y-8854174D02*
X10571658Y-8844650D01*
X10571658Y-8844650D02*
X10600229Y-8844650D01*
X10600229Y-8844650D02*
X10619277Y-8854174D01*
X10619277Y-8854174D02*
X10628801Y-8873222D01*
X10628801Y-8873222D02*
X10628801Y-8977984D01*
X10628801Y-8873222D02*
X10638325Y-8854174D01*
X10638325Y-8854174D02*
X10657372Y-8844650D01*
X10657372Y-8844650D02*
X10685944Y-8844650D01*
X10685944Y-8844650D02*
X10704991Y-8854174D01*
X10704991Y-8854174D02*
X10714515Y-8873222D01*
X10714515Y-8873222D02*
X10714515Y-8977984D01*
X11104991Y-8768460D02*
X10933563Y-9025603D01*
X11362134Y-8777984D02*
X11381182Y-8777984D01*
X11381182Y-8777984D02*
X11400229Y-8787508D01*
X11400229Y-8787508D02*
X11409753Y-8797031D01*
X11409753Y-8797031D02*
X11419277Y-8816079D01*
X11419277Y-8816079D02*
X11428801Y-8854174D01*
X11428801Y-8854174D02*
X11428801Y-8901793D01*
X11428801Y-8901793D02*
X11419277Y-8939889D01*
X11419277Y-8939889D02*
X11409753Y-8958936D01*
X11409753Y-8958936D02*
X11400229Y-8968460D01*
X11400229Y-8968460D02*
X11381182Y-8977984D01*
X11381182Y-8977984D02*
X11362134Y-8977984D01*
X11362134Y-8977984D02*
X11343086Y-8968460D01*
X11343086Y-8968460D02*
X11333563Y-8958936D01*
X11333563Y-8958936D02*
X11324039Y-8939889D01*
X11324039Y-8939889D02*
X11314515Y-8901793D01*
X11314515Y-8901793D02*
X11314515Y-8854174D01*
X11314515Y-8854174D02*
X11324039Y-8816079D01*
X11324039Y-8816079D02*
X11333563Y-8797031D01*
X11333563Y-8797031D02*
X11343086Y-8787508D01*
X11343086Y-8787508D02*
X11362134Y-8777984D01*
X11514515Y-8958936D02*
X11524039Y-8968460D01*
X11524039Y-8968460D02*
X11514515Y-8977984D01*
X11514515Y-8977984D02*
X11504991Y-8968460D01*
X11504991Y-8968460D02*
X11514515Y-8958936D01*
X11514515Y-8958936D02*
X11514515Y-8977984D01*
X11647848Y-8777984D02*
X11666896Y-8777984D01*
X11666896Y-8777984D02*
X11685944Y-8787508D01*
X11685944Y-8787508D02*
X11695467Y-8797031D01*
X11695467Y-8797031D02*
X11704991Y-8816079D01*
X11704991Y-8816079D02*
X11714515Y-8854174D01*
X11714515Y-8854174D02*
X11714515Y-8901793D01*
X11714515Y-8901793D02*
X11704991Y-8939889D01*
X11704991Y-8939889D02*
X11695467Y-8958936D01*
X11695467Y-8958936D02*
X11685944Y-8968460D01*
X11685944Y-8968460D02*
X11666896Y-8977984D01*
X11666896Y-8977984D02*
X11647848Y-8977984D01*
X11647848Y-8977984D02*
X11628801Y-8968460D01*
X11628801Y-8968460D02*
X11619277Y-8958936D01*
X11619277Y-8958936D02*
X11609753Y-8939889D01*
X11609753Y-8939889D02*
X11600229Y-8901793D01*
X11600229Y-8901793D02*
X11600229Y-8854174D01*
X11600229Y-8854174D02*
X11609753Y-8816079D01*
X11609753Y-8816079D02*
X11619277Y-8797031D01*
X11619277Y-8797031D02*
X11628801Y-8787508D01*
X11628801Y-8787508D02*
X11647848Y-8777984D01*
X11904991Y-8977984D02*
X11790706Y-8977984D01*
X11847848Y-8977984D02*
X11847848Y-8777984D01*
X11847848Y-8777984D02*
X11828801Y-8806555D01*
X11828801Y-8806555D02*
X11809753Y-8825603D01*
X11809753Y-8825603D02*
X11790706Y-8835127D01*
X12095467Y-8977984D02*
X11981182Y-8977984D01*
X12038325Y-8977984D02*
X12038325Y-8777984D01*
X12038325Y-8777984D02*
X12019277Y-8806555D01*
X12019277Y-8806555D02*
X12000229Y-8825603D01*
X12000229Y-8825603D02*
X11981182Y-8835127D01*
X12209753Y-8863698D02*
X12190706Y-8854174D01*
X12190706Y-8854174D02*
X12181182Y-8844650D01*
X12181182Y-8844650D02*
X12171658Y-8825603D01*
X12171658Y-8825603D02*
X12171658Y-8816079D01*
X12171658Y-8816079D02*
X12181182Y-8797031D01*
X12181182Y-8797031D02*
X12190706Y-8787508D01*
X12190706Y-8787508D02*
X12209753Y-8777984D01*
X12209753Y-8777984D02*
X12247848Y-8777984D01*
X12247848Y-8777984D02*
X12266896Y-8787508D01*
X12266896Y-8787508D02*
X12276420Y-8797031D01*
X12276420Y-8797031D02*
X12285944Y-8816079D01*
X12285944Y-8816079D02*
X12285944Y-8825603D01*
X12285944Y-8825603D02*
X12276420Y-8844650D01*
X12276420Y-8844650D02*
X12266896Y-8854174D01*
X12266896Y-8854174D02*
X12247848Y-8863698D01*
X12247848Y-8863698D02*
X12209753Y-8863698D01*
X12209753Y-8863698D02*
X12190706Y-8873222D01*
X12190706Y-8873222D02*
X12181182Y-8882746D01*
X12181182Y-8882746D02*
X12171658Y-8901793D01*
X12171658Y-8901793D02*
X12171658Y-8939889D01*
X12171658Y-8939889D02*
X12181182Y-8958936D01*
X12181182Y-8958936D02*
X12190706Y-8968460D01*
X12190706Y-8968460D02*
X12209753Y-8977984D01*
X12209753Y-8977984D02*
X12247848Y-8977984D01*
X12247848Y-8977984D02*
X12266896Y-8968460D01*
X12266896Y-8968460D02*
X12276420Y-8958936D01*
X12276420Y-8958936D02*
X12285944Y-8939889D01*
X12285944Y-8939889D02*
X12285944Y-8901793D01*
X12285944Y-8901793D02*
X12276420Y-8882746D01*
X12276420Y-8882746D02*
X12266896Y-8873222D01*
X12266896Y-8873222D02*
X12247848Y-8863698D01*
X12362134Y-8777984D02*
X12362134Y-8816079D01*
X12438325Y-8777984D02*
X12438325Y-8816079D01*
X12733563Y-9054174D02*
X12724039Y-9044650D01*
X12724039Y-9044650D02*
X12704991Y-9016079D01*
X12704991Y-9016079D02*
X12695468Y-8997031D01*
X12695468Y-8997031D02*
X12685944Y-8968460D01*
X12685944Y-8968460D02*
X12676420Y-8920841D01*
X12676420Y-8920841D02*
X12676420Y-8882746D01*
X12676420Y-8882746D02*
X12685944Y-8835127D01*
X12685944Y-8835127D02*
X12695468Y-8806555D01*
X12695468Y-8806555D02*
X12704991Y-8787508D01*
X12704991Y-8787508D02*
X12724039Y-8758936D01*
X12724039Y-8758936D02*
X12733563Y-8749412D01*
X12895468Y-8777984D02*
X12857372Y-8777984D01*
X12857372Y-8777984D02*
X12838325Y-8787508D01*
X12838325Y-8787508D02*
X12828801Y-8797031D01*
X12828801Y-8797031D02*
X12809753Y-8825603D01*
X12809753Y-8825603D02*
X12800229Y-8863698D01*
X12800229Y-8863698D02*
X12800229Y-8939889D01*
X12800229Y-8939889D02*
X12809753Y-8958936D01*
X12809753Y-8958936D02*
X12819277Y-8968460D01*
X12819277Y-8968460D02*
X12838325Y-8977984D01*
X12838325Y-8977984D02*
X12876420Y-8977984D01*
X12876420Y-8977984D02*
X12895468Y-8968460D01*
X12895468Y-8968460D02*
X12904991Y-8958936D01*
X12904991Y-8958936D02*
X12914515Y-8939889D01*
X12914515Y-8939889D02*
X12914515Y-8892270D01*
X12914515Y-8892270D02*
X12904991Y-8873222D01*
X12904991Y-8873222D02*
X12895468Y-8863698D01*
X12895468Y-8863698D02*
X12876420Y-8854174D01*
X12876420Y-8854174D02*
X12838325Y-8854174D01*
X12838325Y-8854174D02*
X12819277Y-8863698D01*
X12819277Y-8863698D02*
X12809753Y-8873222D01*
X12809753Y-8873222D02*
X12800229Y-8892270D01*
X13152610Y-8977984D02*
X13152610Y-8777984D01*
X13238325Y-8977984D02*
X13238325Y-8873222D01*
X13238325Y-8873222D02*
X13228801Y-8854174D01*
X13228801Y-8854174D02*
X13209753Y-8844650D01*
X13209753Y-8844650D02*
X13181182Y-8844650D01*
X13181182Y-8844650D02*
X13162134Y-8854174D01*
X13162134Y-8854174D02*
X13152610Y-8863698D01*
X13362134Y-8977984D02*
X13343087Y-8968460D01*
X13343087Y-8968460D02*
X13333563Y-8958936D01*
X13333563Y-8958936D02*
X13324039Y-8939889D01*
X13324039Y-8939889D02*
X13324039Y-8882746D01*
X13324039Y-8882746D02*
X13333563Y-8863698D01*
X13333563Y-8863698D02*
X13343087Y-8854174D01*
X13343087Y-8854174D02*
X13362134Y-8844650D01*
X13362134Y-8844650D02*
X13390706Y-8844650D01*
X13390706Y-8844650D02*
X13409753Y-8854174D01*
X13409753Y-8854174D02*
X13419277Y-8863698D01*
X13419277Y-8863698D02*
X13428801Y-8882746D01*
X13428801Y-8882746D02*
X13428801Y-8939889D01*
X13428801Y-8939889D02*
X13419277Y-8958936D01*
X13419277Y-8958936D02*
X13409753Y-8968460D01*
X13409753Y-8968460D02*
X13390706Y-8977984D01*
X13390706Y-8977984D02*
X13362134Y-8977984D01*
X13543087Y-8977984D02*
X13524039Y-8968460D01*
X13524039Y-8968460D02*
X13514515Y-8949412D01*
X13514515Y-8949412D02*
X13514515Y-8777984D01*
X13695468Y-8968460D02*
X13676420Y-8977984D01*
X13676420Y-8977984D02*
X13638325Y-8977984D01*
X13638325Y-8977984D02*
X13619277Y-8968460D01*
X13619277Y-8968460D02*
X13609753Y-8949412D01*
X13609753Y-8949412D02*
X13609753Y-8873222D01*
X13609753Y-8873222D02*
X13619277Y-8854174D01*
X13619277Y-8854174D02*
X13638325Y-8844650D01*
X13638325Y-8844650D02*
X13676420Y-8844650D01*
X13676420Y-8844650D02*
X13695468Y-8854174D01*
X13695468Y-8854174D02*
X13704991Y-8873222D01*
X13704991Y-8873222D02*
X13704991Y-8892270D01*
X13704991Y-8892270D02*
X13609753Y-8911317D01*
X13781182Y-8968460D02*
X13800230Y-8977984D01*
X13800230Y-8977984D02*
X13838325Y-8977984D01*
X13838325Y-8977984D02*
X13857372Y-8968460D01*
X13857372Y-8968460D02*
X13866896Y-8949412D01*
X13866896Y-8949412D02*
X13866896Y-8939889D01*
X13866896Y-8939889D02*
X13857372Y-8920841D01*
X13857372Y-8920841D02*
X13838325Y-8911317D01*
X13838325Y-8911317D02*
X13809753Y-8911317D01*
X13809753Y-8911317D02*
X13790706Y-8901793D01*
X13790706Y-8901793D02*
X13781182Y-8882746D01*
X13781182Y-8882746D02*
X13781182Y-8873222D01*
X13781182Y-8873222D02*
X13790706Y-8854174D01*
X13790706Y-8854174D02*
X13809753Y-8844650D01*
X13809753Y-8844650D02*
X13838325Y-8844650D01*
X13838325Y-8844650D02*
X13857372Y-8854174D01*
X13933563Y-9054174D02*
X13943087Y-9044650D01*
X13943087Y-9044650D02*
X13962134Y-9016079D01*
X13962134Y-9016079D02*
X13971658Y-8997031D01*
X13971658Y-8997031D02*
X13981182Y-8968460D01*
X13981182Y-8968460D02*
X13990706Y-8920841D01*
X13990706Y-8920841D02*
X13990706Y-8882746D01*
X13990706Y-8882746D02*
X13981182Y-8835127D01*
X13981182Y-8835127D02*
X13971658Y-8806555D01*
X13971658Y-8806555D02*
X13962134Y-8787508D01*
X13962134Y-8787508D02*
X13943087Y-8758936D01*
X13943087Y-8758936D02*
X13933563Y-8749412D01*
D12*
X9158500Y-9150500D02*
G75*
G02*
X9058500Y-9150500I-50000J0D01*
G01*
X9058500Y-9150500D02*
G75*
G02*
X9158500Y-9150500I50000J0D01*
G01*
D11*
X9524039Y-9241984D02*
X9409753Y-9241984D01*
X9466896Y-9241984D02*
X9466896Y-9041984D01*
X9466896Y-9041984D02*
X9447848Y-9070555D01*
X9447848Y-9070555D02*
X9428801Y-9089603D01*
X9428801Y-9089603D02*
X9409753Y-9099127D01*
X9609753Y-9222936D02*
X9619277Y-9232460D01*
X9619277Y-9232460D02*
X9609753Y-9241984D01*
X9609753Y-9241984D02*
X9600229Y-9232460D01*
X9600229Y-9232460D02*
X9609753Y-9222936D01*
X9609753Y-9222936D02*
X9609753Y-9241984D01*
X9743086Y-9041984D02*
X9762134Y-9041984D01*
X9762134Y-9041984D02*
X9781182Y-9051508D01*
X9781182Y-9051508D02*
X9790705Y-9061031D01*
X9790705Y-9061031D02*
X9800229Y-9080079D01*
X9800229Y-9080079D02*
X9809753Y-9118174D01*
X9809753Y-9118174D02*
X9809753Y-9165793D01*
X9809753Y-9165793D02*
X9800229Y-9203889D01*
X9800229Y-9203889D02*
X9790705Y-9222936D01*
X9790705Y-9222936D02*
X9781182Y-9232460D01*
X9781182Y-9232460D02*
X9762134Y-9241984D01*
X9762134Y-9241984D02*
X9743086Y-9241984D01*
X9743086Y-9241984D02*
X9724039Y-9232460D01*
X9724039Y-9232460D02*
X9714515Y-9222936D01*
X9714515Y-9222936D02*
X9704991Y-9203889D01*
X9704991Y-9203889D02*
X9695467Y-9165793D01*
X9695467Y-9165793D02*
X9695467Y-9118174D01*
X9695467Y-9118174D02*
X9704991Y-9080079D01*
X9704991Y-9080079D02*
X9714515Y-9061031D01*
X9714515Y-9061031D02*
X9724039Y-9051508D01*
X9724039Y-9051508D02*
X9743086Y-9041984D01*
X9933563Y-9041984D02*
X9952610Y-9041984D01*
X9952610Y-9041984D02*
X9971658Y-9051508D01*
X9971658Y-9051508D02*
X9981182Y-9061031D01*
X9981182Y-9061031D02*
X9990705Y-9080079D01*
X9990705Y-9080079D02*
X10000229Y-9118174D01*
X10000229Y-9118174D02*
X10000229Y-9165793D01*
X10000229Y-9165793D02*
X9990705Y-9203889D01*
X9990705Y-9203889D02*
X9981182Y-9222936D01*
X9981182Y-9222936D02*
X9971658Y-9232460D01*
X9971658Y-9232460D02*
X9952610Y-9241984D01*
X9952610Y-9241984D02*
X9933563Y-9241984D01*
X9933563Y-9241984D02*
X9914515Y-9232460D01*
X9914515Y-9232460D02*
X9904991Y-9222936D01*
X9904991Y-9222936D02*
X9895467Y-9203889D01*
X9895467Y-9203889D02*
X9885944Y-9165793D01*
X9885944Y-9165793D02*
X9885944Y-9118174D01*
X9885944Y-9118174D02*
X9895467Y-9080079D01*
X9895467Y-9080079D02*
X9904991Y-9061031D01*
X9904991Y-9061031D02*
X9914515Y-9051508D01*
X9914515Y-9051508D02*
X9933563Y-9041984D01*
X10124039Y-9041984D02*
X10143086Y-9041984D01*
X10143086Y-9041984D02*
X10162134Y-9051508D01*
X10162134Y-9051508D02*
X10171658Y-9061031D01*
X10171658Y-9061031D02*
X10181182Y-9080079D01*
X10181182Y-9080079D02*
X10190705Y-9118174D01*
X10190705Y-9118174D02*
X10190705Y-9165793D01*
X10190705Y-9165793D02*
X10181182Y-9203889D01*
X10181182Y-9203889D02*
X10171658Y-9222936D01*
X10171658Y-9222936D02*
X10162134Y-9232460D01*
X10162134Y-9232460D02*
X10143086Y-9241984D01*
X10143086Y-9241984D02*
X10124039Y-9241984D01*
X10124039Y-9241984D02*
X10104991Y-9232460D01*
X10104991Y-9232460D02*
X10095467Y-9222936D01*
X10095467Y-9222936D02*
X10085944Y-9203889D01*
X10085944Y-9203889D02*
X10076420Y-9165793D01*
X10076420Y-9165793D02*
X10076420Y-9118174D01*
X10076420Y-9118174D02*
X10085944Y-9080079D01*
X10085944Y-9080079D02*
X10095467Y-9061031D01*
X10095467Y-9061031D02*
X10104991Y-9051508D01*
X10104991Y-9051508D02*
X10124039Y-9041984D01*
X10276420Y-9241984D02*
X10276420Y-9108650D01*
X10276420Y-9127698D02*
X10285944Y-9118174D01*
X10285944Y-9118174D02*
X10304991Y-9108650D01*
X10304991Y-9108650D02*
X10333563Y-9108650D01*
X10333563Y-9108650D02*
X10352610Y-9118174D01*
X10352610Y-9118174D02*
X10362134Y-9137222D01*
X10362134Y-9137222D02*
X10362134Y-9241984D01*
X10362134Y-9137222D02*
X10371658Y-9118174D01*
X10371658Y-9118174D02*
X10390705Y-9108650D01*
X10390705Y-9108650D02*
X10419277Y-9108650D01*
X10419277Y-9108650D02*
X10438325Y-9118174D01*
X10438325Y-9118174D02*
X10447848Y-9137222D01*
X10447848Y-9137222D02*
X10447848Y-9241984D01*
X10543086Y-9241984D02*
X10543086Y-9108650D01*
X10543086Y-9127698D02*
X10552610Y-9118174D01*
X10552610Y-9118174D02*
X10571658Y-9108650D01*
X10571658Y-9108650D02*
X10600229Y-9108650D01*
X10600229Y-9108650D02*
X10619277Y-9118174D01*
X10619277Y-9118174D02*
X10628801Y-9137222D01*
X10628801Y-9137222D02*
X10628801Y-9241984D01*
X10628801Y-9137222D02*
X10638325Y-9118174D01*
X10638325Y-9118174D02*
X10657372Y-9108650D01*
X10657372Y-9108650D02*
X10685944Y-9108650D01*
X10685944Y-9108650D02*
X10704991Y-9118174D01*
X10704991Y-9118174D02*
X10714515Y-9137222D01*
X10714515Y-9137222D02*
X10714515Y-9241984D01*
X11104991Y-9032460D02*
X10933563Y-9289603D01*
X11362134Y-9041984D02*
X11381182Y-9041984D01*
X11381182Y-9041984D02*
X11400229Y-9051508D01*
X11400229Y-9051508D02*
X11409753Y-9061031D01*
X11409753Y-9061031D02*
X11419277Y-9080079D01*
X11419277Y-9080079D02*
X11428801Y-9118174D01*
X11428801Y-9118174D02*
X11428801Y-9165793D01*
X11428801Y-9165793D02*
X11419277Y-9203889D01*
X11419277Y-9203889D02*
X11409753Y-9222936D01*
X11409753Y-9222936D02*
X11400229Y-9232460D01*
X11400229Y-9232460D02*
X11381182Y-9241984D01*
X11381182Y-9241984D02*
X11362134Y-9241984D01*
X11362134Y-9241984D02*
X11343086Y-9232460D01*
X11343086Y-9232460D02*
X11333563Y-9222936D01*
X11333563Y-9222936D02*
X11324039Y-9203889D01*
X11324039Y-9203889D02*
X11314515Y-9165793D01*
X11314515Y-9165793D02*
X11314515Y-9118174D01*
X11314515Y-9118174D02*
X11324039Y-9080079D01*
X11324039Y-9080079D02*
X11333563Y-9061031D01*
X11333563Y-9061031D02*
X11343086Y-9051508D01*
X11343086Y-9051508D02*
X11362134Y-9041984D01*
X11514515Y-9222936D02*
X11524039Y-9232460D01*
X11524039Y-9232460D02*
X11514515Y-9241984D01*
X11514515Y-9241984D02*
X11504991Y-9232460D01*
X11504991Y-9232460D02*
X11514515Y-9222936D01*
X11514515Y-9222936D02*
X11514515Y-9241984D01*
X11647848Y-9041984D02*
X11666896Y-9041984D01*
X11666896Y-9041984D02*
X11685944Y-9051508D01*
X11685944Y-9051508D02*
X11695467Y-9061031D01*
X11695467Y-9061031D02*
X11704991Y-9080079D01*
X11704991Y-9080079D02*
X11714515Y-9118174D01*
X11714515Y-9118174D02*
X11714515Y-9165793D01*
X11714515Y-9165793D02*
X11704991Y-9203889D01*
X11704991Y-9203889D02*
X11695467Y-9222936D01*
X11695467Y-9222936D02*
X11685944Y-9232460D01*
X11685944Y-9232460D02*
X11666896Y-9241984D01*
X11666896Y-9241984D02*
X11647848Y-9241984D01*
X11647848Y-9241984D02*
X11628801Y-9232460D01*
X11628801Y-9232460D02*
X11619277Y-9222936D01*
X11619277Y-9222936D02*
X11609753Y-9203889D01*
X11609753Y-9203889D02*
X11600229Y-9165793D01*
X11600229Y-9165793D02*
X11600229Y-9118174D01*
X11600229Y-9118174D02*
X11609753Y-9080079D01*
X11609753Y-9080079D02*
X11619277Y-9061031D01*
X11619277Y-9061031D02*
X11628801Y-9051508D01*
X11628801Y-9051508D02*
X11647848Y-9041984D01*
X11781182Y-9041984D02*
X11904991Y-9041984D01*
X11904991Y-9041984D02*
X11838325Y-9118174D01*
X11838325Y-9118174D02*
X11866896Y-9118174D01*
X11866896Y-9118174D02*
X11885944Y-9127698D01*
X11885944Y-9127698D02*
X11895467Y-9137222D01*
X11895467Y-9137222D02*
X11904991Y-9156270D01*
X11904991Y-9156270D02*
X11904991Y-9203889D01*
X11904991Y-9203889D02*
X11895467Y-9222936D01*
X11895467Y-9222936D02*
X11885944Y-9232460D01*
X11885944Y-9232460D02*
X11866896Y-9241984D01*
X11866896Y-9241984D02*
X11809753Y-9241984D01*
X11809753Y-9241984D02*
X11790706Y-9232460D01*
X11790706Y-9232460D02*
X11781182Y-9222936D01*
X12000229Y-9241984D02*
X12038325Y-9241984D01*
X12038325Y-9241984D02*
X12057372Y-9232460D01*
X12057372Y-9232460D02*
X12066896Y-9222936D01*
X12066896Y-9222936D02*
X12085944Y-9194365D01*
X12085944Y-9194365D02*
X12095467Y-9156270D01*
X12095467Y-9156270D02*
X12095467Y-9080079D01*
X12095467Y-9080079D02*
X12085944Y-9061031D01*
X12085944Y-9061031D02*
X12076420Y-9051508D01*
X12076420Y-9051508D02*
X12057372Y-9041984D01*
X12057372Y-9041984D02*
X12019277Y-9041984D01*
X12019277Y-9041984D02*
X12000229Y-9051508D01*
X12000229Y-9051508D02*
X11990706Y-9061031D01*
X11990706Y-9061031D02*
X11981182Y-9080079D01*
X11981182Y-9080079D02*
X11981182Y-9127698D01*
X11981182Y-9127698D02*
X11990706Y-9146746D01*
X11990706Y-9146746D02*
X12000229Y-9156270D01*
X12000229Y-9156270D02*
X12019277Y-9165793D01*
X12019277Y-9165793D02*
X12057372Y-9165793D01*
X12057372Y-9165793D02*
X12076420Y-9156270D01*
X12076420Y-9156270D02*
X12085944Y-9146746D01*
X12085944Y-9146746D02*
X12095467Y-9127698D01*
X12266896Y-9108650D02*
X12266896Y-9241984D01*
X12219277Y-9032460D02*
X12171658Y-9175317D01*
X12171658Y-9175317D02*
X12295467Y-9175317D01*
X12362134Y-9041984D02*
X12362134Y-9080079D01*
X12438325Y-9041984D02*
X12438325Y-9080079D01*
X12733563Y-9318174D02*
X12724039Y-9308650D01*
X12724039Y-9308650D02*
X12704991Y-9280079D01*
X12704991Y-9280079D02*
X12695468Y-9261031D01*
X12695468Y-9261031D02*
X12685944Y-9232460D01*
X12685944Y-9232460D02*
X12676420Y-9184841D01*
X12676420Y-9184841D02*
X12676420Y-9146746D01*
X12676420Y-9146746D02*
X12685944Y-9099127D01*
X12685944Y-9099127D02*
X12695468Y-9070555D01*
X12695468Y-9070555D02*
X12704991Y-9051508D01*
X12704991Y-9051508D02*
X12724039Y-9022936D01*
X12724039Y-9022936D02*
X12733563Y-9013412D01*
X12790706Y-9041984D02*
X12924039Y-9041984D01*
X12924039Y-9041984D02*
X12838325Y-9241984D01*
X13152610Y-9241984D02*
X13152610Y-9041984D01*
X13238325Y-9241984D02*
X13238325Y-9137222D01*
X13238325Y-9137222D02*
X13228801Y-9118174D01*
X13228801Y-9118174D02*
X13209753Y-9108650D01*
X13209753Y-9108650D02*
X13181182Y-9108650D01*
X13181182Y-9108650D02*
X13162134Y-9118174D01*
X13162134Y-9118174D02*
X13152610Y-9127698D01*
X13362134Y-9241984D02*
X13343087Y-9232460D01*
X13343087Y-9232460D02*
X13333563Y-9222936D01*
X13333563Y-9222936D02*
X13324039Y-9203889D01*
X13324039Y-9203889D02*
X13324039Y-9146746D01*
X13324039Y-9146746D02*
X13333563Y-9127698D01*
X13333563Y-9127698D02*
X13343087Y-9118174D01*
X13343087Y-9118174D02*
X13362134Y-9108650D01*
X13362134Y-9108650D02*
X13390706Y-9108650D01*
X13390706Y-9108650D02*
X13409753Y-9118174D01*
X13409753Y-9118174D02*
X13419277Y-9127698D01*
X13419277Y-9127698D02*
X13428801Y-9146746D01*
X13428801Y-9146746D02*
X13428801Y-9203889D01*
X13428801Y-9203889D02*
X13419277Y-9222936D01*
X13419277Y-9222936D02*
X13409753Y-9232460D01*
X13409753Y-9232460D02*
X13390706Y-9241984D01*
X13390706Y-9241984D02*
X13362134Y-9241984D01*
X13543087Y-9241984D02*
X13524039Y-9232460D01*
X13524039Y-9232460D02*
X13514515Y-9213412D01*
X13514515Y-9213412D02*
X13514515Y-9041984D01*
X13695468Y-9232460D02*
X13676420Y-9241984D01*
X13676420Y-9241984D02*
X13638325Y-9241984D01*
X13638325Y-9241984D02*
X13619277Y-9232460D01*
X13619277Y-9232460D02*
X13609753Y-9213412D01*
X13609753Y-9213412D02*
X13609753Y-9137222D01*
X13609753Y-9137222D02*
X13619277Y-9118174D01*
X13619277Y-9118174D02*
X13638325Y-9108650D01*
X13638325Y-9108650D02*
X13676420Y-9108650D01*
X13676420Y-9108650D02*
X13695468Y-9118174D01*
X13695468Y-9118174D02*
X13704991Y-9137222D01*
X13704991Y-9137222D02*
X13704991Y-9156270D01*
X13704991Y-9156270D02*
X13609753Y-9175317D01*
X13781182Y-9232460D02*
X13800230Y-9241984D01*
X13800230Y-9241984D02*
X13838325Y-9241984D01*
X13838325Y-9241984D02*
X13857372Y-9232460D01*
X13857372Y-9232460D02*
X13866896Y-9213412D01*
X13866896Y-9213412D02*
X13866896Y-9203889D01*
X13866896Y-9203889D02*
X13857372Y-9184841D01*
X13857372Y-9184841D02*
X13838325Y-9175317D01*
X13838325Y-9175317D02*
X13809753Y-9175317D01*
X13809753Y-9175317D02*
X13790706Y-9165793D01*
X13790706Y-9165793D02*
X13781182Y-9146746D01*
X13781182Y-9146746D02*
X13781182Y-9137222D01*
X13781182Y-9137222D02*
X13790706Y-9118174D01*
X13790706Y-9118174D02*
X13809753Y-9108650D01*
X13809753Y-9108650D02*
X13838325Y-9108650D01*
X13838325Y-9108650D02*
X13857372Y-9118174D01*
X13933563Y-9318174D02*
X13943087Y-9308650D01*
X13943087Y-9308650D02*
X13962134Y-9280079D01*
X13962134Y-9280079D02*
X13971658Y-9261031D01*
X13971658Y-9261031D02*
X13981182Y-9232460D01*
X13981182Y-9232460D02*
X13990706Y-9184841D01*
X13990706Y-9184841D02*
X13990706Y-9146746D01*
X13990706Y-9146746D02*
X13981182Y-9099127D01*
X13981182Y-9099127D02*
X13971658Y-9070555D01*
X13971658Y-9070555D02*
X13962134Y-9051508D01*
X13962134Y-9051508D02*
X13943087Y-9022936D01*
X13943087Y-9022936D02*
X13933563Y-9013412D01*
M02*
